<?xml version="1.0" encoding="UTF-8"?>
<svg version="1.1" xmlns="http://www.w3.org/2000/svg" width="126" height="137">
<path d="M0 0 C13.65936276 11.92965234 22.39640616 28.80716967 23.97753906 46.91894531 C25.20212505 68.56870133 20.67236217 88.11327511 6.125 104.84765625 C-4.90991598 116.30001148 -16.95925828 122.42405282 -32.79296875 122.80883789 C-59.8032789 123.26175468 -59.8032789 123.26175468 -71.25 114.3125 C-72.22195312 113.55710937 -73.19390625 112.80171875 -74.1953125 112.0234375 C-76.70252921 109.89632362 -78.98794486 107.69589143 -81.25 105.3125 C-82.10464844 104.43464844 -82.10464844 104.43464844 -82.9765625 103.5390625 C-95.1576614 90.23355447 -100.99598615 71.59652997 -100.43359375 53.69921875 C-98.83440281 32.90973648 -91.6915334 14.71278223 -76.25 0.3125 C-53.3531215 -18.29716824 -22.98164051 -18.1434004 0 0 Z M-42.25 13.3125 C-43.63142556 14.47627902 -43.63142556 14.47627902 -43.5 17.6875 C-43.59263568 21.24104978 -43.59263568 21.24104978 -41.75 23.25 C-41.255 23.600625 -40.76 23.95125 -40.25 24.3125 C-39.26 23.9825 -38.27 23.6525 -37.25 23.3125 C-37.91 22.77625 -38.57 22.24 -39.25 21.6875 C-41.25 19.3125 -41.25 19.3125 -41.5 16.0625 C-41.4175 15.155 -41.335 14.2475 -41.25 13.3125 C-41.58 13.3125 -41.91 13.3125 -42.25 13.3125 Z M-58.25 19.3125 C-57.25 21.3125 -57.25 21.3125 -57.25 21.3125 Z M-63.25 21.3125 C-63.25 21.9725 -63.25 22.6325 -63.25 23.3125 C-62.59 22.9825 -61.93 22.6525 -61.25 22.3125 C-61.91 21.9825 -62.57 21.6525 -63.25 21.3125 Z M-54.25 22.3125 C-53.25 24.3125 -53.25 24.3125 -53.25 24.3125 Z M-60.25 26.3125 C-60.91 27.6325 -61.57 28.9525 -62.25 30.3125 C-61.0854799 31.97871425 -61.0854799 31.97871425 -59.25 33.3125 C-56.59533951 33.08206136 -56.59533951 33.08206136 -54.25 32.3125 C-54.58 30.6625 -54.91 29.0125 -55.25 27.3125 C-56.9 26.9825 -58.55 26.6525 -60.25 26.3125 Z " fill="#263272" transform="translate(101.25,14.6875)"/>
<path d="M0 0 C7.48782694 7.21718259 9.50574204 15.72852434 9.78515625 25.75390625 C10.6252184 33.57545579 13.83222275 41.96708412 18.1875 48.5 C17.8125 52.1875 17.8125 52.1875 17.1875 55.5 C15.2075 55.83 13.2275 56.16 11.1875 56.5 C11.07474731 57.36951294 11.07474731 57.36951294 10.9597168 58.2565918 C10.60991246 60.90193751 10.24263173 63.54457534 9.875 66.1875 C9.69807617 67.55551758 9.69807617 67.55551758 9.51757812 68.95117188 C8.04250698 79.35231457 8.04250698 79.35231457 3.453125 82.8046875 C0.23489377 83.79235157 -2.70568114 83.68716331 -6.0625 83.625 C-7.32578125 83.60695313 -8.5890625 83.58890625 -9.890625 83.5703125 C-10.85484375 83.54710938 -11.8190625 83.52390625 -12.8125 83.5 C-12.83396337 94.32527396 -12.83396337 94.32527396 -7.8125 103.5 C-7.43996094 104.05429688 -7.06742188 104.60859375 -6.68359375 105.1796875 C-5.38809377 107.1476019 -5.38809377 107.1476019 -2.8125 109.5 C0.89823505 110.00196294 0.89823505 110.00196294 4.1875 109.5 C4.1875 108.84 4.1875 108.18 4.1875 107.5 C5.1775 107.5 6.1675 107.5 7.1875 107.5 C7.1875 108.16 7.1875 108.82 7.1875 109.5 C-0.66138274 113.35214903 -8.75580833 113.17706039 -17.3125 113.1875 C-18.07339935 113.19123627 -18.83429871 113.19497253 -19.61825562 113.19882202 C-33.06084137 113.1940275 -43.74051279 111.57115589 -53.69921875 101.73046875 C-54.74529297 100.62638672 -54.74529297 100.62638672 -55.8125 99.5 C-55.20664062 99.28214844 -54.60078125 99.06429687 -53.9765625 98.83984375 C-48.95797224 95.73266602 -47.43904498 87.9611972 -46.05078125 82.5078125 C-43.73887534 70.6695425 -45.41250726 62.71554345 -51.875 52.5625 C-57.86106363 42.83325228 -59.35295175 31.9545724 -57.30859375 20.734375 C-54.68226647 10.94942992 -49.53706015 3.60495238 -40.8671875 -1.6875 C-27.88302356 -8.61238743 -12.15108011 -9.00672166 0 0 Z M-21.8125 3.5 C-23.19392556 4.66377902 -23.19392556 4.66377902 -23.0625 7.875 C-23.15513568 11.42854978 -23.15513568 11.42854978 -21.3125 13.4375 C-20.8175 13.788125 -20.3225 14.13875 -19.8125 14.5 C-18.8225 14.17 -17.8325 13.84 -16.8125 13.5 C-17.4725 12.96375 -18.1325 12.4275 -18.8125 11.875 C-20.8125 9.5 -20.8125 9.5 -21.0625 6.25 C-20.98 5.3425 -20.8975 4.435 -20.8125 3.5 C-21.1425 3.5 -21.4725 3.5 -21.8125 3.5 Z M-37.8125 9.5 C-36.8125 11.5 -36.8125 11.5 -36.8125 11.5 Z M-42.8125 11.5 C-42.8125 12.16 -42.8125 12.82 -42.8125 13.5 C-42.1525 13.17 -41.4925 12.84 -40.8125 12.5 C-41.4725 12.17 -42.1325 11.84 -42.8125 11.5 Z M-33.8125 12.5 C-32.8125 14.5 -32.8125 14.5 -32.8125 14.5 Z M-39.8125 16.5 C-40.4725 17.82 -41.1325 19.14 -41.8125 20.5 C-40.6479799 22.16621425 -40.6479799 22.16621425 -38.8125 23.5 C-36.15783951 23.26956136 -36.15783951 23.26956136 -33.8125 22.5 C-34.1425 20.85 -34.4725 19.2 -34.8125 17.5 C-36.4625 17.17 -38.1125 16.84 -39.8125 16.5 Z " fill="#2E6CF6" transform="translate(80.8125,24.5)"/>
<path d="M0 0 C-0.33 1.98 -0.66 3.96 -1 6 C1.71549154 8.30671915 1.71549154 8.30671915 4.1875 7.625 C4.785625 7.41875 5.38375 7.2125 6 7 C6 8.32 6 9.64 6 11 C2.7 11 -0.6 11 -4 11 C-4 11.99 -4 12.98 -4 14 C-3.34 14.33 -2.68 14.66 -2 15 C-1.505 16.485 -1.505 16.485 -1 18 C0.65 18.33 2.3 18.66 4 19 C4 19.99 4 20.98 4 22 C-0.95 22 -5.9 22 -11 22 C-11.33 22.66 -11.66 23.32 -12 24 C-11.34 24 -10.68 24 -10 24 C-11 27 -11 27 -13 28 C-11.02 28.99 -9.04 29.98 -7 31 C-7 30.34 -7 29.68 -7 29 C-7.66 29 -8.32 29 -9 29 C-9 28.34 -9 27.68 -9 27 C-7.68 27 -6.36 27 -5 27 C-5 25.68 -5 24.36 -5 23 C-4.34 23 -3.68 23 -3 23 C0 26.46153846 0 26.46153846 0 29 C0.66 29 1.32 29 2 29 C-1.38095238 35.76190476 -1.38095238 35.76190476 -5 37 C-8.75 36.625 -8.75 36.625 -12 36 C-11.505 36.495 -11.505 36.495 -11 37 C-11 37.66 -11 38.32 -11 39 C-10.01 39.33 -9.02 39.66 -8 40 C-7.67 40.99 -7.34 41.98 -7 43 C-5.2895808 43.69074622 -3.57778702 44.37854456 -1.85546875 45.0390625 C1.29459913 46.67046608 2.92454211 49.16983015 5 52 C4.34 52 3.68 52 3 52 C2.67 52.99 2.34 53.98 2 55 C0.0390625 55.87890625 0.0390625 55.87890625 -2.375 56.5625 C-5.45411239 57.45012686 -7.27337172 58.18224782 -10 60 C-10 60.99 -10 61.98 -10 63 C-12.97 63.495 -12.97 63.495 -16 64 C-16.33 61.69 -16.66 59.38 -17 57 C-18.32 56.67 -19.64 56.34 -21 56 C-21.33 56.99 -21.66 57.98 -22 59 C-25.3 59 -28.6 59 -32 59 C-29.97366931 63.32371893 -29.97366931 63.32371893 -27 67 C-26.30298326 75.22069747 -26.87649771 83.62010733 -27.75 91.8125 C-27.88921875 93.11832031 -28.0284375 94.42414063 -28.171875 95.76953125 C-29.12254798 99.47805275 -29.95932825 99.9401901 -33 102 C-33.48057715 104.0488648 -33.48057715 104.0488648 -33.25 106.1875 C-33.1675 107.445625 -33.085 108.70375 -33 110 C-36.65316671 108.75023244 -37.78065836 108.32901247 -40 105 C-39.39414062 104.78214844 -38.78828125 104.56429687 -38.1640625 104.33984375 C-33.14547224 101.23266602 -31.62654498 93.4611972 -30.23828125 88.0078125 C-27.92637534 76.1695425 -29.60000726 68.21554345 -36.0625 58.0625 C-42.02972865 48.36386509 -43.80983403 37.11304912 -41.3203125 25.953125 C-40.62183233 23.59824901 -39.87074503 21.29607171 -39 19 C-37 19 -37 19 -35.375 20.3125 C-34 22 -34 22 -34 25 C-32.68 24.67 -31.36 24.34 -30 24 C-30.33 23.01 -30.66 22.02 -31 21 C-30.01 21 -29.02 21 -28 21 C-28 20.34 -28 19.68 -28 19 C-28.66 19 -29.32 19 -30 19 C-29.67 18.01 -29.34 17.02 -29 16 C-27.824375 16.309375 -27.824375 16.309375 -26.625 16.625 C-25.325625 16.810625 -25.325625 16.810625 -24 17 C-23.34 16.34 -22.68 15.68 -22 15 C-21.34 14.67 -20.68 14.34 -20 14 C-20.33 13.01 -20.66 12.02 -21 11 C-20.01 11 -19.02 11 -18 11 C-18 9.68 -18 8.36 -18 7 C-17.34 7 -16.68 7 -16 7 C-16.33 9.64 -16.66 12.28 -17 15 C-16.01 15 -15.02 15 -14 15 C-14 15.66 -14 16.32 -14 17 C-12.68 17 -11.36 17 -10 17 C-10.020625 15.700625 -10.04125 14.40125 -10.0625 13.0625 C-10.08399454 11.70834367 -10.07148199 10.35243917 -10 9 C-9.67 8.67 -9.34 8.34 -9 8 C-10.32 8.33 -11.64 8.66 -13 9 C-13.66 8.01 -14.32 7.02 -15 6 C-14.67 5.01 -14.34 4.02 -14 3 C-14 3.66 -14 4.32 -14 5 C-13.34 4.67 -12.68 4.34 -12 4 C-11.67 3.01 -11.34 2.02 -11 1 C-7.50970582 -0.47666292 -3.72563614 -0.07164685 0 0 Z M-6 9 C-7.38142556 10.16377902 -7.38142556 10.16377902 -7.25 13.375 C-7.34263568 16.92854978 -7.34263568 16.92854978 -5.5 18.9375 C-5.005 19.288125 -4.51 19.63875 -4 20 C-3.01 19.67 -2.02 19.34 -1 19 C-1.66 18.46375 -2.32 17.9275 -3 17.375 C-5 15 -5 15 -5.25 11.75 C-5.1675 10.8425 -5.085 9.935 -5 9 C-5.33 9 -5.66 9 -6 9 Z M-27 17 C-27 17.66 -27 18.32 -27 19 C-26.34 18.67 -25.68 18.34 -25 18 C-25.66 17.67 -26.32 17.34 -27 17 Z M-18 18 C-17 20 -17 20 -17 20 Z M-24 22 C-24.66 23.32 -25.32 24.64 -26 26 C-24.8354799 27.66621425 -24.8354799 27.66621425 -23 29 C-20.34533951 28.76956136 -20.34533951 28.76956136 -18 28 C-18.33 26.35 -18.66 24.7 -19 23 C-20.65 22.67 -22.3 22.34 -24 22 Z " fill="#346FF3" transform="translate(65,19)"/>
<path d="M0 0 C-0.33 1.98 -0.66 3.96 -1 6 C1.71549154 8.30671915 1.71549154 8.30671915 4.1875 7.625 C4.785625 7.41875 5.38375 7.2125 6 7 C6 8.32 6 9.64 6 11 C2.7 11 -0.6 11 -4 11 C-4 11.99 -4 12.98 -4 14 C-3.34 14.33 -2.68 14.66 -2 15 C-1.505 16.485 -1.505 16.485 -1 18 C0.65 18.33 2.3 18.66 4 19 C4 19.99 4 20.98 4 22 C-0.95 22 -5.9 22 -11 22 C-11.33 22.66 -11.66 23.32 -12 24 C-11.34 24 -10.68 24 -10 24 C-11 27 -11 27 -13 28 C-13.33 28.99 -13.66 29.98 -14 31 C-14.99 31 -15.98 31 -17 31 C-17 31.99 -17 32.98 -17 34 C-17.66 34 -18.32 34 -19 34 C-19.33 34.66 -19.66 35.32 -20 36 C-20.66 36 -21.32 36 -22 36 C-21.67 34.35 -21.34 32.7 -21 31 C-23.475 30.01 -23.475 30.01 -26 29 C-26 29.66 -26 30.32 -26 31 C-26.99 31 -27.98 31 -29 31 C-28.67 29.35 -28.34 27.7 -28 26 C-29.98 26.33 -31.96 26.66 -34 27 C-34 26.34 -34 25.68 -34 25 C-32.68 24.67 -31.36 24.34 -30 24 C-30.33 23.01 -30.66 22.02 -31 21 C-30.01 21 -29.02 21 -28 21 C-28 20.34 -28 19.68 -28 19 C-28.66 19 -29.32 19 -30 19 C-29.67 18.01 -29.34 17.02 -29 16 C-27.824375 16.309375 -27.824375 16.309375 -26.625 16.625 C-25.325625 16.810625 -25.325625 16.810625 -24 17 C-23.34 16.34 -22.68 15.68 -22 15 C-21.34 14.67 -20.68 14.34 -20 14 C-20.33 13.01 -20.66 12.02 -21 11 C-20.01 11 -19.02 11 -18 11 C-18 9.68 -18 8.36 -18 7 C-17.34 7 -16.68 7 -16 7 C-16.33 9.64 -16.66 12.28 -17 15 C-16.01 15 -15.02 15 -14 15 C-14 15.66 -14 16.32 -14 17 C-12.68 17 -11.36 17 -10 17 C-10.020625 15.700625 -10.04125 14.40125 -10.0625 13.0625 C-10.08399454 11.70834367 -10.07148199 10.35243917 -10 9 C-9.67 8.67 -9.34 8.34 -9 8 C-10.32 8.33 -11.64 8.66 -13 9 C-13.66 8.01 -14.32 7.02 -15 6 C-14.67 5.01 -14.34 4.02 -14 3 C-14 3.66 -14 4.32 -14 5 C-13.34 4.67 -12.68 4.34 -12 4 C-11.67 3.01 -11.34 2.02 -11 1 C-7.50970582 -0.47666292 -3.72563614 -0.07164685 0 0 Z M-6 9 C-7.38142556 10.16377902 -7.38142556 10.16377902 -7.25 13.375 C-7.34263568 16.92854978 -7.34263568 16.92854978 -5.5 18.9375 C-5.005 19.288125 -4.51 19.63875 -4 20 C-3.01 19.67 -2.02 19.34 -1 19 C-1.66 18.46375 -2.32 17.9275 -3 17.375 C-5 15 -5 15 -5.25 11.75 C-5.1675 10.8425 -5.085 9.935 -5 9 C-5.33 9 -5.66 9 -6 9 Z M-27 17 C-27 17.66 -27 18.32 -27 19 C-26.34 18.67 -25.68 18.34 -25 18 C-25.66 17.67 -26.32 17.34 -27 17 Z M-18 18 C-17 20 -17 20 -17 20 Z M-24 22 C-24.66 23.32 -25.32 24.64 -26 26 C-24.8354799 27.66621425 -24.8354799 27.66621425 -23 29 C-20.34533951 28.76956136 -20.34533951 28.76956136 -18 28 C-18.33 26.35 -18.66 24.7 -19 23 C-20.65 22.67 -22.3 22.34 -24 22 Z " fill="#3F77F2" transform="translate(65,19)"/>
<path d="M0 0 C0.763125 0.165 1.52625 0.33 2.3125 0.5 C5.03596236 1.09145396 5.03596236 1.09145396 8 1 C8 1.99 8 2.98 8 4 C8.99 3.34 9.98 2.68 11 2 C12 5 12 5 12 8 C12.33 7.01 12.66 6.02 13 5 C15 6 17 7 19 8 C18 11 18 11 16 12 C15.67 12.99 15.34 13.98 15 15 C14.01 15 13.02 15 12 15 C12 15.99 12 16.98 12 18 C11.34 18 10.68 18 10 18 C9.67 18.66 9.34 19.32 9 20 C8.34 20 7.68 20 7 20 C7.33 18.35 7.66 16.7 8 15 C5.525 14.01 5.525 14.01 3 13 C3 13.66 3 14.32 3 15 C2.01 15 1.02 15 0 15 C0.33 13.35 0.66 11.7 1 10 C-0.98 10.33 -2.96 10.66 -5 11 C-5 10.34 -5 9.68 -5 9 C-3.68 8.67 -2.36 8.34 -1 8 C-1.33 7.01 -1.66 6.02 -2 5 C-1.01 5 -0.02 5 1 5 C1 4.34 1 3.68 1 3 C0.34 3 -0.32 3 -1 3 C-0.67 2.01 -0.34 1.02 0 0 Z M2 1 C2 1.66 2 2.32 2 3 C2.66 2.67 3.32 2.34 4 2 C3.34 1.67 2.68 1.34 2 1 Z M5 6 C4.34 7.32 3.68 8.64 3 10 C4.1645201 11.66621425 4.1645201 11.66621425 6 13 C8.65466049 12.76956136 8.65466049 12.76956136 11 12 C10.67 10.35 10.34 8.7 10 7 C8.35 6.67 6.7 6.34 5 6 Z " fill="#6899F0" transform="translate(36,35)"/>
<path d="M0 0 C1.423125 -0.061875 2.84625 -0.12375 4.3125 -0.1875 C5.51326172 -0.23970703 5.51326172 -0.23970703 6.73828125 -0.29296875 C9 0 9 0 10.765625 1.32421875 C12.69113285 3.93827845 12.45804343 5.8591308 12 9 C10.5 10.875 10.5 10.875 8 12 C5.27930412 12.23364755 2.74133849 12.13706692 0 12 C0 8.04 0 4.08 0 0 Z " fill="#8DBCFF" transform="translate(33,64)"/>
<path d="M0 0 C1.32 0.33 2.64 0.66 4 1 C4.19893827 9.31119899 4.15115497 17.53947644 3.25 25.8125 C3.11078125 27.11832031 2.9715625 28.42414063 2.828125 29.76953125 C1.87745202 33.47805275 1.04067175 33.9401901 -2 36 C-2.48057715 38.0488648 -2.48057715 38.0488648 -2.25 40.1875 C-2.1675 41.445625 -2.085 42.70375 -2 44 C-5.65316671 42.75023244 -6.78065836 42.32901247 -9 39 C-8.39414062 38.78214844 -7.78828125 38.56429687 -7.1640625 38.33984375 C-2.14547224 35.23266602 -0.62654498 27.4611972 0.76171875 22.0078125 C2.29161603 14.17387041 2.48315461 7.60466099 0 0 Z " fill="#3567DF" transform="translate(34,85)"/>
<path d="M0 0 C3.625 0.25 3.625 0.25 5.625 1.4375 C6.625 3.25 6.625 3.25 6.5 5.8125 C5.625 8.25 5.625 8.25 2.625 10.25 C-0.22547472 10.0660984 -1.42204758 9.21312487 -3.6875 7.4375 C-5.375 5.25 -5.375 5.25 -5.1875 3.0625 C-3.79946524 -0.03388524 -3.7067709 0.27457562 0 0 Z " fill="#8CBAFD" transform="translate(60.375,63.75)"/>
<path d="M0 0 C0.66 0 1.32 0 2 0 C5 3.46153846 5 3.46153846 5 6 C5.66 6 6.32 6 7 6 C3.66101695 12.6779661 3.66101695 12.6779661 0 14 C-2.75 13.625 -2.75 13.625 -5 13 C-4.34 12.34 -3.68 11.68 -3 11 C-3.99 11 -4.98 11 -6 11 C-5.67 10.01 -5.34 9.02 -5 8 C-4.01 8 -3.02 8 -2 8 C-2 7.34 -2 6.68 -2 6 C-2.66 6 -3.32 6 -4 6 C-4 5.34 -4 4.68 -4 4 C-2.68 4 -1.36 4 0 4 C0 2.68 0 1.36 0 0 Z " fill="#316CF4" transform="translate(60,42)"/>
<path d="M0 0 C0.33 0 0.66 0 1 0 C1.00257812 0.825 1.00515625 1.65 1.0078125 2.5 C1.36988379 13.31386242 3.92091192 23.88136789 10 33 C9.625 36.6875 9.625 36.6875 9 40 C5.535 40.495 5.535 40.495 2 41 C2 40.34 2 39.68 2 39 C3.98 39 5.96 39 8 39 C8 37.02 8 35.04 8 33 C7.34 33 6.68 33 6 33 C5.3291288 31.3767313 4.66342971 29.75132422 4 28.125 C3.62875 27.22007813 3.2575 26.31515625 2.875 25.3828125 C2 23 2 23 2 21 C1.01 20.67 0.02 20.34 -1 20 C-0.67 13.4 -0.34 6.8 0 0 Z " fill="#3565DB" transform="translate(89,40)"/>
<path d="M0 0 C0.82638376 2.89234315 1 4.88742431 1 8 C-1.98555619 11.10038527 -4.8739885 11.35817599 -9 12 C-9.33 12.66 -9.66 13.32 -10 14 C-10.66 14 -11.32 14 -12 14 C-12 13.01 -12 12.02 -12 11 C-11.34 11 -10.68 11 -10 11 C-8.5393715 8.35261084 -8 7.10551666 -8 4 C-5.50470633 1.68294159 -3.34019306 0.59646305 0 0 Z " fill="#2D6CF8" transform="translate(44,23)"/>
<path d="M0 0 C-0.99 0.66 -1.98 1.32 -3 2 C-3 1.34 -3 0.68 -3 0 C-3.99 0.33 -4.98 0.66 -6 1 C-6 0.34 -6 -0.32 -6 -1 C-8.97 -1.33 -11.94 -1.66 -15 -2 C-15 -2.66 -15 -3.32 -15 -4 C-16.41702513 -3.85769192 -17.8336096 -3.71099254 -19.25 -3.5625 C-20.03890625 -3.48128906 -20.8278125 -3.40007812 -21.640625 -3.31640625 C-23.9895729 -3.05536338 -23.9895729 -3.05536338 -26.171875 -2.40234375 C-28 -2 -28 -2 -30 -3 C-31.53668865 -3.22467831 -33.07968054 -3.40796805 -34.625 -3.5625 C-35.44226562 -3.64628906 -36.25953125 -3.73007812 -37.1015625 -3.81640625 C-37.72804687 -3.87699219 -38.35453125 -3.93757812 -39 -4 C-39 -4.33 -39 -4.66 -39 -5 C-25.76695086 -7.35254207 -12.12910712 -6.06455356 0 0 Z " fill="#70779C" transform="translate(90,7)"/>
<path d="M0 0 C0.66 0 1.32 0 2 0 C2.66 1.98 3.32 3.96 4 6 C4.66 6 5.32 6 6 6 C6.33 5.34 6.66 4.68 7 4 C7.66 4 8.32 4 9 4 C9 4.66 9 5.32 9 6 C8.34 6 7.68 6 7 6 C7 8.64 7 11.28 7 14 C5.68 14 4.36 14 3 14 C3 13.34 3 12.68 3 12 C2.01 12 1.02 12 0 12 C0.33 9.36 0.66 6.72 1 4 C0.34 4 -0.32 4 -1 4 C-1.33 4.66 -1.66 5.32 -2 6 C-1.125 1.125 -1.125 1.125 0 0 Z " fill="#3271F4" transform="translate(48,22)"/>
<path d="M0 0 C1.99954746 -0.04254356 4.00041636 -0.04080783 6 0 C7 1 7 1 7.25 3.4375 C7.1675 4.283125 7.085 5.12875 7 6 C4 8 4 8 0 8 C0 5.36 0 2.72 0 0 Z " fill="#3E76E9" transform="translate(35,66)"/>
<path d="M0 0 C0.66 0 1.32 0 2 0 C1.67 2.97 1.34 5.94 1 9 C1.66 9 2.32 9 3 9 C3 10.32 3 11.64 3 13 C2.34 13 1.68 13 1 13 C1 12.34 1 11.68 1 11 C-0.32 11.99 -1.64 12.98 -3 14 C-3.66 13.67 -4.32 13.34 -5 13 C-4.625 10.5625 -4.625 10.5625 -4 8 C-3.34 7.67 -2.68 7.34 -2 7 C-2.33 6.01 -2.66 5.02 -3 4 C-2.01 4 -1.02 4 0 4 C0 2.68 0 1.36 0 0 Z " fill="#4C84F3" transform="translate(47,26)"/>
<path d="M0 0 C0.66 0.33 1.32 0.66 2 1 C0.02 1.99 0.02 1.99 -2 3 C-1.6596875 3.8971875 -1.6596875 3.8971875 -1.3125 4.8125 C-1 7 -1 7 -2.25 8.75 C-4 10 -4 10 -7 10 C-7 10.66 -7 11.32 -7 12 C-7.66 12 -8.32 12 -9 12 C-9 12.66 -9 13.32 -9 14 C-9.66 14 -10.32 14 -11 14 C-9.8237487 7.27856401 -5.02570946 4.07434059 0 0 Z " fill="#3466E0" transform="translate(38,24)"/>
<path d="M0 0 C0.33 0.66 0.66 1.32 1 2 C-1.88415883 3.44207941 -4.41721528 3.09394887 -7.625 3.0625 C-8.81351562 3.05347656 -10.00203125 3.04445313 -11.2265625 3.03515625 C-12.14179687 3.02355469 -13.05703125 3.01195313 -14 3 C-14.05389087 4.95803507 -14.09274217 6.91648909 -14.125 8.875 C-14.14820312 9.96554688 -14.17140625 11.05609375 -14.1953125 12.1796875 C-14.30060534 15.1371051 -14.30060534 15.1371051 -12 17 C-12.375 19.125 -12.375 19.125 -13 21 C-16.05654046 16.80427648 -16.33143207 13.82107724 -16.1875 8.6875 C-16.14689453 6.80611328 -16.14689453 6.80611328 -16.10546875 4.88671875 C-16.07066406 3.93410156 -16.03585938 2.98148437 -16 2 C-15.01257813 1.93941406 -14.02515625 1.87882812 -13.0078125 1.81640625 C-11.72648437 1.73261719 -10.44515625 1.64882812 -9.125 1.5625 C-7.84882812 1.48128906 -6.57265625 1.40007812 -5.2578125 1.31640625 C-2.11699848 1.20793973 -2.11699848 1.20793973 0 0 Z " fill="#162F82" transform="translate(84,106)"/>
<path d="M0 0 C1.0251746 3.13871948 1.00856679 4.96607283 -0.125 8.0625 C-0.46917969 9.06990234 -0.46917969 9.06990234 -0.8203125 10.09765625 C-2.49215798 12.79364548 -4.1152277 13.70004698 -7 15 C-10.33203125 15.29296875 -10.33203125 15.29296875 -13.8125 15.1875 C-15.55466797 15.14689453 -15.55466797 15.14689453 -17.33203125 15.10546875 C-18.21246094 15.07066406 -19.09289062 15.03585938 -20 15 C-20 14.67 -20 14.34 -20 14 C-19.24074219 13.95101562 -18.48148437 13.90203125 -17.69921875 13.8515625 C-16.70535156 13.77679688 -15.71148437 13.70203125 -14.6875 13.625 C-13.70136719 13.55539063 -12.71523437 13.48578125 -11.69921875 13.4140625 C-8.78471567 13.16134528 -8.78471567 13.16134528 -6 11 C-5.01 11 -4.02 11 -3 11 C-2.67 8.36 -2.34 5.72 -2 3 C-1.34 3 -0.68 3 0 3 C0 2.01 0 1.02 0 0 Z " fill="#315FD1" transform="translate(89,93)"/>
<path d="M0 0 C2.64 0.33 5.28 0.66 8 1 C8 1.99 8 2.98 8 4 C5.5 6.1875 5.5 6.1875 3 8 C1.35 6.68 -0.3 5.36 -2 4 C-1.34 3.34 -0.68 2.68 0 2 C0 1.34 0 0.68 0 0 Z " fill="#2D6BF4" transform="translate(64,20)"/>
<path d="M0 0 C0.99 0 1.98 0 3 0 C3 1.32 3 2.64 3 4 C-0.3 4 -3.6 4 -7 4 C-7 4.99 -7 5.98 -7 7 C-6.34 7.33 -5.68 7.66 -5 8 C-4.375 10.0625 -4.375 10.0625 -4 12 C-5.9375 11.375 -5.9375 11.375 -8 10 C-9.40540541 4.81081081 -9.40540541 4.81081081 -8 2 C-5.67284 1.62599214 -3.33882138 1.29235267 -1 1 C-0.67 0.67 -0.34 0.34 0 0 Z " fill="#3C71EE" transform="translate(68,26)"/>
<path d="M0 0 C-0.61538462 6.52307692 -0.61538462 6.52307692 -2.5625 8.9375 C-3.036875 9.288125 -3.51125 9.63875 -4 10 C-4.99 9.34 -5.98 8.68 -7 8 C-7.99 8.495 -7.99 8.495 -9 9 C-7.45665977 5.21180126 -4.44676575 0 0 0 Z " fill="#4F5689" transform="translate(27,15)"/>
<path d="M0 0 C8.79671712 -0.55267333 17.51914506 -0.20596042 24.796875 5.37890625 C26.1875 6.75 26.1875 6.75 28 9 C27.01 9.495 27.01 9.495 26 10 C25.67 9.34 25.34 8.68 25 8 C23.68 8 22.36 8 21 8 C21 7.01 21 6.02 21 5 C13.99822721 2.58507186 7.39139585 1.40751042 0 1 C0 0.67 0 0.34 0 0 Z " fill="#3162D3" transform="translate(54,18)"/>
<path d="M0 0 C2.99220268 1.36370299 5.29026529 2.94908083 7.75 5.125 C8.67039062 5.93324219 8.67039062 5.93324219 9.609375 6.7578125 C10.06828125 7.16773438 10.5271875 7.57765625 11 8 C10.67 8.66 10.34 9.32 10 10 C7.5 8.625 7.5 8.625 5 7 C5 6.34 5 5.68 5 5 C2.83333333 5.83333333 2.83333333 5.83333333 2 8 C0 6 0 6 -0.125 2.875 C-0.08375 1.92625 -0.0425 0.9775 0 0 Z " fill="#515988" transform="translate(96,12)"/>
<path d="M0 0 C0.78375 0.804375 1.5675 1.60875 2.375 2.4375 C5.67791559 5.68453786 5.67791559 5.68453786 10.125 6.0625 C11.548125 6.0315625 11.548125 6.0315625 13 6 C13 5.34 13 4.68 13 4 C13.99 4 14.98 4 16 4 C16 4.66 16 5.32 16 6 C14.75336669 6.50833591 13.50250613 7.00631145 12.25 7.5 C11.55390625 7.7784375 10.8578125 8.056875 10.140625 8.34375 C8 9 8 9 4 9 C0 2.25 0 2.25 0 0 Z " fill="#506DBC" transform="translate(72,128)"/>
<path d="M0 0 C1.32 0 2.64 0 4 0 C4.33 2.64 4.66 5.28 5 8 C4.01 8.33 3.02 8.66 2 9 C1.34 8.67 0.68 8.34 0 8 C0 5.36 0 2.72 0 0 Z " fill="#2D4093" transform="translate(102,97)"/>
<path d="M0 0 C1 3 1 3 0 6 C-0.66 6 -1.32 6 -2 6 C-2 5.01 -2 4.02 -2 3 C-2.886875 3.639375 -3.77375 4.27875 -4.6875 4.9375 C-7.69211428 6.80829757 -9.5510371 7.59423966 -13 8 C-5.43243243 0 -5.43243243 0 0 0 Z " fill="#515988" transform="translate(40,7)"/>
<path d="M0 0 C3.3 0.33 6.6 0.66 10 1 C10 2.65 10 4.3 10 6 C8.68 6.33 7.36 6.66 6 7 C4.02 4.69 2.04 2.38 0 0 Z " fill="#3D4779" transform="translate(18,117)"/>
<path d="M0 0 C0.33 0.99 0.66 1.98 1 3 C-3.62 3 -8.24 3 -13 3 C-13 2.01 -13 1.02 -13 0 C-8.52745503 -1.49084832 -4.47254497 -1.49084832 0 0 Z " fill="#1A4FDF" transform="translate(86,53)"/>
<path d="M0 0 C0.66 0 1.32 0 2 0 C2.02688151 1.64574566 2.04634123 3.29161413 2.0625 4.9375 C2.07410156 5.85402344 2.08570312 6.77054687 2.09765625 7.71484375 C2 10 2 10 1 11 C0.72046781 13.0587768 0.55265649 15.11728432 0.37890625 17.1875 C0.25386719 17.785625 0.12882812 18.38375 0 19 C-0.66 19.33 -1.32 19.66 -2 20 C-1.34 13.4 -0.68 6.8 0 0 Z " fill="#1A3288" transform="translate(91,81)"/>
<path d="M0 0 C0.66 0 1.32 0 2 0 C2 0.99 2 1.98 2 3 C2.99 3 3.98 3 5 3 C3.86695008 6.39914975 2.87481525 7.05254451 0 9 C-1.32 7.35 -2.64 5.7 -4 4 C-2.68 3.67 -1.36 3.34 0 3 C0 2.01 0 1.02 0 0 Z " fill="#7AAFFE" transform="translate(60,89)"/>
<path d="M0 0 C1.2065625 0.0309375 1.2065625 0.0309375 2.4375 0.0625 C2.1075 2.0425 1.7775 4.0225 1.4375 6.0625 C0.4475 6.3925 -0.5425 6.7225 -1.5625 7.0625 C-2.5525 6.4025 -3.5425 5.7425 -4.5625 5.0625 C-3.43829114 0.08386076 -3.43829114 0.08386076 0 0 Z " fill="#98C0FE" transform="translate(59.5625,63.9375)"/>
<path d="M0 0 C2 1 4 2 6 3 C5 6 5 6 3 7 C2.67 7.99 2.34 8.98 2 10 C1.34 9.67 0.68 9.34 0 9 C0 6.03 0 3.06 0 0 Z " fill="#6096F6" transform="translate(49,40)"/>
<path d="M0 0 C1.65 0 3.3 0 5 0 C5.33 1.65 5.66 3.3 6 5 C4.02 6.32 2.04 7.64 0 9 C-0.66 8.67 -1.32 8.34 -2 8 C-0.35 6.02 1.3 4.04 3 2 C2.01 2 1.02 2 0 2 C0 1.34 0 0.68 0 0 Z " fill="#3671F0" transform="translate(62,90)"/>
<path d="M0 0 C-2.99004241 1.53674273 -6.01823885 2.90306293 -9.125 4.1875 C-9.99382813 4.55230469 -10.86265625 4.91710937 -11.7578125 5.29296875 C-14 6 -14 6 -16 5 C-15.67 4.01 -15.34 3.02 -15 2 C-10.06208162 -0.34551123 -5.33555495 -0.2134222 0 0 Z " fill="#1B3384" transform="translate(54,18)"/>
<path d="M0 0 C1.98 0 3.96 0 6 0 C6.33 1.32 6.66 2.64 7 4 C4.69 4.33 2.38 4.66 0 5 C0 3.35 0 1.7 0 0 Z " fill="#1E53E1" transform="translate(78,60)"/>
<path d="M0 0 C0.66 0 1.32 0 2 0 C2.19335938 0.56589844 2.38671875 1.13179687 2.5859375 1.71484375 C2.84632812 2.44832031 3.10671875 3.18179688 3.375 3.9375 C3.63023438 4.66839844 3.88546875 5.39929688 4.1484375 6.15234375 C4.85271413 8.18682116 4.85271413 8.18682116 7 9 C7 11.97 7 14.94 7 18 C6.34 17.67 5.68 17.34 5 17 C5.0515625 16.28199219 5.103125 15.56398438 5.15625 14.82421875 C4.97468886 11.54250121 4.06388716 9.68397059 2.5 6.8125 C0 2.18055556 0 2.18055556 0 0 Z " fill="#173286" transform="translate(93,61)"/>
<path d="M0 0 C2 2 2 2 2.125 5.125 C2.08375 6.07375 2.0425 7.0225 2 8 C-1.65316671 6.75023244 -2.78065836 6.32901247 -5 3 C-3.35 2.01 -1.7 1.02 0 0 Z " fill="#567EE2" transform="translate(30,121)"/>
<path d="M0 0 C3.37705625 0.53725895 6.696686 1.11064623 10 2 C10 2.66 10 3.32 10 4 C7.36 4 4.72 4 2 4 C1.34 2.68 0.68 1.36 0 0 Z " fill="#1B54E2" transform="translate(80,87)"/>
<path d="M0 0 C1.485 0.99 1.485 0.99 3 2 C5.05709596 2.24055468 5.05709596 2.24055468 7.1875 2.125 C8.445625 2.08375 9.70375 2.0425 11 2 C11 2.99 11 3.98 11 5 C8.03 5 5.06 5 2 5 C1.34 3.35 0.68 1.7 0 0 Z " fill="#7AA1EF" transform="translate(58,36)"/>
<path d="M0 0 C0.33 0 0.66 0 1 0 C1.25 2.8125 1.25 2.8125 1 6 C-0.875 7.875 -0.875 7.875 -3 9 C-3.66 9 -4.32 9 -5 9 C-5 8.01 -5 7.02 -5 6 C-4.34 5.67 -3.68 5.34 -3 5 C-2.30062468 3.68352881 -1.63270867 2.34977849 -1 1 C-0.67 0.67 -0.34 0.34 0 0 Z " fill="#7DB0FD" transform="translate(44,67)"/>
<path d="M0 0 C0.33 0 0.66 0 1 0 C1 3.63 1 7.26 1 11 C-2 9 -2 9 -2.6875 6.375 C-2.790625 5.59125 -2.89375 4.8075 -3 4 C-2.01 3.67 -1.02 3.34 0 3 C0 2.01 0 1.02 0 0 Z " fill="#2B6CFA" transform="translate(30,64)"/>
<path d="M0 0 C0.99 0 1.98 0 3 0 C3 0.66 3 1.32 3 2 C2.34 2 1.68 2 1 2 C1 4.64 1 7.28 1 10 C-0.32 10 -1.64 10 -3 10 C-3 9.34 -3 8.68 -3 8 C-2.01 8 -1.02 8 0 8 C0 7.34 0 6.68 0 6 C-0.66 6 -1.32 6 -2 6 C-1.34 4.02 -0.68 2.04 0 0 Z " fill="#296DFB" transform="translate(54,26)"/>
<path d="M0 0 C2.97 0.495 2.97 0.495 6 1 C5.34 2.65 4.68 4.3 4 6 C3.34 6 2.68 6 2 6 C2 5.01 2 4.02 2 3 C1.34 3 0.68 3 0 3 C-0.33 3.66 -0.66 4.32 -1 5 C-1.33 4.01 -1.66 3.02 -2 2 C-1.34 2 -0.68 2 0 2 C0 1.34 0 0.68 0 0 Z " fill="#3669DE" transform="translate(39,48)"/>
<path d="M0 0 C0.66 0 1.32 0 2 0 C3.125 4.75 3.125 4.75 2 7 C1.34 7 0.68 7 0 7 C-0.66 5.35 -1.32 3.7 -2 2 C-1.34 2 -0.68 2 0 2 C0 1.34 0 0.68 0 0 Z " fill="#7EB3FF" transform="translate(62,47)"/>
<path d="M0 0 C0.66 0 1.32 0 2 0 C2.33 1.65 2.66 3.3 3 5 C2.01 5.66 1.02 6.32 0 7 C-0.66 5.68 -1.32 4.36 -2 3 C-1.34 2.01 -0.68 1.02 0 0 Z " fill="#3959B8" transform="translate(103,39)"/>
<path d="M0 0 C0.99 0.33 1.98 0.66 3 1 C2.401875 1.70125 1.80375 2.4025 1.1875 3.125 C-0.97740961 5.97030977 -2.49596636 8.76632767 -4 12 C-5 9 -5 9 -4.2578125 6.9921875 C-3.88398438 6.29351562 -3.51015625 5.59484375 -3.125 4.875 C-2.75632812 4.17117187 -2.38765625 3.46734375 -2.0078125 2.7421875 C-1 1 -1 1 0 0 Z " fill="#173185" transform="translate(30,28)"/>
<path d="M0 0 C0.66 0 1.32 0 2 0 C2 0.66 2 1.32 2 2 C3.65 2.33 5.3 2.66 7 3 C3.25 4.125 3.25 4.125 1 3 C1 3.66 1 4.32 1 5 C0.01 5 -0.98 5 -2 5 C-1.125 1.125 -1.125 1.125 0 0 Z " fill="#77A2F1" transform="translate(38,45)"/>
<path d="M0 0 C0.33 0 0.66 0 1 0 C1 1.65 1 3.3 1 5 C1.66 5.33 2.32 5.66 3 6 C3.625 8.0625 3.625 8.0625 4 10 C2.0625 9.375 2.0625 9.375 0 8 C-1.40540541 2.81081081 -1.40540541 2.81081081 0 0 Z " fill="#7AA3EB" transform="translate(60,28)"/>
<path d="M0 0 C6.75 -0.125 6.75 -0.125 9 1 C9 1.66 9 2.32 9 3 C6.03 2.67 3.06 2.34 0 2 C0 1.34 0 0.68 0 0 Z " fill="#4E7BE4" transform="translate(41,133)"/>
<path d="M0 0 C0.99 0 1.98 0 3 0 C3.33 1.98 3.66 3.96 4 6 C2.68 5.34 1.36 4.68 0 4 C0 2.68 0 1.36 0 0 Z " fill="#2E6FF9" transform="translate(37,67)"/>
<path d="M0 0 C2.29633824 3.44450737 2.54016485 5.93812283 3 10 C2.67 9.34 2.34 8.68 2 8 C1.34 8 0.68 8 0 8 C0 5.36 0 2.72 0 0 Z " fill="#6E73A0" transform="translate(120,43)"/>
<path d="M0 0 C-1.98 0.33 -3.96 0.66 -6 1 C-6 1.66 -6 2.32 -6 3 C-6.99 3.33 -7.98 3.66 -9 4 C-9.66 3.34 -10.32 2.68 -11 2 C-3.57142857 -1.57142857 -3.57142857 -1.57142857 0 0 Z " fill="#7C85A6" transform="translate(51,4)"/>
</svg>
