<?xml version="1.0" encoding="UTF-8"?>
<!DOCTYPE svg PUBLIC "-//W3C//DTD SVG 1.1//EN" "http://www.w3.org/Graphics/SVG/1.1/DTD/svg11.dtd">
<svg xmlns="http://www.w3.org/2000/svg" version="1.1" width="126px" height="135px" style="shape-rendering:geometricPrecision; text-rendering:geometricPrecision; image-rendering:optimizeQuality; fill-rule:evenodd; clip-rule:evenodd" xmlns:xlink="http://www.w3.org/1999/xlink">
<g><path style="opacity:1" fill="#40469b" d="M 50.5,-0.5 C 58.1667,-0.5 65.8333,-0.5 73.5,-0.5C 73.5,-0.166667 73.5,0.166667 73.5,0.5C 71.816,2.29117 69.816,3.79117 67.5,5C 71.0835,5.84558 74.4169,5.34558 77.5,3.5C 78.1667,3.83333 78.8333,4.16667 79.5,4.5C 78.3595,5.42549 78.3595,6.25883 79.5,7C 80.938,7.21893 82.2713,7.71893 83.5,8.5C 81.5956,9.40907 79.7623,10.4091 78,11.5C 76.2462,9.88634 74.2462,8.55301 72,7.5C 69.1367,13.1141 65.47,13.7808 61,9.5C 58.5201,10.8115 56.0201,11.8115 53.5,12.5C 49.774,12.1774 46.1073,12.5108 42.5,13.5C 41.8728,14.4168 41.5394,15.4168 41.5,16.5C 37.3952,16.6846 34.0619,18.3513 31.5,21.5C 26.5412,18.3619 25.8746,14.6953 29.5,10.5C 35.8164,5.50867 42.8164,1.842 50.5,-0.5 Z"/></g>
<g><path style="opacity:1" fill="#444797" d="M 73.5,0.5 C 88.6203,2.96076 100.287,10.6274 108.5,23.5C 106.608,21.4648 104.275,19.9648 101.5,19C 100.167,18.3333 100.167,17.6667 101.5,17C 100.216,16.3162 99.0495,16.4829 98,17.5C 97.51,16.2068 97.3433,14.8734 97.5,13.5C 96.1266,13.6567 94.7932,13.49 93.5,13C 94.4506,12.2825 94.6172,11.4491 94,10.5C 92.2663,11.2489 90.433,11.7489 88.5,12C 87.4464,13.3876 87.2797,14.8876 88,16.5C 89.1827,15.269 90.3493,15.269 91.5,16.5C 90.675,17.3857 89.675,17.719 88.5,17.5C 88.5513,20.5415 89.5513,23.2082 91.5,25.5C 89.7569,27.91 87.7569,29.91 85.5,31.5C 84.8333,30.8333 84.1667,30.1667 83.5,29.5C 82.8333,28.5 82.1667,27.5 81.5,26.5C 81.573,24.9731 80.9063,23.9731 79.5,23.5C 78.7377,21.7376 77.4044,20.7376 75.5,20.5C 75.1583,19.6618 74.4916,19.3284 73.5,19.5C 71.0911,16.295 67.7577,14.6283 63.5,14.5C 63.5,14.1667 63.5,13.8333 63.5,13.5C 60.3752,12.5206 57.0419,12.1872 53.5,12.5C 56.0201,11.8115 58.5201,10.8115 61,9.5C 65.47,13.7808 69.1367,13.1141 72,7.5C 74.2462,8.55301 76.2462,9.88634 78,11.5C 79.7623,10.4091 81.5956,9.40907 83.5,8.5C 82.2713,7.71893 80.938,7.21893 79.5,7C 78.3595,6.25883 78.3595,5.42549 79.5,4.5C 78.8333,4.16667 78.1667,3.83333 77.5,3.5C 74.4169,5.34558 71.0835,5.84558 67.5,5C 69.816,3.79117 71.816,2.29117 73.5,0.5 Z"/></g>
<g><path style="opacity:1" fill="#5a4382" d="M 53.5,12.5 C 57.0419,12.1872 60.3752,12.5206 63.5,13.5C 55.9118,13.0312 48.5784,14.0312 41.5,16.5C 41.5394,15.4168 41.8728,14.4168 42.5,13.5C 46.1073,12.5108 49.774,12.1774 53.5,12.5 Z"/></g>
<g><path style="opacity:1" fill="#c26355" d="M 63.5,13.5 C 63.5,13.8333 63.5,14.1667 63.5,14.5C 53.4285,13.97 44.0951,16.3033 35.5,21.5C 36.8943,19.1057 38.8943,17.439 41.5,16.5C 48.5784,14.0312 55.9118,13.0312 63.5,13.5 Z"/></g>
<g><path style="opacity:1" fill="#bd5f57" d="M 63.5,14.5 C 67.7577,14.6283 71.0911,16.295 73.5,19.5C 70.7713,19.2455 68.4379,18.2455 66.5,16.5C 65.5,15.8333 64.5,15.1667 63.5,14.5 Z"/></g>
<g><path style="opacity:1" fill="#894c5f" d="M 75.5,20.5 C 77.4044,20.7376 78.7377,21.7376 79.5,23.5C 77.5956,23.2624 76.2623,22.2624 75.5,20.5 Z"/></g>
<g><path style="opacity:1" fill="#9c5b60" d="M 33.5,22.5 C 32.5,24.1667 31.1667,25.5 29.5,26.5C 29.8333,24.1667 31.1667,22.8333 33.5,22.5 Z"/></g>
<g><path style="opacity:1" fill="#985563" d="M 79.5,23.5 C 80.9063,23.9731 81.573,24.9731 81.5,26.5C 80.0937,26.0269 79.427,25.0269 79.5,23.5 Z"/></g>
<g><path style="opacity:1" fill="#3f459a" d="M 108.5,23.5 C 112.754,27.6623 115.754,32.6623 117.5,38.5C 118.079,42.2373 118.079,45.904 117.5,49.5C 118.035,51.2705 118.869,51.6039 120,50.5C 120.667,56.8333 120.667,63.1667 120,69.5C 119.167,70.3333 118.333,71.1667 117.5,72C 109.323,72.1708 101.323,72.6708 93.5,73.5C 90.3019,72.9644 87.6353,73.631 85.5,75.5C 84.507,83.9839 84.1736,92.6506 84.5,101.5C 81.3119,100.972 78.9786,99.3049 77.5,96.5C 79.0221,90.9483 79.6888,85.2816 79.5,79.5C 80.4614,77.7354 80.7947,75.7354 80.5,73.5C 80.8333,73.5 81.1667,73.5 81.5,73.5C 82.3294,65.3434 82.8294,57.0101 83,48.5C 86.4586,43.2678 87.2919,37.6012 85.5,31.5C 87.7569,29.91 89.7569,27.91 91.5,25.5C 89.5513,23.2082 88.5513,20.5415 88.5,17.5C 89.675,17.719 90.675,17.3857 91.5,16.5C 90.3493,15.269 89.1827,15.269 88,16.5C 87.2797,14.8876 87.4464,13.3876 88.5,12C 90.433,11.7489 92.2663,11.2489 94,10.5C 94.6172,11.4491 94.4506,12.2825 93.5,13C 94.7932,13.49 96.1266,13.6567 97.5,13.5C 97.3433,14.8734 97.51,16.2068 98,17.5C 99.0495,16.4829 100.216,16.3162 101.5,17C 100.167,17.6667 100.167,18.3333 101.5,19C 104.275,19.9648 106.608,21.4648 108.5,23.5 Z"/></g>
<g><path style="opacity:1" fill="#995960" d="M 29.5,26.5 C 28.9202,28.7488 27.5869,30.4154 25.5,31.5C 26.0798,29.2512 27.4131,27.5846 29.5,26.5 Z"/></g>
<g><path style="opacity:1" fill="#df5d38" d="M 63.5,14.5 C 64.5,15.1667 65.5,15.8333 66.5,16.5C 65.0222,16.238 63.6888,16.5713 62.5,17.5C 52.683,30.7378 40.0163,40.0712 24.5,45.5C 24.5,42.1667 24.5,38.8333 24.5,35.5C 24.8333,34.1667 25.1667,32.8333 25.5,31.5C 27.5869,30.4154 28.9202,28.7488 29.5,26.5C 31.1667,25.5 32.5,24.1667 33.5,22.5C 33.8417,21.6618 34.5084,21.3284 35.5,21.5C 44.0951,16.3033 53.4285,13.97 63.5,14.5 Z"/></g>
<g><path style="opacity:1" fill="#d0532d" d="M 74.5,23.5 C 74.7751,25.7583 75.7751,26.0916 77.5,24.5C 78.8149,26.3159 80.3149,27.9825 82,29.5C 82.6406,35.5283 82.4739,41.5283 81.5,47.5C 81.1667,47.5 80.8333,47.5 80.5,47.5C 77.9768,42.3012 74.3101,37.9678 69.5,34.5C 65.14,39.1944 60.4733,43.5278 55.5,47.5C 55.0618,47.5654 54.7284,47.3988 54.5,47C 55.1258,46.2496 55.6258,45.4162 56,44.5C 63.1484,38.1962 69.3151,31.1962 74.5,23.5 Z"/></g>
<g><path style="opacity:1" fill="#de5d38" d="M 66.5,16.5 C 68.4379,18.2455 70.7713,19.2455 73.5,19.5C 74.2341,20.7079 74.5674,22.0413 74.5,23.5C 69.3151,31.1962 63.1484,38.1962 56,44.5C 55.6258,45.4162 55.1258,46.2496 54.5,47C 54.7284,47.3988 55.0618,47.5654 55.5,47.5C 55.1667,48.1667 54.8333,48.8333 54.5,49.5C 53.5084,49.3284 52.8417,49.6618 52.5,50.5C 51.8333,50.5 51.5,50.8333 51.5,51.5C 49.246,52.1237 47.5794,53.457 46.5,55.5C 46.1667,55.5 45.8333,55.5 45.5,55.5C 42.9899,55.0535 40.9899,55.7202 39.5,57.5C 36.5778,54.966 33.5778,54.966 30.5,57.5C 29.5,56.8333 28.5,56.1667 27.5,55.5C 26.8333,53.8333 26.1667,52.1667 25.5,50.5C 25.5,50.1667 25.5,49.8333 25.5,49.5C 43.1156,43.1992 56.7823,32.1992 66.5,16.5 Z"/></g>
<g><path style="opacity:1" fill="#c95d4a" d="M 73.5,19.5 C 74.4916,19.3284 75.1583,19.6618 75.5,20.5C 76.2623,22.2624 77.5956,23.2624 79.5,23.5C 79.427,25.0269 80.0937,26.0269 81.5,26.5C 82.1667,27.5 82.8333,28.5 83.5,29.5C 83.6661,35.1764 83.4994,40.8431 83,46.5C 82.6174,47.056 82.1174,47.3893 81.5,47.5C 82.4739,41.5283 82.6406,35.5283 82,29.5C 80.3149,27.9825 78.8149,26.3159 77.5,24.5C 75.7751,26.0916 74.7751,25.7583 74.5,23.5C 74.5674,22.0413 74.2341,20.7079 73.5,19.5 Z"/></g>
<g><path style="opacity:1" fill="#424699" d="M 29.5,10.5 C 25.8746,14.6953 26.5412,18.3619 31.5,21.5C 34.0619,18.3513 37.3952,16.6846 41.5,16.5C 38.8943,17.439 36.8943,19.1057 35.5,21.5C 34.5084,21.3284 33.8417,21.6618 33.5,22.5C 31.1667,22.8333 29.8333,24.1667 29.5,26.5C 27.4131,27.5846 26.0798,29.2512 25.5,31.5C 24.8501,31.8039 24.1835,32.1373 23.5,32.5C 22.8166,39.3891 22.1499,46.2224 21.5,53C 24.2121,53.6386 26.2121,55.1386 27.5,57.5C 28.1174,57.6107 28.6174,57.944 29,58.5C 29.1829,61.3647 29.6829,64.0314 30.5,66.5C 31.1429,68.0764 32.1429,69.4097 33.5,70.5C 34.4006,72.7271 36.0672,73.7271 38.5,73.5C 38.8333,73.5 39.1667,73.5 39.5,73.5C 39.9664,78.6378 40.9664,83.6378 42.5,88.5C 40.437,90.449 39.1036,92.7823 38.5,95.5C 34.5312,96.073 30.8645,97.4063 27.5,99.5C 23.7264,102.625 19.7264,105.292 15.5,107.5C 1.18335,85.6317 -1.31665,62.2984 8,37.5C 12.8121,26.4977 19.9788,17.4977 29.5,10.5 Z"/></g>
<g><path style="opacity:1" fill="#c34425" d="M 66.5,16.5 C 56.7823,32.1992 43.1156,43.1992 25.5,49.5C 24.7659,48.2921 24.4326,46.9587 24.5,45.5C 40.0163,40.0712 52.683,30.7378 62.5,17.5C 63.6888,16.5713 65.0222,16.238 66.5,16.5 Z"/></g>
<g><path style="opacity:1" fill="#b95b54" d="M 24.5,35.5 C 24.5,38.8333 24.5,42.1667 24.5,45.5C 24.4326,46.9587 24.7659,48.2921 25.5,49.5C 25.5,49.8333 25.5,50.1667 25.5,50.5C 24.8826,50.3893 24.3826,50.056 24,49.5C 23.1849,44.6478 23.3516,39.9811 24.5,35.5 Z"/></g>
<g><path style="opacity:1" fill="#604579" d="M 83.5,29.5 C 84.1667,30.1667 84.8333,30.8333 85.5,31.5C 87.2919,37.6012 86.4586,43.2678 83,48.5C 82.8294,57.0101 82.3294,65.3434 81.5,73.5C 81.5,64.8333 81.5,56.1667 81.5,47.5C 82.1174,47.3893 82.6174,47.056 83,46.5C 83.4994,40.8431 83.6661,35.1764 83.5,29.5 Z"/></g>
<g><path style="opacity:1" fill="#39181f" d="M 71.5,50.5 C 82.1667,51.1667 82.1667,51.8333 71.5,52.5C 71.5,51.8333 71.5,51.1667 71.5,50.5 Z"/></g>
<g><path style="opacity:1" fill="#5b4581" d="M 25.5,31.5 C 25.1667,32.8333 24.8333,34.1667 24.5,35.5C 23.3516,39.9811 23.1849,44.6478 24,49.5C 24.3826,50.056 24.8826,50.3893 25.5,50.5C 26.1667,52.1667 26.8333,53.8333 27.5,55.5C 27.5,56.1667 27.5,56.8333 27.5,57.5C 26.2121,55.1386 24.2121,53.6386 21.5,53C 22.1499,46.2224 22.8166,39.3891 23.5,32.5C 24.1835,32.1373 24.8501,31.8039 25.5,31.5 Z"/></g>
<g><path style="opacity:1" fill="#aa796b" d="M 54.5,49.5 C 57.5,49.5 60.5,49.5 63.5,49.5C 63.8432,51.4832 63.1765,52.8166 61.5,53.5C 58.5,53.5 55.5,53.5 52.5,53.5C 51.6618,53.1583 51.3284,52.4916 51.5,51.5C 51.5,50.8333 51.8333,50.5 52.5,50.5C 52.8417,49.6618 53.5084,49.3284 54.5,49.5 Z"/></g>
<g><path style="opacity:1" fill="#321923" d="M 52.5,50.5 C 55.8984,50.1796 59.2317,50.513 62.5,51.5C 60.8333,51.8333 59.1667,52.1667 57.5,52.5C 55.3603,52.4439 53.6936,51.7773 52.5,50.5 Z"/></g>
<g><path style="opacity:1" fill="#df926a" d="M 80.5,48.5 C 77.5,49.1667 74.5,49.8333 71.5,50.5C 71.5,51.1667 71.5,51.8333 71.5,52.5C 74.2869,53.4767 77.2869,53.81 80.5,53.5C 80.5,54.8333 80.5,56.1667 80.5,57.5C 79.8423,56.6016 79.1757,55.6016 78.5,54.5C 77.7025,54.9569 77.3691,55.6236 77.5,56.5C 79.6899,61.3272 78.0233,63.3272 72.5,62.5C 72.4033,57.4682 71.4033,52.8015 69.5,48.5C 73.1667,48.5 76.8333,48.5 80.5,48.5 Z"/></g>
<g><path style="opacity:1" fill="#8b5856" d="M 45.5,55.5 C 45.5,60.1667 45.5,64.8333 45.5,69.5C 44.5151,65.3656 44.1818,61.0323 44.5,56.5C 43.1779,56.33 42.0113,56.6634 41,57.5C 40.8255,62.3514 40.3255,67.0181 39.5,71.5C 39.5,68.8333 39.5,66.1667 39.5,63.5C 39.5,61.5 39.5,59.5 39.5,57.5C 40.9899,55.7202 42.9899,55.0535 45.5,55.5 Z"/></g>
<g><path style="opacity:1" fill="#ee8d57" d="M 39.5,57.5 C 39.5,59.5 39.5,61.5 39.5,63.5C 38.5269,65.9479 38.1936,68.6146 38.5,71.5C 36.7839,71.3713 35.1172,71.038 33.5,70.5C 32.8386,67.2129 32.3386,63.8796 32,60.5C 31.6174,59.944 31.1174,59.6107 30.5,59.5C 30.5,58.8333 30.5,58.1667 30.5,57.5C 33.5778,54.966 36.5778,54.966 39.5,57.5 Z"/></g>
<g><path style="opacity:1" fill="#845060" d="M 27.5,55.5 C 28.5,56.1667 29.5,56.8333 30.5,57.5C 30.5,58.1667 30.5,58.8333 30.5,59.5C 30.5,61.8333 30.5,64.1667 30.5,66.5C 29.6829,64.0314 29.1829,61.3647 29,58.5C 28.6174,57.944 28.1174,57.6107 27.5,57.5C 27.5,56.8333 27.5,56.1667 27.5,55.5 Z"/></g>
<g><path style="opacity:1" fill="#ef8f59" d="M 80.5,47.5 C 80.5,47.8333 80.5,48.1667 80.5,48.5C 76.8333,48.5 73.1667,48.5 69.5,48.5C 71.4033,52.8015 72.4033,57.4682 72.5,62.5C 78.0233,63.3272 79.6899,61.3272 77.5,56.5C 77.3691,55.6236 77.7025,54.9569 78.5,54.5C 79.1757,55.6016 79.8423,56.6016 80.5,57.5C 80.5,62.8333 80.5,68.1667 80.5,73.5C 79.8333,74.8333 79.1667,76.1667 78.5,77.5C 76.5395,75.6878 74.2061,74.6878 71.5,74.5C 66.6446,73.3093 61.6446,73.3093 56.5,74.5C 56.5,75.5 56.5,76.5 56.5,77.5C 56.1667,78.5 55.5,79.1667 54.5,79.5C 53.5,79.5 52.5,79.5 51.5,79.5C 51.178,77.2776 51.8446,75.4443 53.5,74C 50.7886,72.7394 48.622,70.906 47,68.5C 46.501,64.1794 46.3343,59.8461 46.5,55.5C 47.5794,53.457 49.246,52.1237 51.5,51.5C 51.3284,52.4916 51.6618,53.1583 52.5,53.5C 53.2625,54.2679 54.2625,54.7679 55.5,55C 54.4086,57.0639 54.2419,59.2305 55,61.5C 56.6155,62.8009 58.1155,62.8009 59.5,61.5C 59.5,61.1667 59.5,60.8333 59.5,60.5C 60.807,58.7768 60.807,56.9435 59.5,55C 60.4158,54.7216 61.0825,54.2216 61.5,53.5C 63.1765,52.8166 63.8432,51.4832 63.5,49.5C 60.5,49.5 57.5,49.5 54.5,49.5C 54.8333,48.8333 55.1667,48.1667 55.5,47.5C 60.4733,43.5278 65.14,39.1944 69.5,34.5C 74.3101,37.9678 77.9768,42.3012 80.5,47.5 Z"/></g>
<g><path style="opacity:1" fill="#432938" d="M 77.5,56.5 C 77.5,57.8333 77.5,59.1667 77.5,60.5C 76.1667,60.5 74.8333,60.5 73.5,60.5C 73.5,59.1667 73.5,57.8333 73.5,56.5C 74.8333,56.5 76.1667,56.5 77.5,56.5 Z"/></g>
<g><path style="opacity:1" fill="#483038" d="M 59.5,60.5 C 59.5,60.8333 59.5,61.1667 59.5,61.5C 56.0897,61.6162 54.7564,59.9496 55.5,56.5C 56.8333,56.5 58.1667,56.5 59.5,56.5C 59.5,57.8333 59.5,59.1667 59.5,60.5 Z"/></g>
<g><path style="opacity:1" fill="#e0916b" d="M 52.5,53.5 C 55.5,53.5 58.5,53.5 61.5,53.5C 61.0825,54.2216 60.4158,54.7216 59.5,55C 60.807,56.9435 60.807,58.7768 59.5,60.5C 59.5,59.1667 59.5,57.8333 59.5,56.5C 58.1667,56.5 56.8333,56.5 55.5,56.5C 54.7564,59.9496 56.0897,61.6162 59.5,61.5C 58.1155,62.8009 56.6155,62.8009 55,61.5C 54.2419,59.2305 54.4086,57.0639 55.5,55C 54.2625,54.7679 53.2625,54.2679 52.5,53.5 Z"/></g>
<g><path style="opacity:1" fill="#bb8174" d="M 80.5,47.5 C 80.8333,47.5 81.1667,47.5 81.5,47.5C 81.5,56.1667 81.5,64.8333 81.5,73.5C 81.1667,73.5 80.8333,73.5 80.5,73.5C 80.5,68.1667 80.5,62.8333 80.5,57.5C 80.5,56.1667 80.5,54.8333 80.5,53.5C 77.2869,53.81 74.2869,53.4767 71.5,52.5C 82.1667,51.8333 82.1667,51.1667 71.5,50.5C 74.5,49.8333 77.5,49.1667 80.5,48.5C 80.5,48.1667 80.5,47.8333 80.5,47.5 Z"/></g>
<g><path style="opacity:1" fill="#db9776" d="M 30.5,59.5 C 31.1174,59.6107 31.6174,59.944 32,60.5C 32.3386,63.8796 32.8386,67.2129 33.5,70.5C 32.1429,69.4097 31.1429,68.0764 30.5,66.5C 30.5,64.1667 30.5,61.8333 30.5,59.5 Z"/></g>
<g><path style="opacity:1" fill="#d5947b" d="M 39.5,63.5 C 39.5,66.1667 39.5,68.8333 39.5,71.5C 39.1667,72.1667 38.8333,72.8333 38.5,73.5C 36.0672,73.7271 34.4006,72.7271 33.5,70.5C 35.1172,71.038 36.7839,71.3713 38.5,71.5C 38.1936,68.6146 38.5269,65.9479 39.5,63.5 Z"/></g>
<g><path style="opacity:1" fill="#232142" d="M 45.5,69.5 C 45.6287,71.2161 45.962,72.8828 46.5,74.5C 44.9458,73.0858 43.6125,71.4192 42.5,69.5C 41.4104,70.3914 41.4104,71.3914 42.5,72.5C 41.675,73.3857 40.675,73.719 39.5,73.5C 39.1667,73.5 38.8333,73.5 38.5,73.5C 38.8333,72.8333 39.1667,72.1667 39.5,71.5C 40.3255,67.0181 40.8255,62.3514 41,57.5C 42.0113,56.6634 43.1779,56.33 44.5,56.5C 44.1818,61.0323 44.5151,65.3656 45.5,69.5 Z"/></g>
<g><path style="opacity:1" fill="#484c94" d="M 117.5,38.5 C 123.693,53.0779 124.693,68.0779 120.5,83.5C 119.833,80.8333 119.167,78.1667 118.5,75.5C 117.833,75.5 117.5,75.1667 117.5,74.5C 109.684,73.5076 101.684,73.1743 93.5,73.5C 101.323,72.6708 109.323,72.1708 117.5,72C 118.333,71.1667 119.167,70.3333 120,69.5C 120.667,63.1667 120.667,56.8333 120,50.5C 118.869,51.6039 118.035,51.2705 117.5,49.5C 118.079,45.904 118.079,42.2373 117.5,38.5 Z"/></g>
<g><path style="opacity:1" fill="#e49368" d="M 45.5,55.5 C 45.8333,55.5 46.1667,55.5 46.5,55.5C 46.3343,59.8461 46.501,64.1794 47,68.5C 48.622,70.906 50.7886,72.7394 53.5,74C 51.8446,75.4443 51.178,77.2776 51.5,79.5C 52.5,79.5 53.5,79.5 54.5,79.5C 53.9976,81.0847 52.9976,81.5847 51.5,81C 49.9697,78.648 48.3031,76.4813 46.5,74.5C 45.962,72.8828 45.6287,71.2161 45.5,69.5C 45.5,64.8333 45.5,60.1667 45.5,55.5 Z"/></g>
<g><path style="opacity:1" fill="#40416d" d="M 93.5,73.5 C 101.684,73.1743 109.684,73.5076 117.5,74.5C 106.752,74.1909 96.085,74.5242 85.5,75.5C 87.6353,73.631 90.3019,72.9644 93.5,73.5 Z"/></g>
<g><path style="opacity:1" fill="#c18770" d="M 71.5,74.5 C 66.035,73.7727 61.035,74.7727 56.5,77.5C 56.5,76.5 56.5,75.5 56.5,74.5C 61.6446,73.3093 66.6446,73.3093 71.5,74.5 Z"/></g>
<g><path style="opacity:1" fill="#2f223b" d="M 46.5,74.5 C 48.3031,76.4813 49.9697,78.648 51.5,81C 52.9976,81.5847 53.9976,81.0847 54.5,79.5C 55.5,79.1667 56.1667,78.5 56.5,77.5C 61.035,74.7727 66.035,73.7727 71.5,74.5C 74.2061,74.6878 76.5395,75.6878 78.5,77.5C 78.5,78.1667 78.5,78.8333 78.5,79.5C 77.0779,79.2504 76.0779,78.417 75.5,77C 70.8452,76.5008 66.1785,76.3342 61.5,76.5C 58.5316,78.3006 55.6983,80.3006 53,82.5C 50.5,82 48,81.5 45.5,81C 46.4231,78.9592 46.7564,76.7925 46.5,74.5 Z"/></g>
<g><path style="opacity:1" fill="#746387" d="M 80.5,73.5 C 80.7947,75.7354 80.4614,77.7354 79.5,79.5C 79.1667,79.5 78.8333,79.5 78.5,79.5C 78.5,78.8333 78.5,78.1667 78.5,77.5C 79.1667,76.1667 79.8333,74.8333 80.5,73.5 Z"/></g>
<g><path style="opacity:1" fill="#20244f" d="M 46.5,74.5 C 46.7564,76.7925 46.4231,78.9592 45.5,81C 48,81.5 50.5,82 53,82.5C 55.6983,80.3006 58.5316,78.3006 61.5,76.5C 62.5676,77.4345 63.901,77.7678 65.5,77.5C 65.5,78.5 65.5,79.5 65.5,80.5C 67.099,80.2322 68.4324,80.5655 69.5,81.5C 73.1351,81.6556 73.4685,82.8223 70.5,85C 71.7059,86.0177 71.3726,86.5177 69.5,86.5C 67.5896,85.4519 65.7562,85.4519 64,86.5C 59.7783,83.8255 55.2783,83.1589 50.5,84.5C 51.0253,85.1924 51.6919,85.6924 52.5,86C 51.565,88.3806 51.2317,90.8806 51.5,93.5C 54.8957,93.6329 55.2291,94.6329 52.5,96.5C 55.4465,97.3214 58.4465,97.8214 61.5,98C 62.1984,98.9707 62.1984,100.137 61.5,101.5C 61.9186,102.672 62.5853,103.672 63.5,104.5C 65.8432,105.275 68.1766,105.942 70.5,106.5C 71.7181,108.332 71.0514,109.332 68.5,109.5C 68.5,108.5 68.5,107.5 68.5,106.5C 66.5,106.5 64.5,106.5 62.5,106.5C 55.5586,104.205 49.8919,100.205 45.5,94.5C 44.5294,92.5168 43.5294,90.5168 42.5,88.5C 40.9664,83.6378 39.9664,78.6378 39.5,73.5C 40.675,73.719 41.675,73.3857 42.5,72.5C 41.4104,71.3914 41.4104,70.3914 42.5,69.5C 43.6125,71.4192 44.9458,73.0858 46.5,74.5 Z"/></g>
<g><path style="opacity:1" fill="#9f6a6e" d="M 69.5,81.5 C 69.6107,82.1174 69.944,82.6174 70.5,83C 67.8333,83.6667 65.1667,83.6667 62.5,83C 64.5938,81.6485 66.9272,81.1485 69.5,81.5 Z"/></g>
<g><path style="opacity:1" fill="#716b75" d="M 118.5,75.5 C 119.167,78.1667 119.833,80.8333 120.5,83.5C 120.167,84.8333 119.833,86.1667 119.5,87.5C 119.167,87.5 118.833,87.5 118.5,87.5C 118.5,86.8333 118.5,86.1667 118.5,85.5C 118.5,82.1667 118.5,78.8333 118.5,75.5 Z"/></g>
<g><path style="opacity:1" fill="#1a2455" d="M 61.5,76.5 C 66.1785,76.3342 70.8452,76.5008 75.5,77C 76.0779,78.417 77.0779,79.2504 78.5,79.5C 78.8333,79.5 79.1667,79.5 79.5,79.5C 79.6888,85.2816 79.0221,90.9483 77.5,96.5C 76.1503,100.537 73.817,103.87 70.5,106.5C 68.1766,105.942 65.8432,105.275 63.5,104.5C 62.5853,103.672 61.9186,102.672 61.5,101.5C 62.1984,100.137 62.1984,98.9707 61.5,98C 58.4465,97.8214 55.4465,97.3214 52.5,96.5C 55.2291,94.6329 54.8957,93.6329 51.5,93.5C 51.2317,90.8806 51.565,88.3806 52.5,86C 51.6919,85.6924 51.0253,85.1924 50.5,84.5C 55.2783,83.1589 59.7783,83.8255 64,86.5C 65.7562,85.4519 67.5896,85.4519 69.5,86.5C 71.3726,86.5177 71.7059,86.0177 70.5,85C 73.4685,82.8223 73.1351,81.6556 69.5,81.5C 68.4324,80.5655 67.099,80.2322 65.5,80.5C 65.5,79.5 65.5,78.5 65.5,77.5C 63.901,77.7678 62.5676,77.4345 61.5,76.5 Z"/></g>
<g><path style="opacity:1" fill="#ede0be" d="M 117.5,74.5 C 117.5,75.1667 117.833,75.5 118.5,75.5C 118.5,78.8333 118.5,82.1667 118.5,85.5C 118.167,85.5 117.833,85.5 117.5,85.5C 117.806,82.6146 117.473,79.9479 116.5,77.5C 106.681,76.506 96.6806,76.1726 86.5,76.5C 86.5,90.5 86.5,104.5 86.5,118.5C 96.8339,119.639 107.167,119.639 117.5,118.5C 118.476,108.219 118.809,97.8857 118.5,87.5C 118.833,87.5 119.167,87.5 119.5,87.5C 119.667,98.1719 119.5,108.839 119,119.5C 111.834,120.183 104.668,120.85 97.5,121.5C 93.7685,120.804 89.9352,120.138 86,119.5C 85.5001,104.837 85.3334,90.1705 85.5,75.5C 96.085,74.5242 106.752,74.1909 117.5,74.5 Z"/></g>
<g><path style="opacity:1" fill="#d49477" d="M 42.5,88.5 C 43.5294,90.5168 44.5294,92.5168 45.5,94.5C 44.2106,92.752 42.7106,92.4186 41,93.5C 40.5017,96.8168 40.335,100.15 40.5,103.5C 38.7773,101.22 38.1107,98.5533 38.5,95.5C 39.1036,92.7823 40.437,90.449 42.5,88.5 Z"/></g>
<g><path style="opacity:1" fill="#f1be6b" d="M 116.5,77.5 C 117.473,79.9479 117.806,82.6146 117.5,85.5C 117.5,95.8333 117.5,106.167 117.5,116.5C 116.167,116.5 114.833,116.5 113.5,116.5C 113.232,114.901 113.566,113.568 114.5,112.5C 115.643,108.931 115.81,104.597 115,99.5C 112.684,101.47 110.851,103.804 109.5,106.5C 110.952,107.94 111.952,109.606 112.5,111.5C 111.185,110.524 109.852,109.524 108.5,108.5C 106.8,111.206 104.633,113.539 102,115.5C 98.8697,112.214 96.3697,108.547 94.5,104.5C 96.7402,103.432 98.5736,101.766 100,99.5C 100.743,94.7868 98.9098,91.9535 94.5,91C 91.2904,93.2173 90.2904,96.0507 91.5,99.5C 91.631,100.239 91.4643,100.906 91,101.5C 90.5814,100.328 89.9147,99.3279 89,98.5C 88.5017,101.817 88.335,105.15 88.5,108.5C 88.5,109.167 88.5,109.833 88.5,110.5C 89.5025,112.011 90.1692,113.678 90.5,115.5C 89.5,115.5 88.5,115.5 87.5,115.5C 87.5,102.833 87.5,90.1667 87.5,77.5C 97.1667,77.5 106.833,77.5 116.5,77.5 Z"/></g>
<g><path style="opacity:1" fill="#fee393" d="M 114.5,82.5 C 115.645,86.3112 115.812,90.3112 115,94.5C 113.5,92.3333 112,90.1667 110.5,88C 111.965,86.2258 113.298,84.3925 114.5,82.5 Z"/></g>
<g><path style="opacity:1" fill="#fde397" d="M 101.5,81.5 C 104.354,82.9729 106.688,85.1395 108.5,88C 106.69,90.6443 104.69,93.1443 102.5,95.5C 100.34,93.1687 98.3404,90.6687 96.5,88C 97.9993,85.6721 99.666,83.5054 101.5,81.5 Z"/></g>
<g><path style="opacity:1" fill="#fee191" d="M 88.5,80.5 C 94.9205,84.8778 95.0871,89.5444 89,94.5C 88.5008,89.8452 88.3342,85.1785 88.5,80.5 Z"/></g>
<g><path style="opacity:1" fill="#fee294" d="M 104.5,80.5 C 107.64,79.3592 110.973,79.1925 114.5,80C 111.219,86.9549 107.885,87.1215 104.5,80.5 Z"/></g>
<g><path style="opacity:1" fill="#fee395" d="M 91.5,79.5 C 101.123,77.8903 102.456,79.8903 95.5,85.5C 93.1671,84.1678 91.8337,82.1678 91.5,79.5 Z"/></g>
<g><path style="opacity:1" fill="#ef915b" d="M 45.5,94.5 C 49.8919,100.205 55.5586,104.205 62.5,106.5C 63.209,107.404 64.209,107.737 65.5,107.5C 65.5,108.5 65.5,109.5 65.5,110.5C 62.4775,110.105 61.4775,111.105 62.5,113.5C 61.675,114.386 60.675,114.719 59.5,114.5C 59.5,115.5 59.5,116.5 59.5,117.5C 57.5,117.5 55.5,117.5 53.5,117.5C 51.3536,115.259 49.8536,112.592 49,109.5C 48.4387,110.022 47.772,110.355 47,110.5C 45.5054,108.837 43.672,107.837 41.5,107.5C 41.1667,106.167 40.8333,104.833 40.5,103.5C 40.335,100.15 40.5017,96.8168 41,93.5C 42.7106,92.4186 44.2106,92.752 45.5,94.5 Z"/></g>
<g><path style="opacity:1" fill="#7f6261" d="M 62.5,106.5 C 64.5,106.5 66.5,106.5 68.5,106.5C 68.5,107.5 68.5,108.5 68.5,109.5C 68.1667,109.5 67.8333,109.5 67.5,109.5C 67.5,108.167 66.8333,107.5 65.5,107.5C 64.209,107.737 63.209,107.404 62.5,106.5 Z"/></g>
<g><path style="opacity:1" fill="#2a3367" d="M 38.5,95.5 C 38.1107,98.5533 38.7773,101.22 40.5,103.5C 40.8333,104.833 41.1667,106.167 41.5,107.5C 42.1667,108.5 42.8333,109.5 43.5,110.5C 44.0303,113.031 45.3637,115.031 47.5,116.5C 46.624,117.251 45.624,117.751 44.5,118C 47.2713,117.653 49.9379,117.82 52.5,118.5C 52.4326,119.959 52.7659,121.292 53.5,122.5C 53.631,123.239 53.4643,123.906 53,124.5C 50.1257,122.109 48.6257,122.442 48.5,125.5C 42.5275,127.344 37.1941,126.178 32.5,122C 34.8387,119.45 34.172,118.95 30.5,120.5C 28.7567,118.962 26.7567,117.962 24.5,117.5C 20.7881,114.789 17.7881,111.456 15.5,107.5C 19.7264,105.292 23.7264,102.625 27.5,99.5C 30.8645,97.4063 34.5312,96.073 38.5,95.5 Z"/></g>
<g><path style="opacity:1" fill="#df906c" d="M 41.5,107.5 C 43.672,107.837 45.5054,108.837 47,110.5C 47.772,110.355 48.4387,110.022 49,109.5C 49.8536,112.592 51.3536,115.259 53.5,117.5C 49.6319,115.971 46.2985,113.637 43.5,110.5C 42.8333,109.5 42.1667,108.5 41.5,107.5 Z"/></g>
<g><path style="opacity:1" fill="#d89271" d="M 65.5,107.5 C 66.8333,107.5 67.5,108.167 67.5,109.5C 67.1667,110.167 66.8333,110.833 66.5,111.5C 64.4,114.104 62.0666,116.604 59.5,119C 57.1195,119.738 55.1195,119.238 53.5,117.5C 55.5,117.5 57.5,117.5 59.5,117.5C 59.5,116.5 59.5,115.5 59.5,114.5C 60.675,114.719 61.675,114.386 62.5,113.5C 61.4775,111.105 62.4775,110.105 65.5,110.5C 65.5,109.5 65.5,108.5 65.5,107.5 Z"/></g>
<g><path style="opacity:1" fill="#fde299" d="M 116.5,77.5 C 106.833,77.5 97.1667,77.5 87.5,77.5C 87.5,90.1667 87.5,102.833 87.5,115.5C 95.9839,116.493 104.651,116.826 113.5,116.5C 114.833,116.5 116.167,116.5 117.5,116.5C 117.5,106.167 117.5,95.8333 117.5,85.5C 117.833,85.5 118.167,85.5 118.5,85.5C 118.5,86.1667 118.5,86.8333 118.5,87.5C 118.809,97.8857 118.476,108.219 117.5,118.5C 107.167,119.639 96.8339,119.639 86.5,118.5C 86.5,104.5 86.5,90.5 86.5,76.5C 96.6806,76.1726 106.681,76.506 116.5,77.5 Z"/></g>
<g><path style="opacity:1" fill="#fee399" d="M 88.5,110.5 C 88.5,109.833 88.5,109.167 88.5,108.5C 89.1646,106.631 89.8313,104.631 90.5,102.5C 94.3863,105.364 94.3863,108.364 90.5,111.5C 89.8165,111.137 89.1499,110.804 88.5,110.5 Z"/></g>
<g><path style="opacity:1" fill="#fde498" d="M 101.5,99.5 C 104.144,101.153 106.144,103.487 107.5,106.5C 105.833,108.5 104.167,110.5 102.5,112.5C 100.367,110.909 98.7007,108.909 97.5,106.5C 98.5761,104.014 99.9094,101.681 101.5,99.5 Z"/></g>
<g><path style="opacity:1" fill="#fee493" d="M 114.5,112.5 C 114.158,111.662 113.492,111.328 112.5,111.5C 111.952,109.606 110.952,107.94 109.5,106.5C 110.851,103.804 112.684,101.47 115,99.5C 115.81,104.597 115.643,108.931 114.5,112.5 Z"/></g>
<g><path style="opacity:1" fill="#f7d281" d="M 91.5,99.5 C 93.2503,100.659 94.2503,102.326 94.5,104.5C 96.3697,108.547 98.8697,112.214 102,115.5C 104.633,113.539 106.8,111.206 108.5,108.5C 109.852,109.524 111.185,110.524 112.5,111.5C 113.492,111.328 114.158,111.662 114.5,112.5C 113.566,113.568 113.232,114.901 113.5,116.5C 104.651,116.826 95.9839,116.493 87.5,115.5C 88.5,115.5 89.5,115.5 90.5,115.5C 90.1692,113.678 89.5025,112.011 88.5,110.5C 89.1499,110.804 89.8165,111.137 90.5,111.5C 94.3863,108.364 94.3863,105.364 90.5,102.5C 89.8313,104.631 89.1646,106.631 88.5,108.5C 88.335,105.15 88.5017,101.817 89,98.5C 89.9147,99.3279 90.5814,100.328 91,101.5C 91.4643,100.906 91.631,100.239 91.5,99.5 Z"/></g>
<g><path style="opacity:1" fill="#fee397" d="M 108.5,90.5 C 110.916,91.9164 112.916,93.9164 114.5,96.5C 113.219,99.4474 111.219,101.781 108.5,103.5C 106.844,101.54 105.177,99.5398 103.5,97.5C 104.931,94.9613 106.597,92.6279 108.5,90.5 Z"/></g>
<g><path style="opacity:1" fill="#fee398" d="M 94.5,104.5 C 94.2503,102.326 93.2503,100.659 91.5,99.5C 90.2904,96.0507 91.2904,93.2173 94.5,91C 98.9098,91.9535 100.743,94.7868 100,99.5C 98.5736,101.766 96.7402,103.432 94.5,104.5 Z"/></g>
<g><path style="opacity:1" fill="#353155" d="M 43.5,110.5 C 46.2985,113.637 49.6319,115.971 53.5,117.5C 55.1195,119.238 57.1195,119.738 59.5,119C 62.0666,116.604 64.4,114.104 66.5,111.5C 64.3243,117.673 59.9909,121.34 53.5,122.5C 52.7659,121.292 52.4326,119.959 52.5,118.5C 49.9379,117.82 47.2713,117.653 44.5,118C 45.624,117.751 46.624,117.251 47.5,116.5C 45.3637,115.031 44.0303,113.031 43.5,110.5 Z"/></g>
<g><path style="opacity:1" fill="#2f3767" d="M 85.5,75.5 C 85.3334,90.1705 85.5001,104.837 86,119.5C 89.9352,120.138 93.7685,120.804 97.5,121.5C 74.1009,137.663 50.7675,137.497 27.5,121C 26.2899,119.961 25.2899,118.794 24.5,117.5C 26.7567,117.962 28.7567,118.962 30.5,120.5C 34.172,118.95 34.8387,119.45 32.5,122C 37.1941,126.178 42.5275,127.344 48.5,125.5C 48.6257,122.442 50.1257,122.109 53,124.5C 53.4643,123.906 53.631,123.239 53.5,122.5C 59.9909,121.34 64.3243,117.673 66.5,111.5C 66.8333,110.833 67.1667,110.167 67.5,109.5C 67.8333,109.5 68.1667,109.5 68.5,109.5C 71.0514,109.332 71.7181,108.332 70.5,106.5C 73.817,103.87 76.1503,100.537 77.5,96.5C 78.9786,99.3049 81.3119,100.972 84.5,101.5C 84.1736,92.6506 84.507,83.9839 85.5,75.5 Z"/></g>
</svg>
