<?xml version="1.0" encoding="UTF-8"?>
<svg xmlns="http://www.w3.org/2000/svg" xmlns:xlink="http://www.w3.org/1999/xlink" width="125px" height="138px" viewBox="0 0 125 137" version="1.1">
<g id="surface1">
<path style=" stroke:none;fill-rule:nonzero;fill:rgb(19.607843%,25.882354%,58.823532%);fill-opacity:1;" d="M 95.378906 9.570312 C 110.726562 20.15625 119.96875 36.964844 123.789062 54.886719 C 127.035156 75.25 122.851562 95.3125 111.046875 112.363281 C 101.328125 124.78125 88.960938 133.4375 73.414062 137 C 55.183594 138.71875 40.152344 135.339844 25.328125 124.339844 C 12.222656 113.460938 3.089844 96.699219 0.992188 79.835938 C -0.386719 56.652344 3.125 36.511719 19.117188 18.488281 C 40.097656 -2.5625 70.152344 -6.25 95.378906 9.570312 Z M 95.378906 9.570312 "/>
<path style=" stroke:none;fill-rule:nonzero;fill:rgb(98.823529%,70.19608%,56.078434%);fill-opacity:1;" d="M 46.628906 34.496094 C 48.074219 34.96875 49.519531 35.441406 50.96875 35.914062 C 51.773438 36.175781 52.578125 36.4375 53.410156 36.710938 C 55.554688 37.453125 55.554688 37.453125 57.539062 38.4375 C 58.902344 38.585938 60.269531 38.683594 61.640625 38.75 C 62.4375 38.792969 63.238281 38.832031 64.0625 38.875 C 64.898438 38.914062 65.730469 38.953125 66.59375 38.992188 C 67.433594 39.035156 68.277344 39.078125 69.144531 39.121094 C 71.230469 39.226562 73.3125 39.328125 75.398438 39.425781 C 78.09375 45.105469 77.714844 50.640625 77.695312 56.816406 C 77.691406 58.804688 77.714844 60.792969 77.738281 62.785156 C 77.742188 71.960938 77.652344 81.347656 70.808594 88.273438 C 70.203125 88.90625 69.597656 89.535156 68.972656 90.1875 C 68.472656 90.675781 67.972656 91.160156 67.460938 91.660156 C 65.507812 93.601562 65.8125 96.933594 65.476562 99.546875 C 66.132812 99.546875 66.785156 99.546875 67.460938 99.546875 C 67.769531 102.195312 67.769531 102.195312 67.460938 105.460938 C 64.519531 108.9375 61.59375 112.097656 56.90625 112.691406 C 47.675781 112.808594 41.511719 110.835938 34.722656 104.476562 C 32.621094 101.523438 31.746094 100.230469 31.746094 96.589844 C 32.726562 95.9375 33.710938 95.289062 34.722656 94.617188 C 35.226562 92.238281 35.226562 92.238281 35.230469 89.46875 C 35.265625 88.449219 35.300781 87.433594 35.335938 86.386719 C 35.371094 84.789062 35.371094 84.789062 35.402344 83.160156 C 35.4375 82.089844 35.472656 81.015625 35.507812 79.910156 C 35.589844 77.257812 35.65625 74.605469 35.714844 71.949219 C 34.941406 71.835938 34.167969 71.722656 33.375 71.605469 C 29.8125 70.734375 28.8125 68.984375 26.785156 66.035156 C 25.265625 63.015625 25.566406 60.5 25.792969 57.164062 C 27.28125 54.269531 27.28125 54.269531 28.769531 52.238281 C 32.117188 52.484375 32.117188 52.484375 35.714844 53.222656 C 37.140625 55.253906 37.140625 55.253906 37.699219 57.164062 C 38.351562 57.164062 39.007812 57.164062 39.683594 57.164062 C 39.863281 56.378906 40.042969 55.59375 40.230469 54.785156 C 41.546875 49.273438 42.925781 44.441406 45.636719 39.425781 C 46.328125 36.726562 46.328125 36.726562 46.628906 34.496094 Z M 46.628906 34.496094 "/>
<path style=" stroke:none;fill-rule:nonzero;fill:rgb(10.980392%,14.901961%,34.117648%);fill-opacity:1;" d="M 30.753906 96.589844 C 32.738281 99.546875 32.738281 99.546875 33.792969 101.824219 C 37.132812 106.425781 42.226562 109.589844 47.617188 111.375 C 49.558594 111.492188 51.503906 111.546875 53.449219 111.558594 C 54.46875 111.574219 55.488281 111.585938 56.539062 111.601562 C 59.609375 111.367188 61.742188 110.773438 64.484375 109.402344 C 65.75 107.628906 65.75 107.628906 66.46875 105.460938 C 67.128906 103.816406 67.789062 102.175781 68.453125 100.53125 C 75.640625 101.546875 81.871094 103.042969 88.292969 106.445312 C 89.097656 106.839844 89.898438 107.230469 90.726562 107.636719 C 94.449219 109.707031 96.710938 111.1875 98.441406 115.152344 C 99.179688 117.832031 99.769531 120.457031 100.199219 123.203125 C 89.191406 133.882812 75.53125 137.417969 60.574219 137.359375 C 44.179688 137.039062 30.21875 129.902344 18.847656 118.273438 C 12.957031 111.953125 12.957031 111.953125 12.785156 107.429688 C 13.890625 104.476562 13.890625 104.476562 17.171875 102.421875 C 18.527344 101.832031 19.894531 101.261719 21.265625 100.71875 C 21.957031 100.421875 22.644531 100.128906 23.355469 99.824219 C 25.152344 99.058594 26.960938 98.316406 28.769531 97.574219 C 29.425781 97.25 30.078125 96.925781 30.753906 96.589844 Z M 30.753906 96.589844 "/>
<path style=" stroke:none;fill-rule:nonzero;fill:rgb(10.588235%,12.941177%,25.490198%);fill-opacity:1;" d="M 68.707031 18.75 C 75.042969 21.921875 79.855469 26.335938 83.332031 32.523438 C 83.332031 33.5 83.332031 34.476562 83.332031 35.480469 C 82.351562 35.96875 82.351562 35.96875 81.347656 36.46875 C 80.957031 39.304688 80.957031 39.304688 80.851562 42.628906 C 80.65625 46.941406 80.21875 50.277344 78.371094 54.207031 C 78.046875 54.207031 77.71875 54.207031 77.382812 54.207031 C 76.398438 46.890625 76.398438 46.890625 75.398438 39.425781 C 74.234375 39.480469 73.070312 39.539062 71.875 39.597656 C 62.339844 39.921875 55.007812 39.632812 46.628906 34.496094 C 46.546875 35.410156 46.464844 36.324219 46.378906 37.269531 C 45.398438 44.195312 42.292969 50.71875 39.683594 57.164062 C 39.027344 57.164062 38.371094 57.164062 37.699219 57.164062 C 37.144531 56.515625 36.59375 55.863281 36.023438 55.195312 C 32.910156 52.519531 30.789062 53.074219 26.785156 53.222656 C 26.703125 50.246094 26.644531 47.269531 26.601562 44.289062 C 26.574219 43.457031 26.550781 42.621094 26.523438 41.757812 C 26.445312 34.867188 27.433594 30.144531 32.242188 24.886719 C 33.058594 24.15625 33.878906 23.421875 34.722656 22.667969 C 35.160156 22.148438 35.597656 21.628906 36.050781 21.089844 C 38.265625 19.238281 39.859375 19.253906 42.722656 19.097656 C 65.371094 17.707031 65.371094 17.707031 68.707031 18.75 Z M 68.707031 18.75 "/>
<path style=" stroke:none;fill-rule:nonzero;fill:rgb(99.215686%,70.19608%,55.686277%);fill-opacity:1;" d="M 31.746094 70.964844 C 33.398438 70.921875 35.054688 70.925781 36.707031 70.964844 C 38.398438 72.648438 38.109375 75.070312 38.378906 77.371094 C 39.578125 84.839844 42.648438 89.757812 48.054688 94.988281 C 54.773438 99.222656 59.59375 99.972656 67.460938 99.546875 C 67.769531 102.195312 67.769531 102.195312 67.460938 105.460938 C 64.519531 108.9375 61.59375 112.097656 56.90625 112.691406 C 47.675781 112.808594 41.511719 110.835938 34.722656 104.476562 C 32.621094 101.523438 31.746094 100.230469 31.746094 96.589844 C 32.726562 95.9375 33.710938 95.289062 34.722656 94.617188 C 35.226562 92.238281 35.226562 92.238281 35.230469 89.46875 C 35.265625 88.449219 35.300781 87.433594 35.335938 86.386719 C 35.359375 85.324219 35.382812 84.257812 35.402344 83.160156 C 35.4375 82.089844 35.472656 81.015625 35.507812 79.910156 C 35.589844 77.257812 35.65625 74.605469 35.714844 71.949219 C 34.40625 71.625 33.09375 71.300781 31.746094 70.964844 Z M 31.746094 70.964844 "/>
<path style=" stroke:none;fill-rule:nonzero;fill:rgb(95.686275%,69.803923%,57.254905%);fill-opacity:1;" d="M 46.628906 34.496094 C 48.074219 34.96875 49.519531 35.441406 50.96875 35.914062 C 51.773438 36.175781 52.578125 36.4375 53.410156 36.710938 C 55.554688 37.453125 55.554688 37.453125 57.539062 38.4375 C 58.902344 38.585938 60.269531 38.683594 61.640625 38.75 C 62.4375 38.792969 63.238281 38.832031 64.0625 38.875 C 64.898438 38.914062 65.730469 38.953125 66.59375 38.992188 C 67.433594 39.035156 68.277344 39.078125 69.144531 39.121094 C 71.230469 39.226562 73.3125 39.328125 75.398438 39.425781 C 77.613281 44.308594 77.539062 47.925781 77.382812 53.222656 C 74.105469 52.898438 70.832031 52.574219 67.460938 52.238281 C 67.789062 50.9375 68.113281 49.636719 68.453125 48.296875 C 70.742188 48.296875 73.035156 48.296875 75.398438 48.296875 C 74.90625 44.878906 74.90625 44.878906 74.40625 41.394531 C 70.804688 41.722656 67.203125 42.046875 63.492188 42.382812 C 63.832031 45.308594 63.832031 45.308594 64.484375 48.296875 C 65.140625 48.621094 65.792969 48.945312 66.46875 49.28125 C 66.46875 50.257812 66.46875 51.230469 66.46875 52.238281 C 64.503906 52.5625 62.539062 52.886719 60.515625 53.222656 C 59.535156 51.597656 58.550781 49.96875 57.539062 48.296875 C 57.582031 49.496094 57.621094 50.695312 57.664062 51.929688 C 57.65625 55.402344 57.335938 58.035156 55.554688 61.109375 C 52.578125 62.09375 52.578125 62.09375 49.601562 61.109375 C 49.601562 59.480469 49.601562 57.855469 49.601562 56.179688 C 48.621094 55.855469 47.640625 55.53125 46.628906 55.195312 C 45.972656 54.542969 45.316406 53.894531 44.644531 53.222656 C 43.988281 53.222656 43.332031 53.222656 42.660156 53.222656 C 42.003906 54.523438 41.347656 55.824219 40.675781 57.164062 C 39.683594 55.195312 39.683594 55.195312 40.347656 52.726562 C 40.703125 51.730469 41.054688 50.738281 41.417969 49.710938 C 41.785156 48.660156 42.15625 47.605469 42.535156 46.519531 C 42.902344 45.480469 43.269531 44.4375 43.652344 43.367188 C 44.234375 41.644531 44.8125 39.917969 45.386719 38.191406 C 45.796875 36.972656 46.207031 35.753906 46.628906 34.496094 Z M 46.628906 34.496094 "/>
<path style=" stroke:none;fill-rule:nonzero;fill:rgb(97.254902%,70.588237%,57.254905%);fill-opacity:1;" d="M 62.5 41.394531 C 66.429688 41.394531 70.355469 41.394531 74.40625 41.394531 C 74.730469 43.671875 75.058594 45.949219 75.398438 48.296875 C 73.105469 48.621094 70.8125 48.945312 68.453125 49.28125 C 68.125 50.257812 67.796875 51.230469 67.460938 52.238281 C 68.730469 52.21875 69.996094 52.195312 71.304688 52.175781 C 75.148438 52.113281 75.148438 52.113281 77.382812 53.222656 C 77.46875 56.46875 77.519531 59.710938 77.566406 62.957031 C 77.59375 63.859375 77.617188 64.765625 77.640625 65.695312 C 77.730469 73.835938 76.820312 82.128906 70.933594 88.273438 C 70.347656 88.90625 69.765625 89.535156 69.164062 90.1875 C 67.460938 91.660156 67.460938 91.660156 64.484375 92.648438 C 64.8125 91.347656 65.140625 90.046875 65.476562 88.703125 C 66.132812 88.703125 66.785156 88.703125 67.460938 88.703125 C 67.460938 87.402344 67.460938 86.101562 67.460938 84.761719 C 66.804688 84.4375 66.152344 84.113281 65.476562 83.777344 C 66.132812 83.777344 66.785156 83.777344 67.460938 83.777344 C 68.480469 78.300781 68.480469 78.300781 67.460938 72.933594 C 68.113281 72.933594 68.769531 72.933594 69.445312 72.933594 C 69.773438 73.585938 70.097656 74.234375 70.4375 74.90625 C 70.765625 73.28125 71.089844 71.652344 71.429688 69.976562 C 70.445312 70.304688 69.464844 70.628906 68.453125 70.964844 C 68.78125 67.710938 69.105469 64.460938 69.445312 61.109375 C 70.425781 60.78125 71.410156 60.457031 72.421875 60.121094 C 72.421875 58.820312 72.421875 57.519531 72.421875 56.179688 C 71.765625 56.179688 71.109375 56.179688 70.4375 56.179688 C 69.78125 57.480469 69.128906 58.78125 68.453125 60.121094 C 67.796875 59.148438 67.144531 58.171875 66.46875 57.164062 C 63.90625 56.917969 63.90625 56.917969 61.507812 57.164062 C 60.851562 55.539062 60.199219 53.914062 59.523438 52.238281 C 61.816406 52.238281 64.105469 52.238281 66.46875 52.238281 C 66.46875 51.261719 66.46875 50.285156 66.46875 49.28125 C 65.484375 48.957031 64.503906 48.628906 63.492188 48.296875 C 63.820312 46.992188 64.148438 45.691406 64.484375 44.351562 C 63.503906 44.027344 62.519531 43.703125 61.507812 43.367188 C 61.835938 42.714844 62.164062 42.066406 62.5 41.394531 Z M 62.5 41.394531 "/>
<path style=" stroke:none;fill-rule:nonzero;fill:rgb(18.82353%,26.666668%,60.784316%);fill-opacity:1;" d="M 111.109375 26.613281 C 112.617188 27.800781 112.617188 27.800781 114.085938 29.566406 C 114.160156 31.796875 114.160156 31.796875 113.777344 34.1875 C 113.660156 34.984375 113.539062 35.78125 113.417969 36.601562 C 113.3125 37.207031 113.203125 37.8125 113.09375 38.4375 C 110.148438 37.949219 110.148438 37.949219 107.144531 37.453125 C 106.988281 38.335938 106.988281 38.335938 106.832031 39.238281 C 106.0625 41.675781 105.089844 42.699219 103.175781 44.351562 C 102.191406 44.027344 101.210938 43.703125 100.199219 43.367188 C 97.582031 43.753906 97.582031 43.753906 95.238281 44.351562 C 96.640625 39.59375 98.640625 35.761719 101.191406 31.539062 C 98.570312 31.539062 95.953125 31.539062 93.253906 31.539062 C 93.253906 30.5625 93.253906 29.589844 93.253906 28.582031 C 97.183594 28.582031 101.109375 28.582031 105.160156 28.582031 C 104.832031 30.859375 104.503906 33.136719 104.167969 35.480469 C 104.820312 35.15625 105.476562 34.832031 106.152344 34.496094 C 106.273438 33.90625 106.394531 33.316406 106.523438 32.710938 C 107.34375 29.863281 108.933594 28.566406 111.109375 26.613281 Z M 111.109375 26.613281 "/>
<path style=" stroke:none;fill-rule:nonzero;fill:rgb(24.313726%,43.921569%,89.019608%);fill-opacity:1;" d="M 101.75 86.855469 C 104.40625 87.804688 105.421875 88.484375 107.144531 90.675781 C 107.539062 93.015625 107.539062 93.015625 107.515625 95.605469 C 107.523438 96.457031 107.53125 97.3125 107.539062 98.191406 C 107.070312 100.96875 106.4375 101.847656 104.167969 103.488281 C 99.105469 104.117188 99.105469 104.117188 96.566406 102.328125 C 94.746094 99.867188 94.808594 98.136719 94.804688 95.113281 C 94.785156 94.167969 94.765625 93.222656 94.746094 92.246094 C 95.238281 89.691406 95.238281 89.691406 97.089844 87.867188 C 99.207031 86.734375 99.207031 86.734375 101.75 86.855469 Z M 101.75 86.855469 "/>
<path style=" stroke:none;fill-rule:nonzero;fill:rgb(98.039216%,70.588237%,56.078434%);fill-opacity:1;" d="M 28.769531 52.238281 C 32.117188 52.484375 32.117188 52.484375 35.714844 53.222656 C 37.015625 55.195312 37.015625 55.195312 37.699219 57.164062 C 38.351562 57.492188 39.007812 57.816406 39.683594 58.152344 C 38.9375 62.832031 38.9375 62.832031 36.707031 65.050781 C 34.101562 64.679688 34.101562 64.679688 31.746094 64.066406 C 31.089844 65.691406 30.4375 67.316406 29.761719 68.992188 C 26.851562 66.226562 25.859375 64.921875 25.546875 60.800781 C 25.804688 57 26.550781 55.269531 28.769531 52.238281 Z M 28.769531 52.238281 "/>
<path style=" stroke:none;fill-rule:nonzero;fill:rgb(85.882354%,52.549022%,36.862746%);fill-opacity:1;" d="M 38.691406 80.820312 C 40.054688 82.089844 41.375 83.410156 42.660156 84.761719 C 42.660156 85.414062 42.660156 86.0625 42.660156 86.734375 C 43.210938 87 43.761719 87.261719 44.332031 87.535156 C 46.824219 88.804688 49.195312 90.222656 51.585938 91.660156 C 54.269531 92.992188 56.664062 92.980469 59.648438 93.203125 C 61.277344 93.324219 61.277344 93.324219 62.941406 93.453125 C 63.777344 93.511719 64.613281 93.570312 65.476562 93.632812 C 65.519531 95.605469 65.515625 97.574219 65.476562 99.546875 C 64.484375 100.53125 64.484375 100.53125 61.570312 100.902344 C 55.433594 100.777344 49.9375 97.742188 45.511719 93.660156 C 38.691406 86.109375 38.691406 86.109375 38.691406 80.820312 Z M 38.691406 80.820312 "/>
<path style=" stroke:none;fill-rule:nonzero;fill:rgb(23.137255%,43.921569%,89.803922%);fill-opacity:1;" d="M 92.695312 56.734375 C 95.800781 57.261719 97.125 57.746094 99.207031 60.121094 C 99.855469 64.398438 99.53125 66.460938 97.347656 70.226562 C 96.652344 71.121094 95.953125 72.015625 95.238281 72.933594 C 94.582031 73.910156 93.929688 74.886719 93.253906 75.890625 C 95.871094 75.890625 98.492188 75.890625 101.191406 75.890625 C 101.191406 76.867188 101.191406 77.84375 101.191406 78.847656 C 96.933594 78.847656 92.679688 78.847656 88.292969 78.847656 C 89.453125 73.085938 89.453125 73.085938 92.261719 70.964844 C 92.917969 70.964844 93.570312 70.964844 94.246094 70.964844 C 94.578125 69.527344 94.910156 68.089844 95.238281 66.652344 C 95.421875 65.851562 95.605469 65.050781 95.796875 64.226562 C 96.296875 62.132812 96.296875 62.132812 96.230469 60.121094 C 94.59375 60.449219 92.957031 60.773438 91.269531 61.109375 C 90.941406 62.734375 90.613281 64.359375 90.277344 66.035156 C 89.296875 66.035156 88.3125 66.035156 87.300781 66.035156 C 87.058594 63.132812 87.128906 61.445312 88.480469 58.828125 C 90.277344 57.164062 90.277344 57.164062 92.695312 56.734375 Z M 92.695312 56.734375 "/>
<path style=" stroke:none;fill-rule:nonzero;fill:rgb(96.862745%,67.450982%,51.764709%);fill-opacity:1;" d="M 73.414062 56.179688 C 73.085938 57.804688 72.757812 59.433594 72.421875 61.109375 C 71.4375 61.109375 70.457031 61.109375 69.445312 61.109375 C 69.394531 61.796875 69.347656 62.484375 69.296875 63.195312 C 69.222656 64.089844 69.148438 64.988281 69.074219 65.914062 C 69.003906 66.804688 68.933594 67.695312 68.863281 68.617188 C 68.453125 70.964844 68.453125 70.964844 66.46875 72.933594 C 63.863281 73.058594 63.863281 73.058594 61.507812 72.933594 C 61.507812 72.285156 61.507812 71.632812 61.507812 70.964844 C 62.488281 70.640625 63.472656 70.3125 64.484375 69.976562 C 64.683594 66.40625 64.34375 64.199219 62.5 61.109375 C 61.519531 61.109375 60.535156 61.109375 59.523438 61.109375 C 59.851562 59.808594 60.179688 58.507812 60.515625 57.164062 C 68.84375 54.667969 68.84375 54.667969 73.414062 56.179688 Z M 73.414062 56.179688 "/>
<path style=" stroke:none;fill-rule:nonzero;fill:rgb(83.137256%,65.098041%,60.392159%);fill-opacity:1;" d="M 31.746094 70.964844 C 33.398438 70.921875 35.054688 70.925781 36.707031 70.964844 C 39.773438 74.007812 38.746094 82.710938 38.757812 86.730469 C 38.75 89.6875 38.726562 92.644531 38.691406 95.605469 C 37.707031 95.929688 36.726562 96.253906 35.714844 96.589844 C 36.042969 99.515625 36.367188 102.445312 36.707031 105.460938 C 33.476562 102.667969 32.222656 100.839844 31.746094 96.589844 C 32.726562 95.9375 33.710938 95.289062 34.722656 94.617188 C 35.226562 92.238281 35.226562 92.238281 35.230469 89.46875 C 35.265625 88.449219 35.300781 87.433594 35.335938 86.386719 C 35.359375 85.324219 35.382812 84.257812 35.402344 83.160156 C 35.4375 82.089844 35.472656 81.015625 35.507812 79.910156 C 35.589844 77.257812 35.65625 74.605469 35.714844 71.949219 C 34.40625 71.625 33.09375 71.300781 31.746094 70.964844 Z M 31.746094 70.964844 "/>
<path style=" stroke:none;fill-rule:nonzero;fill:rgb(94.901961%,70.588237%,60.000002%);fill-opacity:1;" d="M 66.46875 99.546875 C 66.796875 99.546875 67.121094 99.546875 67.460938 99.546875 C 67.769531 102.195312 67.769531 102.195312 67.460938 105.460938 C 64.519531 108.9375 61.59375 112.097656 56.90625 112.691406 C 49.976562 112.777344 45.605469 112.039062 39.683594 108.417969 C 40.011719 107.765625 40.335938 107.117188 40.675781 106.445312 C 43.351562 106.976562 45.523438 107.8125 48.054688 108.910156 C 50.972656 110.132812 53.441406 110.90625 56.546875 111.375 C 56.546875 110.722656 56.546875 110.074219 56.546875 109.402344 C 57.160156 109.160156 57.773438 108.914062 58.40625 108.664062 C 60.664062 107.605469 60.664062 107.605469 61.507812 105.398438 C 62.5 103.488281 62.5 103.488281 64.609375 102.75 C 65.222656 102.667969 65.835938 102.585938 66.46875 102.503906 C 66.46875 101.527344 66.46875 100.550781 66.46875 99.546875 Z M 66.46875 99.546875 "/>
<path style=" stroke:none;fill-rule:nonzero;fill:rgb(16.470589%,26.666668%,63.529414%);fill-opacity:1;" d="M 99.207031 89.691406 C 101.75 89.9375 101.75 89.9375 104.167969 90.675781 C 105.542969 93.40625 105.34375 95.539062 105.160156 98.5625 C 104.175781 100.023438 104.175781 100.023438 103.175781 101.519531 C 98.339844 100.65625 98.339844 100.65625 97.222656 99.546875 C 96.953125 93.894531 96.953125 93.894531 97.222656 91.660156 C 97.878906 91.011719 98.53125 90.359375 99.207031 89.691406 Z M 99.207031 89.691406 "/>
<path style=" stroke:none;fill-rule:nonzero;fill:rgb(25.490198%,45.09804%,90.588236%);fill-opacity:1;" d="M 93.253906 28.582031 C 97.183594 28.582031 101.109375 28.582031 105.160156 28.582031 C 104.238281 32.234375 103.09375 34.839844 101.316406 38.128906 C 100.804688 39.089844 100.296875 40.050781 99.773438 41.039062 C 98.214844 43.367188 98.214844 43.367188 95.238281 44.351562 C 96.640625 39.59375 98.640625 35.761719 101.191406 31.539062 C 98.570312 31.539062 95.953125 31.539062 93.253906 31.539062 C 93.253906 30.5625 93.253906 29.589844 93.253906 28.582031 Z M 93.253906 28.582031 "/>
<path style=" stroke:none;fill-rule:nonzero;fill:rgb(90.980393%,70.19608%,59.607846%);fill-opacity:1;" d="M 48.609375 49.28125 C 51.230469 49.28125 53.847656 49.28125 56.546875 49.28125 C 57.464844 53.929688 57.765625 56.84375 55.554688 61.109375 C 54.246094 61.109375 52.9375 61.109375 51.585938 61.109375 C 51.261719 59.480469 50.933594 57.855469 50.59375 56.179688 C 51.578125 55.855469 52.558594 55.53125 53.570312 55.195312 C 53.570312 54.542969 53.570312 53.894531 53.570312 53.222656 C 51.605469 53.222656 49.644531 53.222656 47.617188 53.222656 C 47.945312 51.921875 48.273438 50.621094 48.609375 49.28125 Z M 48.609375 49.28125 "/>
<path style=" stroke:none;fill-rule:nonzero;fill:rgb(73.725492%,58.039218%,52.941179%);fill-opacity:1;" d="M 61.507812 39.425781 C 66.089844 39.425781 70.675781 39.425781 75.398438 39.425781 C 77.570312 44.820312 77.550781 47.5625 77.382812 53.222656 C 74.105469 52.898438 70.832031 52.574219 67.460938 52.238281 C 67.789062 50.9375 68.113281 49.636719 68.453125 48.296875 C 70.742188 48.296875 73.035156 48.296875 75.398438 48.296875 C 75.070312 46.019531 74.742188 43.742188 74.40625 41.394531 C 70.148438 41.070312 65.894531 40.746094 61.507812 40.410156 C 61.507812 40.085938 61.507812 39.757812 61.507812 39.425781 Z M 61.507812 39.425781 "/>
<path style=" stroke:none;fill-rule:nonzero;fill:rgb(94.509804%,68.235296%,54.11765%);fill-opacity:1;" d="M 28.769531 52.238281 C 32.117188 52.484375 32.117188 52.484375 35.714844 53.222656 C 37.015625 55.195312 37.015625 55.195312 37.699219 57.164062 C 38.351562 57.492188 39.007812 57.816406 39.683594 58.152344 C 38.9375 62.832031 38.9375 62.832031 36.707031 65.050781 C 34.101562 64.679688 34.101562 64.679688 31.746094 64.066406 C 32.300781 60.769531 33.085938 58.117188 34.722656 55.195312 C 32.101562 55.519531 29.484375 55.84375 26.785156 56.179688 C 27.441406 54.878906 28.09375 53.578125 28.769531 52.238281 Z M 28.769531 52.238281 "/>
<path style=" stroke:none;fill-rule:nonzero;fill:rgb(18.039216%,15.686275%,27.450982%);fill-opacity:1;" d="M 67.460938 102.503906 C 68.78125 105.347656 68.4375 106.484375 67.335938 109.464844 C 64.34375 113.570312 59.523438 114.019531 54.78125 114.929688 C 51.046875 115.382812 48.265625 115.25 44.644531 114.332031 C 44.96875 113.355469 45.296875 112.378906 45.636719 111.375 C 47.050781 111.410156 47.050781 111.410156 48.5 111.445312 C 49.742188 111.460938 50.988281 111.480469 52.269531 111.496094 C 53.5 111.519531 54.730469 111.542969 56 111.566406 C 59.363281 111.382812 61.523438 110.945312 64.484375 109.402344 C 65.949219 107.148438 66.601562 105.0625 67.460938 102.503906 Z M 67.460938 102.503906 "/>
<path style=" stroke:none;fill-rule:nonzero;fill:rgb(16.078432%,25.882354%,63.137257%);fill-opacity:1;" d="M 93.8125 60.0625 C 95.007812 60.089844 95.007812 60.089844 96.230469 60.121094 C 97.328125 63.5 97.289062 64.875 95.980469 68.253906 C 94.246094 70.964844 94.246094 70.964844 91.269531 71.949219 C 91.269531 70 91.269531 68.046875 91.269531 66.035156 C 90.941406 66.035156 90.613281 66.035156 90.277344 66.035156 C 90.234375 64.394531 90.238281 62.75 90.277344 61.109375 C 91.269531 60.121094 91.269531 60.121094 93.8125 60.0625 Z M 93.8125 60.0625 "/>
<path style=" stroke:none;fill-rule:nonzero;fill:rgb(23.921569%,29.019609%,58.431375%);fill-opacity:1;" d="M 113.09375 96.589844 C 115.550781 97.566406 115.550781 97.566406 118.054688 98.5625 C 116.578125 104.28125 113.5 108.589844 110.117188 113.34375 C 108.921875 109.78125 109.167969 108.015625 110.117188 104.476562 C 111.429688 104.476562 112.738281 104.476562 114.085938 104.476562 C 113.738281 103.539062 113.390625 102.605469 113.035156 101.640625 C 112.101562 98.5625 112.101562 98.5625 113.09375 96.589844 Z M 113.09375 96.589844 "/>
<path style=" stroke:none;fill-rule:nonzero;fill:rgb(25.882354%,42.352942%,84.313726%);fill-opacity:1;" d="M 92.695312 56.734375 C 95.613281 57.230469 97.015625 58.1875 99.207031 60.121094 C 98.878906 61.75 98.550781 63.375 98.214844 65.050781 C 96.230469 62.09375 96.230469 62.09375 96.230469 60.121094 C 94.59375 60.449219 92.957031 60.773438 91.269531 61.109375 C 90.941406 62.734375 90.613281 64.359375 90.277344 66.035156 C 89.296875 66.035156 88.3125 66.035156 87.300781 66.035156 C 87.058594 63.132812 87.128906 61.445312 88.480469 58.828125 C 90.277344 57.164062 90.277344 57.164062 92.695312 56.734375 Z M 92.695312 56.734375 "/>
<path style=" stroke:none;fill-rule:nonzero;fill:rgb(24.705882%,29.411766%,56.470591%);fill-opacity:1;" d="M 114.085938 31.539062 C 116.824219 34.777344 118.238281 38.066406 119.730469 42.011719 C 120.164062 43.140625 120.597656 44.273438 121.042969 45.4375 C 122.023438 48.296875 122.023438 48.296875 122.023438 50.265625 C 121.367188 50.265625 120.714844 50.265625 120.039062 50.265625 C 120.039062 49.289062 120.039062 48.316406 120.039062 47.308594 C 119.386719 47.308594 118.730469 47.308594 118.054688 47.308594 C 117.402344 44.707031 116.746094 42.105469 116.070312 39.425781 C 115.089844 39.425781 114.105469 39.425781 113.09375 39.425781 C 113.421875 36.824219 113.75 34.21875 114.085938 31.539062 Z M 114.085938 31.539062 "/>
<path style=" stroke:none;fill-rule:nonzero;fill:rgb(17.254902%,26.666668%,63.137257%);fill-opacity:1;" d="M 87.300781 75.890625 C 87.628906 76.867188 87.957031 77.84375 88.292969 78.847656 C 94.1875 78.847656 100.078125 78.847656 106.152344 78.847656 C 105.824219 79.824219 105.496094 80.800781 105.160156 81.804688 C 102.121094 82.976562 102.121094 82.976562 99.207031 83.777344 C 98.550781 82.800781 97.898438 81.824219 97.222656 80.820312 C 94.816406 80.246094 94.816406 80.246094 92.136719 80.140625 C 91.234375 80.078125 90.332031 80.011719 89.402344 79.945312 C 88.707031 79.910156 88.015625 79.871094 87.300781 79.835938 C 87.300781 78.535156 87.300781 77.234375 87.300781 75.890625 Z M 87.300781 75.890625 "/>
<path style=" stroke:none;fill-rule:nonzero;fill:rgb(86.274511%,67.058825%,59.607846%);fill-opacity:1;" d="M 40.675781 106.445312 C 43.351562 106.976562 45.523438 107.8125 48.054688 108.910156 C 50.972656 110.132812 53.441406 110.90625 56.546875 111.375 C 56.546875 110.722656 56.546875 110.074219 56.546875 109.402344 C 58.53125 110.386719 58.53125 110.386719 59.523438 112.359375 C 51.699219 112.824219 46.421875 112.535156 39.683594 108.417969 C 40.011719 107.765625 40.335938 107.117188 40.675781 106.445312 Z M 40.675781 106.445312 "/>
<path style=" stroke:none;fill-rule:nonzero;fill:rgb(19.607843%,16.078432%,23.137255%);fill-opacity:1;" d="M 41.667969 46.324219 C 42.613281 48.460938 42.800781 49.835938 42.0625 52.0625 C 41.3125 53.785156 40.5 55.476562 39.683594 57.164062 C 39.027344 57.164062 38.371094 57.164062 37.699219 57.164062 C 36.328125 55.5625 35 53.921875 33.730469 52.238281 C 34.386719 52.238281 35.039062 52.238281 35.714844 52.238281 C 36.042969 50.9375 36.367188 49.636719 36.707031 48.296875 C 37.6875 48.945312 38.671875 49.597656 39.683594 50.265625 C 40.335938 48.964844 40.992188 47.664062 41.667969 46.324219 Z M 41.667969 46.324219 "/>
<path style=" stroke:none;fill-rule:nonzero;fill:rgb(87.843138%,69.803923%,65.490198%);fill-opacity:1;" d="M 76.390625 53.222656 C 76.714844 53.222656 77.042969 53.222656 77.382812 53.222656 C 77.4375 56.527344 77.472656 59.835938 77.503906 63.140625 C 77.53125 64.535156 77.53125 64.535156 77.554688 65.957031 C 77.59375 71.324219 77.195312 75.75 75.398438 80.820312 C 75.070312 80.820312 74.742188 80.820312 74.40625 80.820312 C 74.40625 77.566406 74.40625 74.316406 74.40625 70.964844 C 75.058594 70.964844 75.714844 70.964844 76.390625 70.964844 C 76.390625 65.109375 76.390625 59.253906 76.390625 53.222656 Z M 76.390625 53.222656 "/>
<path style=" stroke:none;fill-rule:nonzero;fill:rgb(80.392158%,43.137255%,29.411766%);fill-opacity:1;" d="M 63.492188 60.121094 C 65.816406 61.851562 67.316406 63.117188 67.757812 66.046875 C 67.769531 68.015625 67.621094 69.988281 67.460938 71.949219 C 66.46875 72.933594 66.46875 72.933594 63.925781 72.996094 C 63.128906 72.976562 62.332031 72.957031 61.507812 72.933594 C 61.507812 72.285156 61.507812 71.632812 61.507812 70.964844 C 62.488281 70.640625 63.472656 70.3125 64.484375 69.976562 C 64.582031 66.535156 64.265625 63.480469 63.492188 60.121094 Z M 63.492188 60.121094 "/>
<path style=" stroke:none;fill-rule:nonzero;fill:rgb(79.607844%,43.137255%,27.450982%);fill-opacity:1;" d="M 55.554688 76.878906 C 59.8125 76.878906 64.066406 76.878906 68.453125 76.878906 C 67.460938 79.835938 67.460938 79.835938 65.476562 80.820312 C 63.941406 80.734375 62.410156 80.582031 60.886719 80.390625 C 59.671875 80.238281 59.671875 80.238281 58.429688 80.085938 C 57.808594 80.003906 57.1875 79.917969 56.546875 79.835938 C 56.21875 78.859375 55.894531 77.882812 55.554688 76.878906 Z M 55.554688 76.878906 "/>
<path style=" stroke:none;fill-rule:nonzero;fill:rgb(24.313726%,41.960785%,84.313726%);fill-opacity:1;" d="M 101.808594 86.980469 C 104.167969 87.71875 104.167969 87.71875 106.152344 88.703125 C 105.496094 90.007812 104.839844 91.308594 104.167969 92.648438 C 103.839844 91.996094 103.511719 91.347656 103.175781 90.675781 C 102.234375 90.878906 101.292969 91.082031 100.324219 91.292969 C 99.300781 91.414062 98.277344 91.535156 97.222656 91.660156 C 96.566406 91.011719 95.914062 90.359375 95.238281 89.691406 C 97.59375 87.523438 98.535156 86.671875 101.808594 86.980469 Z M 101.808594 86.980469 "/>
<path style=" stroke:none;fill-rule:nonzero;fill:rgb(92.156863%,71.764708%,61.960787%);fill-opacity:1;" d="M 68.453125 52.238281 C 70.742188 52.238281 73.035156 52.238281 75.398438 52.238281 C 75.070312 54.839844 74.742188 57.441406 74.40625 60.121094 C 73.75 58.820312 73.09375 57.519531 72.421875 56.179688 C 71.765625 56.179688 71.109375 56.179688 70.4375 56.179688 C 69.78125 57.480469 69.128906 58.78125 68.453125 60.121094 C 68.453125 57.519531 68.453125 54.917969 68.453125 52.238281 Z M 68.453125 52.238281 "/>
<path style=" stroke:none;fill-rule:nonzero;fill:rgb(29.411766%,36.078432%,70.19608%);fill-opacity:1;" d="M 16.863281 79.835938 C 17.519531 79.835938 18.175781 79.835938 18.847656 79.835938 C 19.964844 85.378906 19.964844 85.378906 18.847656 88.703125 C 18.195312 88.703125 17.539062 88.703125 16.863281 88.703125 C 15.75 86.488281 15.75 86.488281 14.882812 83.777344 C 15.75 81.496094 15.75 81.496094 16.863281 79.835938 Z M 16.863281 79.835938 "/>
<path style=" stroke:none;fill-rule:nonzero;fill:rgb(98.039216%,68.627453%,51.764709%);fill-opacity:1;" d="M 71.429688 69.976562 C 71.429688 71.605469 71.429688 73.230469 71.429688 74.90625 C 70.445312 75.394531 70.445312 75.394531 69.445312 75.890625 C 69.445312 74.917969 69.445312 73.941406 69.445312 72.933594 C 68.789062 72.933594 68.136719 72.933594 67.460938 72.933594 C 67.789062 74.234375 68.113281 75.539062 68.453125 76.878906 C 67.46875 76.550781 66.488281 76.226562 65.476562 75.890625 C 65.476562 75.242188 65.476562 74.589844 65.476562 73.921875 C 64.492188 73.59375 63.511719 73.269531 62.5 72.933594 C 69.195312 69.976562 69.195312 69.976562 71.429688 69.976562 Z M 71.429688 69.976562 "/>
<path style=" stroke:none;fill-rule:nonzero;fill:rgb(93.333334%,72.549021%,61.56863%);fill-opacity:1;" d="M 48.609375 52.238281 C 50.574219 52.238281 52.539062 52.238281 54.5625 52.238281 C 53.570312 55.195312 53.570312 55.195312 51.585938 56.179688 C 51.585938 57.804688 51.585938 59.433594 51.585938 61.109375 C 50.933594 61.109375 50.277344 61.109375 49.601562 61.109375 C 49.601562 59.480469 49.601562 57.855469 49.601562 56.179688 C 48.949219 56.179688 48.292969 56.179688 47.617188 56.179688 C 47.945312 54.878906 48.273438 53.578125 48.609375 52.238281 Z M 48.609375 52.238281 "/>
<path style=" stroke:none;fill-rule:nonzero;fill:rgb(24.705882%,17.254902%,20.392157%);fill-opacity:1;" d="M 67.460938 49.28125 C 70.078125 49.28125 72.699219 49.28125 75.398438 49.28125 C 75.722656 50.582031 76.050781 51.882812 76.390625 53.222656 C 73.441406 52.898438 70.496094 52.574219 67.460938 52.238281 C 67.460938 51.261719 67.460938 50.285156 67.460938 49.28125 Z M 67.460938 49.28125 "/>
<path style=" stroke:none;fill-rule:nonzero;fill:rgb(23.529412%,16.470589%,21.568628%);fill-opacity:1;" d="M 48.609375 49.28125 C 51.230469 49.28125 53.847656 49.28125 56.546875 49.28125 C 56.546875 50.257812 56.546875 51.230469 56.546875 52.238281 C 52.128906 52.726562 52.128906 52.726562 47.617188 53.222656 C 47.945312 51.921875 48.273438 50.621094 48.609375 49.28125 Z M 48.609375 49.28125 "/>
<path style=" stroke:none;fill-rule:nonzero;fill:rgb(18.82353%,28.235295%,66.666669%);fill-opacity:1;" d="M 96.230469 101.519531 C 98.523438 102.167969 100.8125 102.820312 103.175781 103.488281 C 103.175781 103.816406 103.175781 104.140625 103.175781 104.476562 C 100.554688 104.800781 97.9375 105.125 95.238281 105.460938 C 95.566406 106.4375 95.894531 107.410156 96.230469 108.417969 C 94.59375 108.09375 92.957031 107.765625 91.269531 107.433594 C 91.597656 106.457031 91.925781 105.480469 92.261719 104.476562 C 94.308594 103.796875 94.308594 103.796875 96.230469 103.488281 C 96.230469 102.839844 96.230469 102.1875 96.230469 101.519531 Z M 96.230469 101.519531 "/>
<path style=" stroke:none;fill-rule:nonzero;fill:rgb(15.294118%,28.235295%,67.843139%);fill-opacity:1;" d="M 96.230469 70.964844 C 96.886719 71.613281 97.539062 72.265625 98.214844 72.933594 C 100.765625 73.574219 100.765625 73.574219 103.175781 73.921875 C 101.191406 75.890625 101.191406 75.890625 99.261719 76.085938 C 97.257812 76.019531 95.257812 75.957031 93.253906 75.890625 C 95.113281 72.074219 95.113281 72.074219 96.230469 70.964844 Z M 96.230469 70.964844 "/>
<path style=" stroke:none;fill-rule:nonzero;fill:rgb(13.725491%,26.666668%,65.490198%);fill-opacity:1;" d="M 95.238281 56.179688 C 95.238281 56.503906 95.238281 56.832031 95.238281 57.164062 C 93.601562 57.164062 91.964844 57.164062 90.277344 57.164062 C 89.296875 60.09375 88.3125 63.019531 87.300781 66.035156 C 86.648438 65.710938 85.992188 65.386719 85.316406 65.050781 C 85.910156 59.765625 85.910156 59.765625 87.488281 57.289062 C 90.078125 55.691406 92.257812 55.980469 95.238281 56.179688 Z M 95.238281 56.179688 "/>
<path style=" stroke:none;fill-rule:nonzero;fill:rgb(26.274511%,26.666668%,52.549022%);fill-opacity:1;" d="M 75.398438 78.847656 C 75.722656 80.148438 76.050781 81.449219 76.390625 82.792969 C 76.613281 83.484375 76.839844 84.171875 77.070312 84.886719 C 77.171875 85.496094 77.277344 86.105469 77.382812 86.734375 C 76.726562 87.382812 76.070312 88.035156 75.398438 88.703125 C 75.398438 88.054688 75.398438 87.402344 75.398438 86.734375 C 73.761719 87.382812 72.121094 88.035156 70.4375 88.703125 C 72.074219 85.453125 73.710938 82.199219 75.398438 78.847656 Z M 75.398438 78.847656 "/>
<path style=" stroke:none;fill-rule:nonzero;fill:rgb(14.901961%,22.352941%,37.254903%);fill-opacity:1;" d="M 18.847656 113.34375 C 20.160156 113.34375 21.46875 113.34375 22.816406 113.34375 C 22.816406 113.996094 22.816406 114.644531 22.816406 115.316406 C 21.835938 115.316406 20.851562 115.316406 19.839844 115.316406 C 19.839844 115.96875 19.839844 116.617188 19.839844 117.289062 C 20.824219 117.289062 21.804688 117.289062 22.816406 117.289062 C 23.144531 118.261719 23.472656 119.238281 23.808594 120.246094 C 22.828125 120.246094 21.84375 120.246094 20.832031 120.246094 C 19.097656 118.457031 19.097656 118.457031 17.855469 116.300781 C 18.183594 115.328125 18.511719 114.351562 18.847656 113.34375 Z M 18.847656 113.34375 "/>
<path style=" stroke:none;fill-rule:nonzero;fill:rgb(89.411765%,69.411767%,62.352943%);fill-opacity:1;" d="M 66.46875 99.546875 C 66.796875 99.546875 67.121094 99.546875 67.460938 99.546875 C 67.6875 102.867188 67.796875 104.882812 66.097656 107.800781 C 65.5625 108.328125 65.03125 108.859375 64.484375 109.402344 C 63.828125 109.402344 63.175781 109.402344 62.5 109.402344 C 63.15625 108.101562 63.808594 106.800781 64.484375 105.460938 C 63.828125 104.808594 63.175781 104.160156 62.5 103.488281 C 63.808594 103.164062 65.117188 102.839844 66.46875 102.503906 C 66.46875 101.527344 66.46875 100.550781 66.46875 99.546875 Z M 66.46875 99.546875 "/>
<path style=" stroke:none;fill-rule:nonzero;fill:rgb(19.215687%,16.078432%,23.137255%);fill-opacity:1;" d="M 54.5625 34.496094 C 57.257812 35.390625 59.867188 36.394531 62.5 37.453125 C 62.171875 38.105469 61.84375 38.753906 61.507812 39.425781 C 57.800781 38.933594 55.742188 38.5625 52.578125 36.46875 C 53.234375 35.816406 53.890625 35.167969 54.5625 34.496094 Z M 54.5625 34.496094 "/>
<path style=" stroke:none;fill-rule:nonzero;fill:rgb(27.843139%,27.058825%,50.196081%);fill-opacity:1;" d="M 65.476562 92.648438 C 65.804688 92.648438 66.132812 92.648438 66.46875 92.648438 C 66.46875 94.273438 66.46875 95.898438 66.46875 97.574219 C 67.664062 97.757812 67.664062 97.757812 68.886719 97.945312 C 70.144531 98.25 70.144531 98.25 71.429688 98.5625 C 71.757812 99.210938 72.082031 99.863281 72.421875 100.53125 C 71.109375 100.53125 69.800781 100.53125 68.453125 100.53125 C 68.125 101.183594 67.796875 101.832031 67.460938 102.503906 C 67.460938 101.527344 67.460938 100.550781 67.460938 99.546875 C 66.804688 99.546875 66.152344 99.546875 65.476562 99.546875 C 65.476562 97.269531 65.476562 94.992188 65.476562 92.648438 Z M 65.476562 92.648438 "/>
<path style=" stroke:none;fill-rule:nonzero;fill:rgb(85.09804%,50.196081%,33.725491%);fill-opacity:1;" d="M 32.738281 59.136719 C 33.394531 59.136719 34.046875 59.136719 34.722656 59.136719 C 35.378906 61.089844 36.03125 63.039062 36.707031 65.050781 C 35.070312 64.726562 33.433594 64.398438 31.746094 64.066406 C 32.074219 62.4375 32.402344 60.8125 32.738281 59.136719 Z M 32.738281 59.136719 "/>
<path style=" stroke:none;fill-rule:nonzero;fill:rgb(30.19608%,34.117648%,60.000002%);fill-opacity:1;" d="M 2.976562 47.308594 C 3.957031 47.632812 4.941406 47.960938 5.953125 48.296875 C 5.296875 51.222656 4.644531 54.148438 3.96875 57.164062 C 3.3125 56.515625 2.660156 55.863281 1.984375 55.195312 C 2.015625 52.503906 2.542969 49.972656 2.976562 47.308594 Z M 2.976562 47.308594 "/>
<path style=" stroke:none;fill-rule:nonzero;fill:rgb(18.431373%,23.921569%,55.686277%);fill-opacity:1;" d="M 108.136719 110.386719 C 108.753906 112.238281 108.753906 112.238281 109.128906 114.332031 C 108.472656 114.980469 107.816406 115.632812 107.144531 116.300781 C 106.160156 116.300781 105.179688 116.300781 104.167969 116.300781 C 104.476562 114.453125 104.476562 114.453125 105.160156 112.359375 C 106.140625 111.710938 107.121094 111.058594 108.136719 110.386719 Z M 108.136719 110.386719 "/>
<path style=" stroke:none;fill-rule:nonzero;fill:rgb(81.568629%,65.882355%,63.921571%);fill-opacity:1;" d="M 25.792969 57.164062 C 26.121094 57.164062 26.449219 57.164062 26.785156 57.164062 C 26.785156 58.792969 26.785156 60.417969 26.785156 62.09375 C 27.441406 62.09375 28.09375 62.09375 28.769531 62.09375 C 29.097656 64.371094 29.425781 66.648438 29.761719 68.992188 C 28.066406 67.382812 26.851562 66.164062 25.792969 64.066406 C 25.753906 61.765625 25.75 59.464844 25.792969 57.164062 Z M 25.792969 57.164062 "/>
<path style=" stroke:none;fill-rule:nonzero;fill:rgb(27.058825%,19.215687%,23.529412%);fill-opacity:1;" d="M 70.4375 55.195312 C 71.417969 55.519531 72.402344 55.84375 73.414062 56.179688 C 73.085938 57.804688 72.757812 59.433594 72.421875 61.109375 C 71.4375 60.78125 70.457031 60.457031 69.445312 60.121094 C 69.773438 58.496094 70.097656 56.871094 70.4375 55.195312 Z M 70.4375 55.195312 "/>
<path style=" stroke:none;fill-rule:nonzero;fill:rgb(28.627452%,19.607843%,20.784314%);fill-opacity:1;" d="M 51.585938 55.195312 C 52.570312 55.519531 53.550781 55.84375 54.5625 56.179688 C 54.234375 57.804688 53.910156 59.433594 53.570312 61.109375 C 52.589844 60.78125 51.605469 60.457031 50.59375 60.121094 C 50.921875 58.496094 51.25 56.871094 51.585938 55.195312 Z M 51.585938 55.195312 "/>
<path style=" stroke:none;fill-rule:nonzero;fill:rgb(24.705882%,30.19608%,59.607846%);fill-opacity:1;" d="M 32.738281 7.886719 C 33.066406 8.535156 33.394531 9.1875 33.730469 9.855469 C 33.074219 9.855469 32.421875 9.855469 31.746094 9.855469 C 31.746094 10.832031 31.746094 11.808594 31.746094 12.8125 C 32.402344 13.136719 33.054688 13.464844 33.730469 13.796875 C 32.09375 14.125 30.457031 14.449219 28.769531 14.785156 C 29.097656 13.808594 29.425781 12.832031 29.761719 11.828125 C 29.105469 11.503906 28.453125 11.175781 27.777344 10.839844 C 29.414062 9.867188 31.050781 8.890625 32.738281 7.886719 Z M 32.738281 7.886719 "/>
<path style=" stroke:none;fill-rule:nonzero;fill:rgb(79.215688%,64.705884%,61.176473%);fill-opacity:1;" d="M 28.769531 52.238281 C 31.09375 52.488281 33.410156 52.820312 35.714844 53.222656 C 36.042969 53.875 36.367188 54.523438 36.707031 55.195312 C 35.621094 55.175781 34.539062 55.152344 33.421875 55.132812 C 29.816406 55.011719 29.816406 55.011719 26.785156 56.179688 C 27.441406 54.878906 28.09375 53.578125 28.769531 52.238281 Z M 28.769531 52.238281 "/>
<path style=" stroke:none;fill-rule:nonzero;fill:rgb(21.568628%,18.431373%,29.019609%);fill-opacity:1;" d="M 45.636719 111.375 C 49.234375 111.699219 52.835938 112.023438 56.546875 112.359375 C 56.546875 112.683594 56.546875 113.011719 56.546875 113.34375 C 50.65625 113.832031 50.65625 113.832031 44.644531 114.332031 C 44.96875 113.355469 45.296875 112.378906 45.636719 111.375 Z M 45.636719 111.375 "/>
<path style=" stroke:none;fill-rule:nonzero;fill:rgb(22.352941%,26.274511%,50.196081%);fill-opacity:1;" d="M 8.929688 100.53125 C 10.566406 101.832031 12.203125 103.132812 13.890625 104.476562 C 13.5625 106.101562 13.234375 107.726562 12.898438 109.402344 C 10.414062 106.507812 9.453125 104.296875 8.929688 100.53125 Z M 8.929688 100.53125 "/>
<path style=" stroke:none;fill-rule:nonzero;fill:rgb(97.647059%,72.156864%,61.56863%);fill-opacity:1;" d="M 37.699219 101.519531 C 39.335938 101.84375 40.972656 102.167969 42.660156 102.503906 C 42.660156 103.480469 42.660156 104.457031 42.660156 105.460938 C 41.675781 105.460938 40.695312 105.460938 39.683594 105.460938 C 40.011719 106.109375 40.335938 106.761719 40.675781 107.433594 C 39.363281 106.78125 38.054688 106.128906 36.707031 105.460938 C 37.035156 104.160156 37.359375 102.859375 37.699219 101.519531 Z M 37.699219 101.519531 "/>
<path style=" stroke:none;fill-rule:nonzero;fill:rgb(9.411765%,13.333334%,30.19608%);fill-opacity:1;" d="M 81.347656 30.554688 C 83.332031 32.523438 83.332031 32.523438 83.332031 35.480469 C 81.695312 36.132812 80.058594 36.78125 78.371094 37.453125 C 78.371094 36.152344 78.371094 34.851562 78.371094 33.511719 C 79.355469 33.511719 80.335938 33.511719 81.347656 33.511719 C 81.347656 32.535156 81.347656 31.558594 81.347656 30.554688 Z M 81.347656 30.554688 "/>
<path style=" stroke:none;fill-rule:nonzero;fill:rgb(21.176471%,43.529412%,89.803922%);fill-opacity:1;" d="M 103.175781 29.566406 C 102.847656 30.542969 102.519531 31.519531 102.183594 32.523438 C 99.234375 32.199219 96.289062 31.875 93.253906 31.539062 C 96.871094 29.144531 98.921875 29.410156 103.175781 29.566406 Z M 103.175781 29.566406 "/>
<path style=" stroke:none;fill-rule:nonzero;fill:rgb(14.901961%,25.882354%,62.7451%);fill-opacity:1;" d="M 104.167969 102.503906 C 104.167969 103.480469 104.167969 104.457031 104.167969 105.460938 C 98.585938 107.433594 98.585938 107.433594 95.238281 107.433594 C 95.238281 106.78125 95.238281 106.128906 95.238281 105.460938 C 98.183594 104.484375 101.132812 103.507812 104.167969 102.503906 Z M 104.167969 102.503906 "/>
<path style=" stroke:none;fill-rule:nonzero;fill:rgb(81.960785%,63.921571%,61.176473%);fill-opacity:1;" d="M 31.746094 96.589844 C 34.972656 99.382812 36.230469 101.207031 36.707031 105.460938 C 33.476562 102.667969 32.222656 100.839844 31.746094 96.589844 Z M 31.746094 96.589844 "/>
<path style=" stroke:none;fill-rule:nonzero;fill:rgb(86.666667%,68.627453%,61.56863%);fill-opacity:1;" d="M 46.628906 34.496094 C 48.589844 35.148438 50.554688 35.796875 52.578125 36.46875 C 51.925781 37.117188 51.269531 37.769531 50.59375 38.4375 C 50.269531 38.113281 49.941406 37.789062 49.601562 37.453125 C 48.621094 38.429688 47.640625 39.40625 46.628906 40.410156 C 46.628906 38.457031 46.628906 36.507812 46.628906 34.496094 Z M 46.628906 34.496094 "/>
<path style=" stroke:none;fill-rule:nonzero;fill:rgb(25.882354%,31.37255%,56.862748%);fill-opacity:1;" d="M 90.277344 9.855469 C 92.601562 10.109375 94.917969 10.441406 97.222656 10.839844 C 97.550781 11.492188 97.878906 12.144531 98.214844 12.8125 C 95.269531 12.488281 92.320312 12.164062 89.285156 11.828125 C 89.613281 11.175781 89.941406 10.527344 90.277344 9.855469 Z M 90.277344 9.855469 "/>
</g>
</svg>
