<?xml version="1.0" encoding="UTF-8"?>
<!DOCTYPE svg PUBLIC "-//W3C//DTD SVG 1.1//EN" "http://www.w3.org/Graphics/SVG/1.1/DTD/svg11.dtd">
<svg xmlns="http://www.w3.org/2000/svg" version="1.1" width="126px" height="140px" style="shape-rendering:geometricPrecision; text-rendering:geometricPrecision; image-rendering:optimizeQuality; fill-rule:evenodd; clip-rule:evenodd" xmlns:xlink="http://www.w3.org/1999/xlink">
<g><path style="opacity:1" fill="#2a2b7a" d="M 89.5,7.5 C 89.5,8.5 89.5,9.5 89.5,10.5C 94.3361,10.4873 96.3361,12.6539 95.5,17C 96.7073,18.3002 97.3739,19.8002 97.5,21.5C 99.4918,21.6715 101.158,21.0049 102.5,19.5C 104.111,20.3202 104.778,21.6536 104.5,23.5C 101.447,24.3664 99.1134,26.1998 97.5,29C 101.52,29.6567 104.52,28.1567 106.5,24.5C 107.052,32.6184 103.552,34.6184 96,30.5C 95.6174,31.056 95.1174,31.3893 94.5,31.5C 93.2129,29.1952 91.8796,26.8618 90.5,24.5C 90.0244,27.1191 88.6911,29.1191 86.5,30.5C 88.0737,31.9842 89.407,33.6508 90.5,35.5C 91.5207,34.0986 92.5207,32.7653 93.5,31.5C 93.8807,32.9311 94.8807,33.7645 96.5,34C 94.8258,35.5059 93.8258,37.3393 93.5,39.5C 90.9963,38.3608 88.3297,37.6941 85.5,37.5C 85.5,38.8333 85.5,40.1667 85.5,41.5C 84.5,41.5 83.5,41.5 82.5,41.5C 82.5,42.8333 82.5,44.1667 82.5,45.5C 81.8826,45.3893 81.3826,45.056 81,44.5C 80.5005,38.5092 80.3338,32.5092 80.5,26.5C 79.5,26.5 78.5,26.5 77.5,26.5C 74.9899,26.0535 72.9899,26.7202 71.5,28.5C 71.1667,28.5 70.8333,28.5 70.5,28.5C 68.9568,24.9182 68.6235,21.2516 69.5,17.5C 67.5328,17.2606 65.6995,17.5939 64,18.5C 62.7308,17.0953 62.2308,15.4286 62.5,13.5C 57.5,13.5 52.5,13.5 47.5,13.5C 47.3433,14.8734 47.51,16.2068 48,17.5C 48.7175,16.5494 49.5509,16.3828 50.5,17C 51.3367,19.5885 53.0034,21.4219 55.5,22.5C 53.2351,23.6474 50.9018,23.8141 48.5,23C 49.731,21.8173 49.731,20.6507 48.5,19.5C 44.3613,21.0276 40.028,22.0276 35.5,22.5C 34.2524,24.69 32.5857,25.0234 30.5,23.5C 28.0018,26.1913 25.8351,25.858 24,22.5C 23.0922,24.4386 21.5922,25.4386 19.5,25.5C 21.1195,21.3576 23.7862,17.8576 27.5,15C 29.0444,13.8129 30.7111,13.4795 32.5,14C 30.5614,14.9078 29.5614,16.4078 29.5,18.5C 30.8333,18.5 32.1667,18.5 33.5,18.5C 33.5,17.1667 33.5,15.8333 33.5,14.5C 36.7851,14.8927 39.6184,16.2261 42,18.5C 44.6616,18.2212 45.495,17.0545 44.5,15C 42.2056,13.8664 40.039,13.3664 38,13.5C 37.3828,12.5509 37.5494,11.7175 38.5,11C 36.273,10.296 35.9397,9.12936 37.5,7.5C 45.2661,2.90936 53.7661,0.909358 63,1.5C 72.4369,1.01968 81.2702,3.01968 89.5,7.5 Z"/></g>
<g><path style="opacity:1" fill="#292b75" d="M 37.5,7.5 C 35.9397,9.12936 36.273,10.296 38.5,11C 37.5494,11.7175 37.3828,12.5509 38,13.5C 40.039,13.3664 42.2056,13.8664 44.5,15C 45.495,17.0545 44.6616,18.2212 42,18.5C 39.6184,16.2261 36.7851,14.8927 33.5,14.5C 33.5,15.8333 33.5,17.1667 33.5,18.5C 32.1667,18.5 30.8333,18.5 29.5,18.5C 29.5614,16.4078 30.5614,14.9078 32.5,14C 30.7111,13.4795 29.0444,13.8129 27.5,15C 23.7862,17.8576 21.1195,21.3576 19.5,25.5C 21.5922,25.4386 23.0922,24.4386 24,22.5C 25.8351,25.858 28.0018,26.1913 30.5,23.5C 32.5857,25.0234 34.2524,24.69 35.5,22.5C 40.028,22.0276 44.3613,21.0276 48.5,19.5C 49.731,20.6507 49.731,21.8173 48.5,23C 50.9018,23.8141 53.2351,23.6474 55.5,22.5C 53.0034,21.4219 51.3367,19.5885 50.5,17C 49.5509,16.3828 48.7175,16.5494 48,17.5C 47.51,16.2068 47.3433,14.8734 47.5,13.5C 52.5,13.5 57.5,13.5 62.5,13.5C 62.2308,15.4286 62.7308,17.0953 64,18.5C 65.6995,17.5939 67.5328,17.2606 69.5,17.5C 68.6235,21.2516 68.9568,24.9182 70.5,28.5C 70.0074,30.8056 69.6741,33.139 69.5,35.5C 69.5,36.8333 69.5,38.1667 69.5,39.5C 68.6618,39.8417 68.3284,40.5084 68.5,41.5C 67.7784,41.9175 67.2784,42.5842 67,43.5C 66.8283,36.654 66.3283,29.9874 65.5,23.5C 65.3893,22.8826 65.056,22.3826 64.5,22C 59.1707,20.1781 56.504,22.0115 56.5,27.5C 55.8826,27.6107 55.3826,27.944 55,28.5C 54.8283,33.2018 54.3283,37.8685 53.5,42.5C 51.558,38.2548 51.2247,33.9215 52.5,29.5C 51.9953,28.0815 50.9953,27.4148 49.5,27.5C 47.0775,25.3498 44.4109,25.0165 41.5,26.5C 42.9488,24.8356 44.9488,24.0023 47.5,24C 43.7887,23.1747 40.122,23.3414 36.5,24.5C 34.5523,30.2816 32.3856,30.615 30,25.5C 29.7362,28.7061 28.0695,30.7061 25,31.5C 22.127,30.5865 21.9603,29.0865 24.5,27C 23.8333,26.3333 23.1667,26.3333 22.5,27C 21.5061,28.3287 20.5061,29.662 19.5,31C 21.2559,34.6161 21.9225,38.4494 21.5,42.5C 18.2819,42.3491 17.9485,41.5158 20.5,40C 18.555,40.1282 16.7216,39.9615 15,39.5C 14.3333,40.5 14.3333,41.5 15,42.5C 15.3333,42.1667 15.6667,41.8333 16,41.5C 17.4907,43.0037 19.324,43.8371 21.5,44C 19.7065,46.8458 17.8732,47.0125 16,44.5C 15.586,44.9574 15.086,45.2907 14.5,45.5C 13.5713,44.3112 13.238,42.9778 13.5,41.5C 11.4458,41.6347 9.77914,40.968 8.5,39.5C 13.9525,25.046 23.6191,14.3793 37.5,7.5 Z"/></g>
<g><path style="opacity:1" fill="#e0aea4" d="M 65.5,23.5 C 65.5,23.8333 65.5,24.1667 65.5,24.5C 63.5316,23.181 61.5316,23.181 59.5,24.5C 58.3395,26.875 57.3395,29.2083 56.5,31.5C 56.5,30.1667 56.5,28.8333 56.5,27.5C 56.504,22.0115 59.1707,20.1781 64.5,22C 65.056,22.3826 65.3893,22.8826 65.5,23.5 Z"/></g>
<g><path style="opacity:1" fill="#3b4ba7" d="M 94.5,31.5 C 94.1667,31.5 93.8333,31.5 93.5,31.5C 92.5207,32.7653 91.5207,34.0986 90.5,35.5C 89.407,33.6508 88.0737,31.9842 86.5,30.5C 88.6911,29.1191 90.0244,27.1191 90.5,24.5C 91.8796,26.8618 93.2129,29.1952 94.5,31.5 Z"/></g>
<g><path style="opacity:1" fill="#282a75" d="M 89.5,7.5 C 109.424,18.6486 120.924,35.6486 124,58.5C 126.532,74.8027 124.032,90.1361 116.5,104.5C 116.629,102.784 116.962,101.117 117.5,99.5C 117.285,97.2257 116.618,95.059 115.5,93C 118.068,89.1866 118.068,85.3533 115.5,81.5C 116.536,78.2473 117.203,74.914 117.5,71.5C 116.622,66.3047 116.622,61.138 117.5,56C 116.618,51.5278 115.951,51.6944 115.5,56.5C 114.883,56.6107 114.383,56.944 114,57.5C 113.674,53.4695 113.674,49.4695 114,45.5C 112.984,46.6341 112.317,46.3008 112,44.5C 111.517,45.448 111.351,46.448 111.5,47.5C 109.234,47.1412 107.401,47.8078 106,49.5C 105.085,48.6721 104.419,47.6721 104,46.5C 103.692,47.3081 103.192,47.9747 102.5,48.5C 100.232,47.4557 97.8991,47.289 95.5,48C 97.9915,49.2492 97.8249,50.4158 95,51.5C 94.8784,49.563 94.045,48.2297 92.5,47.5C 92.0046,45.5183 91.5046,43.5183 91,41.5C 88.0597,41.8463 85.5597,42.8463 83.5,44.5C 83.5,45.1667 83.1667,45.5 82.5,45.5C 82.5,44.1667 82.5,42.8333 82.5,41.5C 83.5,41.5 84.5,41.5 85.5,41.5C 85.5,40.1667 85.5,38.8333 85.5,37.5C 88.3297,37.6941 90.9963,38.3608 93.5,39.5C 93.8258,37.3393 94.8258,35.5059 96.5,34C 94.8807,33.7645 93.8807,32.9311 93.5,31.5C 93.8333,31.5 94.1667,31.5 94.5,31.5C 95.1174,31.3893 95.6174,31.056 96,30.5C 103.552,34.6184 107.052,32.6184 106.5,24.5C 104.52,28.1567 101.52,29.6567 97.5,29C 99.1134,26.1998 101.447,24.3664 104.5,23.5C 104.778,21.6536 104.111,20.3202 102.5,19.5C 101.158,21.0049 99.4918,21.6715 97.5,21.5C 97.3739,19.8002 96.7073,18.3002 95.5,17C 96.3361,12.6539 94.3361,10.4873 89.5,10.5C 89.5,9.5 89.5,8.5 89.5,7.5 Z"/></g>
<g><path style="opacity:1" fill="#2a2b78" d="M 38.5,29.5 C 38.5,40.8333 38.5,52.1667 38.5,63.5C 37.5,63.5 36.5,63.5 35.5,63.5C 35.5,64.5 35.5,65.5 35.5,66.5C 33.7839,66.3713 32.1172,66.038 30.5,65.5C 29.0328,65.1062 27.5328,64.7728 26,64.5C 24.3009,64.3866 23.1342,65.0532 22.5,66.5C 21.5386,68.2646 21.2053,70.2646 21.5,72.5C 21.3713,74.2161 21.038,75.8828 20.5,77.5C 19.2125,80.4073 18.2125,83.4073 17.5,86.5C 16.5,86.5 15.5,86.5 14.5,86.5C 14.3433,85.1266 14.51,83.7932 15,82.5C 17.2609,81.2285 17.7609,79.5618 16.5,77.5C 15.2011,78.09 14.3678,79.09 14,80.5C 12.9907,75.8022 12.824,71.1356 13.5,66.5C 13.0576,65.2613 12.3909,64.2613 11.5,63.5C 12.1667,63.5 12.8333,63.5 13.5,63.5C 15.3005,62.2812 16.3005,60.4479 16.5,58C 15.5815,54.8518 15.2482,51.8518 15.5,49C 16,48.5 16.5,48 17,47.5C 17.0259,51.1083 17.8593,54.4417 19.5,57.5C 19.4772,60.0175 19.1438,62.6842 18.5,65.5C 21.2496,65.382 23.2496,64.0486 24.5,61.5C 24.1667,60.8333 23.8333,60.1667 23.5,59.5C 25.2348,56.7102 27.0682,54.7102 29,53.5C 29.7175,54.4506 30.5509,54.6172 31.5,54C 30.1667,52 28.5,50.3333 26.5,49C 27.9783,46.9614 29.9783,46.1281 32.5,46.5C 32.9157,41.5068 33.2491,36.5068 33.5,31.5C 35.5138,31.6085 37.1805,30.9418 38.5,29.5 Z"/></g>
<g><path style="opacity:1" fill="#fcb48e" d="M 65.5,24.5 C 65.5,26.1667 65.5,27.8333 65.5,29.5C 63.8381,39.6134 62.8381,49.9467 62.5,60.5C 62.6667,62.5 62.8333,64.5 63,66.5C 63.7175,67.4506 64.5509,67.6172 65.5,67C 67.1834,63.3797 67.8501,59.5463 67.5,55.5C 67.5,54.8333 67.5,54.1667 67.5,53.5C 68.1667,51.5 68.8333,49.5 69.5,47.5C 70.3197,41.1806 71.3197,34.8473 72.5,28.5C 75.9304,27.7553 77.597,29.0886 77.5,32.5C 76.7881,42.3267 76.1214,52.1601 75.5,62C 75.5085,63.7067 75.8418,65.2067 76.5,66.5C 76.281,67.675 76.6143,68.675 77.5,69.5C 79.0863,67.8273 79.7529,65.8273 79.5,63.5C 79.9556,57.9391 80.9556,52.6058 82.5,47.5C 81.4417,55.4615 80.7751,63.4615 80.5,71.5C 76.9366,72.615 73.6033,74.2817 70.5,76.5C 70.2089,75.3509 69.3756,74.6842 68,74.5C 61.1671,76.6743 56.8338,74.341 55,67.5C 54.6174,68.056 54.1174,68.3893 53.5,68.5C 54.2436,64.8815 54.577,61.2148 54.5,57.5C 55.3019,56.0484 55.8019,54.3817 56,52.5C 56.4994,46.8431 56.6661,41.1764 56.5,35.5C 56.5,34.1667 56.5,32.8333 56.5,31.5C 57.3395,29.2083 58.3395,26.875 59.5,24.5C 61.5316,23.181 63.5316,23.181 65.5,24.5 Z"/></g>
<g><path style="opacity:1" fill="#a7828c" d="M 70.5,28.5 C 70.8333,28.5 71.1667,28.5 71.5,28.5C 71.5905,31.1522 70.9238,33.4855 69.5,35.5C 69.6741,33.139 70.0074,30.8056 70.5,28.5 Z"/></g>
<g><path style="opacity:1" fill="#292b7c" d="M 41.5,26.5 C 40.1001,27.0998 39.1001,28.0998 38.5,29.5C 37.1805,30.9418 35.5138,31.6085 33.5,31.5C 33.2491,36.5068 32.9157,41.5068 32.5,46.5C 29.9783,46.1281 27.9783,46.9614 26.5,49C 28.5,50.3333 30.1667,52 31.5,54C 30.5509,54.6172 29.7175,54.4506 29,53.5C 27.0682,54.7102 25.2348,56.7102 23.5,59.5C 23.8333,60.1667 24.1667,60.8333 24.5,61.5C 23.2496,64.0486 21.2496,65.382 18.5,65.5C 19.1438,62.6842 19.4772,60.0175 19.5,57.5C 17.8593,54.4417 17.0259,51.1083 17,47.5C 16.5,48 16,48.5 15.5,49C 15.2482,51.8518 15.5815,54.8518 16.5,58C 16.3005,60.4479 15.3005,62.2812 13.5,63.5C 13.5,58.1667 13.5,52.8333 13.5,47.5C 12.1667,47.5 10.8333,47.5 9.5,47.5C 8.90843,44.8728 8.5751,42.2062 8.5,39.5C 9.77914,40.968 11.4458,41.6347 13.5,41.5C 13.238,42.9778 13.5713,44.3112 14.5,45.5C 15.086,45.2907 15.586,44.9574 16,44.5C 17.8732,47.0125 19.7065,46.8458 21.5,44C 19.324,43.8371 17.4907,43.0037 16,41.5C 15.6667,41.8333 15.3333,42.1667 15,42.5C 14.3333,41.5 14.3333,40.5 15,39.5C 16.7216,39.9615 18.555,40.1282 20.5,40C 17.9485,41.5158 18.2819,42.3491 21.5,42.5C 21.9225,38.4494 21.2559,34.6161 19.5,31C 20.5061,29.662 21.5061,28.3287 22.5,27C 23.1667,26.3333 23.8333,26.3333 24.5,27C 21.9603,29.0865 22.127,30.5865 25,31.5C 28.0695,30.7061 29.7362,28.7061 30,25.5C 32.3856,30.615 34.5523,30.2816 36.5,24.5C 40.122,23.3414 43.7887,23.1747 47.5,24C 44.9488,24.0023 42.9488,24.8356 41.5,26.5 Z"/></g>
<g><path style="opacity:1" fill="#362963" d="M 65.5,23.5 C 66.3283,29.9874 66.8283,36.654 67,43.5C 67.2784,42.5842 67.7784,41.9175 68.5,41.5C 67.7279,45.4517 67.3946,49.4517 67.5,53.5C 67.5,54.1667 67.5,54.8333 67.5,55.5C 66.6618,55.8417 66.3284,56.5084 66.5,57.5C 65.5119,52.3595 65.1786,47.0262 65.5,41.5C 65.5,37.5 65.5,33.5 65.5,29.5C 65.5,27.8333 65.5,26.1667 65.5,24.5C 65.5,24.1667 65.5,23.8333 65.5,23.5 Z"/></g>
<g><path style="opacity:1" fill="#ddaca4" d="M 49.5,27.5 C 50.1667,36.1667 50.8333,44.8333 51.5,53.5C 51.1842,56.9783 51.6842,60.3117 53,63.5C 53.1909,61.2922 53.6909,59.2922 54.5,57.5C 54.577,61.2148 54.2436,64.8815 53.5,68.5C 52.4341,69.6921 51.6008,69.3588 51,67.5C 49.9059,55.5081 48.9059,43.5081 48,31.5C 46.513,30.7471 46.3463,29.9138 47.5,29C 46.0953,27.7308 44.4286,27.2308 42.5,27.5C 42.5,28.8333 42.5,30.1667 42.5,31.5C 41.5056,41.9869 41.1722,52.6536 41.5,63.5C 41.1667,63.5 40.8333,63.5 40.5,63.5C 40.1874,51.0867 40.5208,38.7533 41.5,26.5C 44.4109,25.0165 47.0775,25.3498 49.5,27.5 Z"/></g>
<g><path style="opacity:1" fill="#b7919c" d="M 69.5,39.5 C 69.5,42.1667 69.5,44.8333 69.5,47.5C 68.8333,49.5 68.1667,51.5 67.5,53.5C 67.3946,49.4517 67.7279,45.4517 68.5,41.5C 68.3284,40.5084 68.6618,39.8417 69.5,39.5 Z"/></g>
<g><path style="opacity:1" fill="#e2ae9f" d="M 89.5,57.5 C 89.5,58.1667 89.5,58.8333 89.5,59.5C 88.0762,61.5145 87.4095,63.8478 87.5,66.5C 87.5,68.1667 87.5,69.8333 87.5,71.5C 85.9216,76.5826 85.2549,81.916 85.5,87.5C 85.6882,93.2881 85.0215,98.9548 83.5,104.5C 83.1667,104.5 82.8333,104.5 82.5,104.5C 82.0835,97.9484 82.7502,91.6151 84.5,85.5C 84.6082,74.4315 85.9415,63.5982 88.5,53C 88.275,50.4719 87.9416,47.9719 87.5,45.5C 85.4862,45.3915 83.8195,46.0582 82.5,47.5C 82.5,46.8333 82.5,46.1667 82.5,45.5C 83.1667,45.5 83.5,45.1667 83.5,44.5C 86.5466,42.8872 89.0466,43.5538 91,46.5C 91.14,50.234 90.64,53.9007 89.5,57.5 Z"/></g>
<g><path style="opacity:1" fill="#404da6" d="M 21.5,47.5 C 22.8181,48.7574 24.1515,50.0907 25.5,51.5C 24.316,53.0461 23.316,54.7127 22.5,56.5C 20.3737,53.6736 20.0404,50.6736 21.5,47.5 Z"/></g>
<g><path style="opacity:1" fill="#e5b2a8" d="M 56.5,35.5 C 56.6661,41.1764 56.4994,46.8431 56,52.5C 55.8019,54.3817 55.3019,56.0484 54.5,57.5C 54.5,56.1667 54.5,54.8333 54.5,53.5C 54.8442,47.3219 55.5109,41.3219 56.5,35.5 Z"/></g>
<g><path style="opacity:1" fill="#372c66" d="M 49.5,27.5 C 50.9953,27.4148 51.9953,28.0815 52.5,29.5C 51.2247,33.9215 51.558,38.2548 53.5,42.5C 54.3283,37.8685 54.8283,33.2018 55,28.5C 55.3826,27.944 55.8826,27.6107 56.5,27.5C 56.5,28.8333 56.5,30.1667 56.5,31.5C 56.5,32.8333 56.5,34.1667 56.5,35.5C 55.5109,41.3219 54.8442,47.3219 54.5,53.5C 53.7321,54.2625 53.2321,55.2625 53,56.5C 52.7679,55.2625 52.2679,54.2625 51.5,53.5C 50.8333,44.8333 50.1667,36.1667 49.5,27.5 Z"/></g>
<g><path style="opacity:1" fill="#3e2e60" d="M 77.5,26.5 C 78.5,26.5 79.5,26.5 80.5,26.5C 80.3338,32.5092 80.5005,38.5092 81,44.5C 81.3826,45.056 81.8826,45.3893 82.5,45.5C 82.5,46.1667 82.5,46.8333 82.5,47.5C 80.9556,52.6058 79.9556,57.9391 79.5,63.5C 78.7321,64.2625 78.2321,65.2625 78,66.5C 77.5045,64.5273 77.3379,62.5273 77.5,60.5C 78.578,49.103 78.578,37.7697 77.5,26.5 Z"/></g>
<g><path style="opacity:1" fill="#2a2b79" d="M 115.5,56.5 C 113.673,65.6808 113.006,75.0141 113.5,84.5C 112.167,84.5 110.833,84.5 109.5,84.5C 109.034,86.2012 109.034,87.7012 109.5,89C 108.646,90.0217 107.646,90.8551 106.5,91.5C 105.52,88.9135 105.187,86.2469 105.5,83.5C 107.655,83.628 109.655,83.128 111.5,82C 109.71,81.98 108.043,81.1467 106.5,79.5C 104.627,79.4823 104.294,79.9823 105.5,81C 102.044,80.9074 99.0439,81.9074 96.5,84C 97.2524,84.6708 97.5858,85.5041 97.5,86.5C 97.5,87.1667 97.5,87.8333 97.5,88.5C 96.5,88.5 95.5,88.5 94.5,88.5C 93.969,85.763 93.1356,83.0964 92,80.5C 90.7727,84.5435 90.606,88.5435 91.5,92.5C 90.7109,92.7828 90.0442,93.2828 89.5,94C 89.9686,97.0797 90.1353,100.246 90,103.5C 90.3333,103.833 90.6667,104.167 91,104.5C 92.7736,100.386 93.6069,100.553 93.5,105C 92.9089,107.239 92.2422,109.406 91.5,111.5C 93.5914,111.682 95.5914,111.348 97.5,110.5C 98.6446,111.776 98.6446,113.109 97.5,114.5C 99.3649,115.666 101.032,115.333 102.5,113.5C 103.386,112.675 103.719,111.675 103.5,110.5C 104.833,110.5 106.167,110.5 107.5,110.5C 107.5,111.5 107.5,112.5 107.5,113.5C 103.046,116.574 98.713,119.907 94.5,123.5C 93.1585,121.995 91.4918,121.328 89.5,121.5C 89.4386,119.408 88.4386,117.908 86.5,117C 87.5171,115.951 87.6838,114.784 87,113.5C 86.2825,114.451 85.4491,114.617 84.5,114C 85.9047,112.731 87.5714,112.231 89.5,112.5C 88.1162,107.99 87.1162,103.323 86.5,98.5C 86.5,94.8333 86.5,91.1667 86.5,87.5C 86.8333,82.1667 87.1667,76.8333 87.5,71.5C 87.5,69.8333 87.5,68.1667 87.5,66.5C 88.9238,64.4855 89.5905,62.1522 89.5,59.5C 89.5,58.8333 89.5,58.1667 89.5,57.5C 90.4959,57.4142 91.3292,57.7476 92,58.5C 92.4986,54.8484 92.6653,51.1817 92.5,47.5C 94.045,48.2297 94.8784,49.563 95,51.5C 97.8249,50.4158 97.9915,49.2492 95.5,48C 97.8991,47.289 100.232,47.4557 102.5,48.5C 103.192,47.9747 103.692,47.3081 104,46.5C 104.419,47.6721 105.085,48.6721 106,49.5C 107.401,47.8078 109.234,47.1412 111.5,47.5C 111.351,46.448 111.517,45.448 112,44.5C 112.317,46.3008 112.984,46.6341 114,45.5C 113.674,49.4695 113.674,53.4695 114,57.5C 114.383,56.944 114.883,56.6107 115.5,56.5 Z"/></g>
<g><path style="opacity:1" fill="#e4b1a5" d="M 77.5,26.5 C 78.578,37.7697 78.578,49.103 77.5,60.5C 76.5386,62.2646 76.2053,64.2646 76.5,66.5C 75.8418,65.2067 75.5085,63.7067 75.5,62C 76.1214,52.1601 76.7881,42.3267 77.5,32.5C 77.597,29.0886 75.9304,27.7553 72.5,28.5C 71.3197,34.8473 70.3197,41.1806 69.5,47.5C 69.5,44.8333 69.5,42.1667 69.5,39.5C 69.5,38.1667 69.5,36.8333 69.5,35.5C 70.9238,33.4855 71.5905,31.1522 71.5,28.5C 72.9899,26.7202 74.9899,26.0535 77.5,26.5 Z"/></g>
<g><path style="opacity:1" fill="#3a2d65" d="M 92.5,47.5 C 92.6653,51.1817 92.4986,54.8484 92,58.5C 91.3292,57.7476 90.4959,57.4142 89.5,57.5C 90.64,53.9007 91.14,50.234 91,46.5C 89.0466,43.5538 86.5466,42.8872 83.5,44.5C 85.5597,42.8463 88.0597,41.8463 91,41.5C 91.5046,43.5183 92.0046,45.5183 92.5,47.5 Z"/></g>
<g><path style="opacity:1" fill="#614454" d="M 65.5,41.5 C 65.1786,47.0262 65.5119,52.3595 66.5,57.5C 66.313,59.5643 65.813,61.5643 65,63.5C 64.1782,55.9882 64.3448,48.6549 65.5,41.5 Z"/></g>
<g><path style="opacity:1" fill="#4f3958" d="M 51.5,53.5 C 52.2679,54.2625 52.7679,55.2625 53,56.5C 53.2321,55.2625 53.7321,54.2625 54.5,53.5C 54.5,54.8333 54.5,56.1667 54.5,57.5C 53.6909,59.2922 53.1909,61.2922 53,63.5C 51.6842,60.3117 51.1842,56.9783 51.5,53.5 Z"/></g>
<g><path style="opacity:1" fill="#322b6a" d="M 41.5,26.5 C 40.5208,38.7533 40.1874,51.0867 40.5,63.5C 40.8235,70.0221 40.4902,76.3554 39.5,82.5C 38.3893,79.1443 36.7226,76.1443 34.5,73.5C 33.6916,70.5498 32.3582,67.8831 30.5,65.5C 32.1172,66.038 33.7839,66.3713 35.5,66.5C 35.5,65.5 35.5,64.5 35.5,63.5C 36.5,63.5 37.5,63.5 38.5,63.5C 38.5,52.1667 38.5,40.8333 38.5,29.5C 39.1001,28.0998 40.1001,27.0998 41.5,26.5 Z"/></g>
<g><path style="opacity:1" fill="#725b77" d="M 89.5,59.5 C 89.5905,62.1522 88.9238,64.4855 87.5,66.5C 87.4095,63.8478 88.0762,61.5145 89.5,59.5 Z"/></g>
<g><path style="opacity:1" fill="#e6b09e" d="M 65.5,29.5 C 65.5,33.5 65.5,37.5 65.5,41.5C 64.3448,48.6549 64.1782,55.9882 65,63.5C 65.813,61.5643 66.313,59.5643 66.5,57.5C 66.3284,56.5084 66.6618,55.8417 67.5,55.5C 67.8501,59.5463 67.1834,63.3797 65.5,67C 64.5509,67.6172 63.7175,67.4506 63,66.5C 62.8333,64.5 62.6667,62.5 62.5,60.5C 62.8381,49.9467 63.8381,39.6134 65.5,29.5 Z"/></g>
<g><path style="opacity:1" fill="#b88783" d="M 77.5,60.5 C 77.3379,62.5273 77.5045,64.5273 78,66.5C 78.2321,65.2625 78.7321,64.2625 79.5,63.5C 79.7529,65.8273 79.0863,67.8273 77.5,69.5C 76.6143,68.675 76.281,67.675 76.5,66.5C 76.2053,64.2646 76.5386,62.2646 77.5,60.5 Z"/></g>
<g><path style="opacity:1" fill="#fdb68b" d="M 84.5,85.5 C 83.1154,86.5736 81.9487,87.9069 81,89.5C 80.6667,89.1667 80.3333,88.8333 80,88.5C 79.2904,89.9733 78.1238,90.6399 76.5,90.5C 76.5,92.1667 76.5,93.8333 76.5,95.5C 78.9582,95.2275 80.6249,96.2275 81.5,98.5C 80.7376,98.9106 79.7376,99.0773 78.5,99C 76.6443,102.278 76.6443,105.778 78.5,109.5C 78.2547,111.663 77.2547,113.33 75.5,114.5C 75.1667,114 74.8333,113.5 74.5,113C 76.5197,110.379 76.853,107.545 75.5,104.5C 73.5753,104.837 72.0753,106.17 71,108.5C 70.0494,108.116 69.2161,107.783 68.5,107.5C 73.5735,101.913 75.9069,95.2459 75.5,87.5C 77.3904,87.7035 78.8904,87.0368 80,85.5C 81.1244,82.5576 81.4577,79.5576 81,76.5C 77.039,73.7285 74.539,74.7285 73.5,79.5C 72.1667,79.1667 70.8333,78.8333 69.5,78.5C 69.8333,77.8333 70.1667,77.1667 70.5,76.5C 73.6033,74.2817 76.9366,72.615 80.5,71.5C 80.7751,63.4615 81.4417,55.4615 82.5,47.5C 83.8195,46.0582 85.4862,45.3915 87.5,45.5C 87.9416,47.9719 88.275,50.4719 88.5,53C 85.9415,63.5982 84.6082,74.4315 84.5,85.5 Z"/></g>
<g><path style="opacity:1" fill="#fdd4a0" d="M 53.5,74.5 C 58.8196,75.963 64.153,77.2964 69.5,78.5C 70.8333,78.8333 72.1667,79.1667 73.5,79.5C 72.4324,80.4345 71.099,80.7678 69.5,80.5C 65.2383,79.2762 60.905,77.9428 56.5,76.5C 55.6143,77.325 55.281,78.325 55.5,79.5C 53.5,79.5 51.5,79.5 49.5,79.5C 49.5,77.8333 49.5,76.1667 49.5,74.5C 50.8333,74.5 52.1667,74.5 53.5,74.5 Z"/></g>
<g><path style="opacity:1" fill="#242468" d="M 2.5,63.5 C 2.33449,67.5138 2.50115,71.5138 3,75.5C 3.41395,75.0426 3.91395,74.7093 4.5,74.5C 4.83333,75.8333 5.16667,77.1667 5.5,78.5C 4.96032,84.3578 4.96032,90.0245 5.5,95.5C 2.33307,84.8721 1.33307,74.2055 2.5,63.5 Z"/></g>
<g><path style="opacity:1" fill="#2a2b7c" d="M 117.5,99.5 C 116.178,99.67 115.011,99.3366 114,98.5C 113.667,95.1667 113.333,91.8333 113,88.5C 111.041,90.5256 110.207,92.6922 110.5,95C 109.584,95.3742 108.75,95.8742 108,96.5C 105.781,96.0599 103.281,95.3932 100.5,94.5C 98.2525,95.4056 96.2525,96.7389 94.5,98.5C 93.3554,97.2243 93.3554,95.891 94.5,94.5C 94.1084,92.1286 93.1084,91.4619 91.5,92.5C 90.606,88.5435 90.7727,84.5435 92,80.5C 93.1356,83.0964 93.969,85.763 94.5,88.5C 95.5,88.5 96.5,88.5 97.5,88.5C 98.8503,89.4831 99.8503,90.8164 100.5,92.5C 101.648,90.8513 102.981,89.3513 104.5,88C 102.513,86.6811 101.346,84.8477 101,82.5C 100.502,84.5444 99.335,85.8777 97.5,86.5C 97.5858,85.5041 97.2524,84.6708 96.5,84C 99.0439,81.9074 102.044,80.9074 105.5,81C 104.294,79.9823 104.627,79.4823 106.5,79.5C 108.043,81.1467 109.71,81.98 111.5,82C 109.655,83.128 107.655,83.628 105.5,83.5C 105.187,86.2469 105.52,88.9135 106.5,91.5C 107.646,90.8551 108.646,90.0217 109.5,89C 109.034,87.7012 109.034,86.2012 109.5,84.5C 110.833,84.5 112.167,84.5 113.5,84.5C 113.006,75.0141 113.673,65.6808 115.5,56.5C 115.951,51.6944 116.618,51.5278 117.5,56C 116.622,61.138 116.622,66.3047 117.5,71.5C 117.203,74.914 116.536,78.2473 115.5,81.5C 118.068,85.3533 118.068,89.1866 115.5,93C 116.618,95.059 117.285,97.2257 117.5,99.5 Z"/></g>
<g><path style="opacity:1" fill="#292a76" d="M 8.5,39.5 C 8.5751,42.2062 8.90843,44.8728 9.5,47.5C 10.8333,47.5 12.1667,47.5 13.5,47.5C 13.5,52.8333 13.5,58.1667 13.5,63.5C 12.8333,63.5 12.1667,63.5 11.5,63.5C 11.7662,59.3951 11.2662,55.3951 10,51.5C 8.20171,56.8098 7.20171,56.4764 7,50.5C 6.83333,51.6667 6.66667,52.8333 6.5,54C 7.39527,56.8202 8.2286,59.6536 9,62.5C 9.07569,69.9799 10.0757,77.3132 12,84.5C 12.3333,84.1667 12.6667,83.8333 13,83.5C 13.6667,86.8333 13.6667,90.1667 13,93.5C 9.68829,95.1214 8.18829,97.788 8.5,101.5C 7.51385,99.5739 6.51385,97.5739 5.5,95.5C 4.96032,90.0245 4.96032,84.3578 5.5,78.5C 5.16667,77.1667 4.83333,75.8333 4.5,74.5C 3.91395,74.7093 3.41395,75.0426 3,75.5C 2.50115,71.5138 2.33449,67.5138 2.5,63.5C 2.64232,54.9304 4.64232,46.9304 8.5,39.5 Z"/></g>
<g><path style="opacity:1" fill="#8b718a" d="M 40.5,63.5 C 40.8333,63.5 41.1667,63.5 41.5,63.5C 41.6663,70.5079 41.4996,77.5079 41,84.5C 40.2828,83.9558 39.7828,83.2891 39.5,82.5C 40.4902,76.3554 40.8235,70.0221 40.5,63.5 Z"/></g>
<g><path style="opacity:1" fill="#fac48f" d="M 68.5,107.5 C 66.5096,109.163 64.843,111.163 63.5,113.5C 58.6819,115.334 56.0152,113.668 55.5,108.5C 56.1276,103.962 54.6276,100.295 51,97.5C 50.2904,98.9733 49.1238,99.6399 47.5,99.5C 47.5,98.5 47.5,97.5 47.5,96.5C 49.1667,96.5 50.8333,96.5 52.5,96.5C 52.5,94.8333 52.5,93.1667 52.5,91.5C 53.8469,94.663 55.0136,97.9963 56,101.5C 59.7775,108.129 63.4442,108.129 67,101.5C 67.7881,98.2281 67.2881,95.2281 65.5,92.5C 66.8149,93.4756 68.1482,94.4756 69.5,95.5C 70.6446,94.2243 70.6446,92.891 69.5,91.5C 70.9587,89.417 72.2921,87.2503 73.5,85C 71.3645,84.1237 70.0312,82.6237 69.5,80.5C 71.099,80.7678 72.4324,80.4345 73.5,79.5C 74.539,74.7285 77.039,73.7285 81,76.5C 81.4577,79.5576 81.1244,82.5576 80,85.5C 78.8904,87.0368 77.3904,87.7035 75.5,87.5C 75.9069,95.2459 73.5735,101.913 68.5,107.5 Z"/></g>
<g><path style="opacity:1" fill="#feefc5" d="M 76.5,78.5 C 79.3892,78.999 80.0558,80.499 78.5,83C 77.552,83.4828 76.552,83.6495 75.5,83.5C 75.366,81.7085 75.6993,80.0418 76.5,78.5 Z"/></g>
<g><path style="opacity:1" fill="#fcbd8b" d="M 53.5,74.5 C 52.1667,74.5 50.8333,74.5 49.5,74.5C 49.5,76.1667 49.5,77.8333 49.5,79.5C 51.5,79.5 53.5,79.5 55.5,79.5C 55.281,78.325 55.6143,77.325 56.5,76.5C 60.905,77.9428 65.2383,79.2762 69.5,80.5C 70.0312,82.6237 71.3645,84.1237 73.5,85C 72.2921,87.2503 70.9587,89.417 69.5,91.5C 70.6446,92.891 70.6446,94.2243 69.5,95.5C 68.1482,94.4756 66.8149,93.4756 65.5,92.5C 61.9673,89.8001 58.3006,87.3001 54.5,85C 53.0715,84.4209 51.7382,84.5876 50.5,85.5C 49.5255,86.635 48.3588,87.635 47,88.5C 46.6012,88.2716 46.4346,87.9382 46.5,87.5C 47.1054,82.5885 47.1054,77.5885 46.5,72.5C 48.934,71.7052 51.1006,71.0385 53,70.5C 53.49,71.7932 53.6567,73.1266 53.5,74.5 Z"/></g>
<g><path style="opacity:1" fill="#5f496f" d="M 87.5,71.5 C 87.1667,76.8333 86.8333,82.1667 86.5,87.5C 86.1667,87.5 85.8333,87.5 85.5,87.5C 85.2549,81.916 85.9216,76.5826 87.5,71.5 Z"/></g>
<g><path style="opacity:1" fill="#e4aea3" d="M 22.5,66.5 C 22.3398,68.1992 22.5065,69.8659 23,71.5C 27.9758,78.7316 31.1425,86.7316 32.5,95.5C 35.2906,100.117 38.2906,104.451 41.5,108.5C 38.3773,106.618 35.7106,104.285 33.5,101.5C 33.5,100.833 33.1667,100.5 32.5,100.5C 30.7561,90.2425 27.0895,80.9091 21.5,72.5C 21.2053,70.2646 21.5386,68.2646 22.5,66.5 Z"/></g>
<g><path style="opacity:1" fill="#fbb38f" d="M 30.5,65.5 C 32.3582,67.8831 33.6916,70.5498 34.5,73.5C 35.2497,77.4354 36.7497,81.102 39,84.5C 39.4974,87.146 39.6641,89.8127 39.5,92.5C 39.2436,94.7925 39.5769,96.9592 40.5,99C 42.0468,99.3334 43.3801,98.8334 44.5,97.5C 44.1064,99.4236 44.773,101.257 46.5,103C 48.2785,102.021 49.9452,102.354 51.5,104C 49.84,105.488 48.84,107.321 48.5,109.5C 47.1266,109.343 45.7932,109.51 44.5,110C 45.748,111.4 46.748,112.9 47.5,114.5C 44.6144,113.404 42.6144,111.404 41.5,108.5C 38.2906,104.451 35.2906,100.117 32.5,95.5C 31.1425,86.7316 27.9758,78.7316 23,71.5C 22.5065,69.8659 22.3398,68.1992 22.5,66.5C 23.1342,65.0532 24.3009,64.3866 26,64.5C 27.5328,64.7728 29.0328,65.1062 30.5,65.5 Z"/></g>
<g><path style="opacity:1" fill="#f3b49a" d="M 42.5,31.5 C 42.2266,51.856 42.5599,72.1894 43.5,92.5C 42.1667,92.5 40.8333,92.5 39.5,92.5C 39.6641,89.8127 39.4974,87.146 39,84.5C 36.7497,81.102 35.2497,77.4354 34.5,73.5C 36.7226,76.1443 38.3893,79.1443 39.5,82.5C 39.7828,83.2891 40.2828,83.9558 41,84.5C 41.4996,77.5079 41.6663,70.5079 41.5,63.5C 41.1722,52.6536 41.5056,41.9869 42.5,31.5 Z"/></g>
<g><path style="opacity:1" fill="#3f4cae" d="M 97.5,88.5 C 97.5,87.8333 97.5,87.1667 97.5,86.5C 99.335,85.8777 100.502,84.5444 101,82.5C 101.346,84.8477 102.513,86.6811 104.5,88C 102.981,89.3513 101.648,90.8513 100.5,92.5C 99.8503,90.8164 98.8503,89.4831 97.5,88.5 Z"/></g>
<g><path style="opacity:1" fill="#342e68" d="M 21.5,72.5 C 27.0895,80.9091 30.7561,90.2425 32.5,100.5C 30.5152,97.859 28.5152,95.1924 26.5,92.5C 25.4174,90.2083 25.4174,87.8749 26.5,85.5C 25.3866,83.2164 24.3866,80.8831 23.5,78.5C 22.5832,77.8728 21.5832,77.5394 20.5,77.5C 21.038,75.8828 21.3713,74.2161 21.5,72.5 Z"/></g>
<g><path style="opacity:1" fill="#fccf9e" d="M 50.5,85.5 C 50.2525,87.8583 50.9192,89.8583 52.5,91.5C 52.5,93.1667 52.5,94.8333 52.5,96.5C 50.8333,96.5 49.1667,96.5 47.5,96.5C 45.3665,93.6543 45.0332,90.6543 46.5,87.5C 46.4346,87.9382 46.6012,88.2716 47,88.5C 48.3588,87.635 49.5255,86.635 50.5,85.5 Z"/></g>
<g><path style="opacity:1" fill="#2a2b7b" d="M 11.5,63.5 C 12.3909,64.2613 13.0576,65.2613 13.5,66.5C 12.824,71.1356 12.9907,75.8022 14,80.5C 14.3678,79.09 15.2011,78.09 16.5,77.5C 17.7609,79.5618 17.2609,81.2285 15,82.5C 14.51,83.7932 14.3433,85.1266 14.5,86.5C 15.5,86.5 16.5,86.5 17.5,86.5C 18.2125,83.4073 19.2125,80.4073 20.5,77.5C 21.5832,77.5394 22.5832,77.8728 23.5,78.5C 24.3866,80.8831 25.3866,83.2164 26.5,85.5C 25.4174,87.8749 25.4174,90.2083 26.5,92.5C 28.5152,95.1924 30.5152,97.859 32.5,100.5C 33.1667,100.5 33.5,100.833 33.5,101.5C 33.422,107.75 36.422,111.083 42.5,111.5C 42.4488,115.984 40.6154,116.65 37,113.5C 36.5502,119.577 39.3835,122.243 45.5,121.5C 45.9215,124.657 44.7548,126.99 42,128.5C 41.2646,124.931 39.0979,122.931 35.5,122.5C 33.981,121.149 32.6477,119.649 31.5,118C 36.1383,114.314 35.4716,112.647 29.5,113C 28.9288,111.795 28.2621,110.628 27.5,109.5C 26.646,110.522 25.646,111.355 24.5,112C 26.303,115.103 28.4697,117.937 31,120.5C 31.4935,122.134 31.6602,123.801 31.5,125.5C 32.8333,125.5 34.1667,125.5 35.5,125.5C 35.5,126.5 35.5,127.5 35.5,128.5C 33.4352,128.483 31.4352,128.15 29.5,127.5C 28.0401,125.537 26.3734,123.704 24.5,122C 24.8333,121.667 25.1667,121.333 25.5,121C 23.6025,120.1 21.9358,118.934 20.5,117.5C 21.5,116.833 22.5,116.167 23.5,115.5C 22.8333,114.5 22.1667,113.5 21.5,112.5C 22.9526,109.549 24.9526,107.049 27.5,105C 25.9005,103.934 24.9005,102.434 24.5,100.5C 24,100.167 23.5,99.8333 23,99.5C 21.3021,101.033 19.4688,102.366 17.5,103.5C 16.5581,103.392 15.7247,103.059 15,102.5C 14.6322,103.91 13.7989,104.91 12.5,105.5C 11.3331,103.921 9.99981,102.588 8.5,101.5C 8.18829,97.788 9.68829,95.1214 13,93.5C 13.6667,90.1667 13.6667,86.8333 13,83.5C 12.6667,83.8333 12.3333,84.1667 12,84.5C 10.0757,77.3132 9.07569,69.9799 9,62.5C 8.2286,59.6536 7.39527,56.8202 6.5,54C 6.66667,52.8333 6.83333,51.6667 7,50.5C 7.20171,56.4764 8.20171,56.8098 10,51.5C 11.2662,55.3951 11.7662,59.3951 11.5,63.5 Z"/></g>
<g><path style="opacity:1" fill="#35285b" d="M 85.5,87.5 C 85.8333,87.5 86.1667,87.5 86.5,87.5C 86.5,91.1667 86.5,94.8333 86.5,98.5C 85.5,100.5 84.5,102.5 83.5,104.5C 85.0215,98.9548 85.6882,93.2881 85.5,87.5 Z"/></g>
<g><path style="opacity:1" fill="#292b77" d="M 117.5,99.5 C 116.962,101.117 116.629,102.784 116.5,104.5C 115.617,107.704 113.95,110.371 111.5,112.5C 110.292,113.234 108.959,113.567 107.5,113.5C 107.5,112.5 107.5,111.5 107.5,110.5C 106.167,110.5 104.833,110.5 103.5,110.5C 103.719,111.675 103.386,112.675 102.5,113.5C 101.032,115.333 99.3649,115.666 97.5,114.5C 98.6446,113.109 98.6446,111.776 97.5,110.5C 95.5914,111.348 93.5914,111.682 91.5,111.5C 92.2422,109.406 92.9089,107.239 93.5,105C 93.6069,100.553 92.7736,100.386 91,104.5C 90.6667,104.167 90.3333,103.833 90,103.5C 90.1353,100.246 89.9686,97.0797 89.5,94C 90.0442,93.2828 90.7109,92.7828 91.5,92.5C 93.1084,91.4619 94.1084,92.1286 94.5,94.5C 93.3554,95.891 93.3554,97.2243 94.5,98.5C 96.2525,96.7389 98.2525,95.4056 100.5,94.5C 103.281,95.3932 105.781,96.0599 108,96.5C 108.75,95.8742 109.584,95.3742 110.5,95C 110.207,92.6922 111.041,90.5256 113,88.5C 113.333,91.8333 113.667,95.1667 114,98.5C 115.011,99.3366 116.178,99.67 117.5,99.5 Z"/></g>
<g><path style="opacity:1" fill="#fdb78c" d="M 65.5,92.5 C 67.2881,95.2281 67.7881,98.2281 67,101.5C 63.4442,108.129 59.7775,108.129 56,101.5C 55.0136,97.9963 53.8469,94.663 52.5,91.5C 50.9192,89.8583 50.2525,87.8583 50.5,85.5C 51.7382,84.5876 53.0715,84.4209 54.5,85C 58.3006,87.3001 61.9673,89.8001 65.5,92.5 Z"/></g>
<g><path style="opacity:1" fill="#272872" d="M 29.5,127.5 C 19.6545,121.148 12.6545,112.482 8.5,101.5C 9.99981,102.588 11.3331,103.921 12.5,105.5C 13.7989,104.91 14.6322,103.91 15,102.5C 15.7247,103.059 16.5581,103.392 17.5,103.5C 19.4688,102.366 21.3021,101.033 23,99.5C 23.5,99.8333 24,100.167 24.5,100.5C 24.9005,102.434 25.9005,103.934 27.5,105C 24.9526,107.049 22.9526,109.549 21.5,112.5C 22.1667,113.5 22.8333,114.5 23.5,115.5C 22.5,116.167 21.5,116.833 20.5,117.5C 21.9358,118.934 23.6025,120.1 25.5,121C 25.1667,121.333 24.8333,121.667 24.5,122C 26.3734,123.704 28.0401,125.537 29.5,127.5 Z"/></g>
<g><path style="opacity:1" fill="#fdb68c" d="M 53.5,68.5 C 54.1174,68.3893 54.6174,68.056 55,67.5C 56.8338,74.341 61.1671,76.6743 68,74.5C 69.3756,74.6842 70.2089,75.3509 70.5,76.5C 70.1667,77.1667 69.8333,77.8333 69.5,78.5C 64.153,77.2964 58.8196,75.963 53.5,74.5C 53.6567,73.1266 53.49,71.7932 53,70.5C 51.1006,71.0385 48.934,71.7052 46.5,72.5C 47.1054,77.5885 47.1054,82.5885 46.5,87.5C 45.0332,90.6543 45.3665,93.6543 47.5,96.5C 47.5,97.5 47.5,98.5 47.5,99.5C 49.1238,99.6399 50.2904,98.9733 51,97.5C 54.6276,100.295 56.1276,103.962 55.5,108.5C 53.1985,107.14 51.5318,107.807 50.5,110.5C 49.8165,110.137 49.1499,109.804 48.5,109.5C 48.84,107.321 49.84,105.488 51.5,104C 49.9452,102.354 48.2785,102.021 46.5,103C 44.773,101.257 44.1064,99.4236 44.5,97.5C 43.3801,98.8334 42.0468,99.3334 40.5,99C 39.5769,96.9592 39.2436,94.7925 39.5,92.5C 40.8333,92.5 42.1667,92.5 43.5,92.5C 42.5599,72.1894 42.2266,51.856 42.5,31.5C 42.5,30.1667 42.5,28.8333 42.5,27.5C 44.4286,27.2308 46.0953,27.7308 47.5,29C 46.3463,29.9138 46.513,30.7471 48,31.5C 48.9059,43.5081 49.9059,55.5081 51,67.5C 51.6008,69.3588 52.4341,69.6921 53.5,68.5 Z"/></g>
<g><path style="opacity:1" fill="#fcb48f" d="M 84.5,85.5 C 82.7502,91.6151 82.0835,97.9484 82.5,104.5C 81.4933,108.006 79.9933,111.339 78,114.5C 77.5003,122.159 77.3336,129.826 77.5,137.5C 75.3736,138.048 73.3736,138.715 71.5,139.5C 66.1667,139.5 60.8333,139.5 55.5,139.5C 52.997,138.629 50.3303,137.963 47.5,137.5C 47.5,129.833 47.5,122.167 47.5,114.5C 46.748,112.9 45.748,111.4 44.5,110C 45.7932,109.51 47.1266,109.343 48.5,109.5C 49.1499,109.804 49.8165,110.137 50.5,110.5C 51.5318,107.807 53.1985,107.14 55.5,108.5C 56.0152,113.668 58.6819,115.334 63.5,113.5C 64.843,111.163 66.5096,109.163 68.5,107.5C 69.2161,107.783 70.0494,108.116 71,108.5C 72.0753,106.17 73.5753,104.837 75.5,104.5C 76.853,107.545 76.5197,110.379 74.5,113C 74.8333,113.5 75.1667,114 75.5,114.5C 77.2547,113.33 78.2547,111.663 78.5,109.5C 76.6443,105.778 76.6443,102.278 78.5,99C 79.7376,99.0773 80.7376,98.9106 81.5,98.5C 80.6249,96.2275 78.9582,95.2275 76.5,95.5C 76.5,93.8333 76.5,92.1667 76.5,90.5C 78.1238,90.6399 79.2904,89.9733 80,88.5C 80.3333,88.8333 80.6667,89.1667 81,89.5C 81.9487,87.9069 83.1154,86.5736 84.5,85.5 Z"/></g>
<g><path style="opacity:1" fill="#ffeec6" d="M 58.5,107.5 C 61.9103,107.384 63.2436,109.05 62.5,112.5C 59.5299,112.254 58.1966,110.588 58.5,107.5 Z"/></g>
<g><path style="opacity:1" fill="#2e2b73" d="M 86.5,98.5 C 87.1162,103.323 88.1162,107.99 89.5,112.5C 87.5714,112.231 85.9047,112.731 84.5,114C 85.4491,114.617 86.2825,114.451 87,113.5C 87.6838,114.784 87.5171,115.951 86.5,117C 88.4386,117.908 89.4386,119.408 89.5,121.5C 91.4918,121.328 93.1585,121.995 94.5,123.5C 98.713,119.907 103.046,116.574 107.5,113.5C 108.959,113.567 110.292,113.234 111.5,112.5C 103.49,125.189 92.1569,133.522 77.5,137.5C 77.3336,129.826 77.5003,122.159 78,114.5C 79.9933,111.339 81.4933,108.006 82.5,104.5C 82.8333,104.5 83.1667,104.5 83.5,104.5C 84.5,102.5 85.5,100.5 86.5,98.5 Z"/></g>
<g><path style="opacity:1" fill="#2f2e74" d="M 33.5,101.5 C 35.7106,104.285 38.3773,106.618 41.5,108.5C 42.6144,111.404 44.6144,113.404 47.5,114.5C 47.5,122.167 47.5,129.833 47.5,137.5C 40.7531,135.399 34.7531,132.066 29.5,127.5C 31.4352,128.15 33.4352,128.483 35.5,128.5C 35.5,127.5 35.5,126.5 35.5,125.5C 34.1667,125.5 32.8333,125.5 31.5,125.5C 31.6602,123.801 31.4935,122.134 31,120.5C 28.4697,117.937 26.303,115.103 24.5,112C 25.646,111.355 26.646,110.522 27.5,109.5C 28.2621,110.628 28.9288,111.795 29.5,113C 35.4716,112.647 36.1383,114.314 31.5,118C 32.6477,119.649 33.981,121.149 35.5,122.5C 39.0979,122.931 41.2646,124.931 42,128.5C 44.7548,126.99 45.9215,124.657 45.5,121.5C 39.3835,122.243 36.5502,119.577 37,113.5C 40.6154,116.65 42.4488,115.984 42.5,111.5C 36.422,111.083 33.422,107.75 33.5,101.5 Z"/></g>
</svg>
