<?xml version="1.0" encoding="UTF-8"?>
<!DOCTYPE svg PUBLIC "-//W3C//DTD SVG 1.1//EN" "http://www.w3.org/Graphics/SVG/1.1/DTD/svg11.dtd">
<svg xmlns="http://www.w3.org/2000/svg" version="1.1" width="125px" height="137px" style="shape-rendering:geometricPrecision; text-rendering:geometricPrecision; image-rendering:optimizeQuality; fill-rule:evenodd; clip-rule:evenodd" xmlns:xlink="http://www.w3.org/1999/xlink">
<g><path style="opacity:1" fill="#353165" d="M 71.5,0.5 C 74.9893,3.90086 79.3227,5.73419 84.5,6C 100.596,14.0963 111.763,26.5963 118,43.5C 123.142,61.7079 122.475,79.7079 116,97.5C 113.454,100.86 111.621,104.526 110.5,108.5C 109.833,107.833 109.167,107.167 108.5,106.5C 107.986,104.634 107.32,102.8 106.5,101C 109.291,96.9176 110.124,92.4176 109,87.5C 104.432,79.698 100.432,71.698 97,63.5C 96.5014,59.8484 96.3347,56.1817 96.5,52.5C 96.2493,49.091 96.5827,45.7577 97.5,42.5C 95.4495,38.0182 93.7828,33.3516 92.5,28.5C 89.0119,25.1778 85.6786,21.6778 82.5,18C 78.7023,17.0716 75.2023,15.5716 72,13.5C 71.6012,13.7284 71.4346,14.0618 71.5,14.5C 56.4451,11.3569 45.2784,16.3569 38,29.5C 36.0352,37.4039 36.2018,45.2373 38.5,53C 37.9389,54.676 36.9389,56.0094 35.5,57C 36.1461,63.636 35.1461,70.136 32.5,76.5C 32.8627,77.1835 33.1961,77.8501 33.5,78.5C 27.901,78.6958 22.401,79.3624 17,80.5C 16.198,82.5123 15.698,84.679 15.5,87C 16.9069,92.9698 17.5736,98.8032 17.5,104.5C 16.4019,105.397 16.4019,106.23 17.5,107C 16.9747,107.692 16.3081,108.192 15.5,108.5C 12.9018,105.945 10.4018,103.279 8,100.5C 5.33683,91.8633 2.5035,83.5299 -0.5,75.5C -0.5,70.5 -0.5,65.5 -0.5,60.5C 0.117425,60.6107 0.617425,60.944 1,61.5C 6.83354,21.4113 30.3335,1.07801 71.5,0.5 Z"/></g>
<g><path style="opacity:1" fill="#264591" d="M 71.5,14.5 C 74.1411,16.4535 77.1411,17.9535 80.5,19C 83.5678,22.6108 86.7344,26.1108 90,29.5C 93.2554,36.9947 95.4221,44.6614 96.5,52.5C 96.3347,56.1817 96.5014,59.8484 97,63.5C 100.432,71.698 104.432,79.698 109,87.5C 110.124,92.4176 109.291,96.9176 106.5,101C 107.32,102.8 107.986,104.634 108.5,106.5C 106.306,104.779 105.139,102.445 105,99.5C 102.118,98.6422 99.6182,97.1422 97.5,95C 93.5807,94.0837 89.7474,92.9171 86,91.5C 84.9889,92.0556 84.1556,92.7222 83.5,93.5C 82.4378,90.622 80.4378,88.622 77.5,87.5C 76.0147,83.944 76.348,80.6107 78.5,77.5C 78.8333,76.8333 79.1667,76.1667 79.5,75.5C 81.3115,73.6146 82.4782,71.2813 83,68.5C 84.3024,67.9152 85.469,67.2485 86.5,66.5C 91.5845,61.9998 92.5845,56.6664 89.5,50.5C 89.0296,49.3065 88.0296,48.6399 86.5,48.5C 82.6808,51.4301 79.3474,50.9301 76.5,47C 74.8659,46.5065 73.1992,46.3398 71.5,46.5C 71.1667,46.5 70.8333,46.5 70.5,46.5C 65.4685,41.5099 60.6352,36.1766 56,30.5C 52.4903,33.6834 49.3236,37.1834 46.5,41C 44.6854,41.7568 43.0188,42.5902 41.5,43.5C 40.3443,50.9887 40.1777,58.6554 41,66.5C 41.3903,69.1042 42.2237,71.4375 43.5,73.5C 43.9934,79.6816 46.9934,84.3483 52.5,87.5C 51.233,89.3171 49.8997,90.9837 48.5,92.5C 47.391,92.5569 46.391,92.8902 45.5,93.5C 44.5,93.5 43.5,93.5 42.5,93.5C 42.3108,89.0295 41.4775,84.6961 40,80.5C 38.2111,78.771 36.0444,78.1043 33.5,78.5C 33.1961,77.8501 32.8627,77.1835 32.5,76.5C 35.1461,70.136 36.1461,63.636 35.5,57C 36.9389,56.0094 37.9389,54.676 38.5,53C 36.2018,45.2373 36.0352,37.4039 38,29.5C 45.2784,16.3569 56.4451,11.3569 71.5,14.5 Z"/></g>
<g><path style="opacity:0.373" fill="#2c2a53" d="M 52.5,-0.5 C 58.8333,-0.5 65.1667,-0.5 71.5,-0.5C 71.5,-0.166667 71.5,0.166667 71.5,0.5C 30.3335,1.07801 6.83354,21.4113 1,61.5C 0.617425,60.944 0.117425,60.6107 -0.5,60.5C -0.5,57.5 -0.5,54.5 -0.5,51.5C 3.30793,37.127 10.9746,24.627 22.5,14C 31.3944,6.7184 41.3944,1.88506 52.5,-0.5 Z"/></g>
<g><path style="opacity:1" fill="#2e3673" d="M 96.5,52.5 C 95.4221,44.6614 93.2554,36.9947 90,29.5C 86.7344,26.1108 83.5678,22.6108 80.5,19C 77.1411,17.9535 74.1411,16.4535 71.5,14.5C 71.4346,14.0618 71.6012,13.7284 72,13.5C 75.2023,15.5716 78.7023,17.0716 82.5,18C 85.6786,21.6778 89.0119,25.1778 92.5,28.5C 93.7828,33.3516 95.4495,38.0182 97.5,42.5C 96.5827,45.7577 96.2493,49.091 96.5,52.5 Z"/></g>
<g><path style="opacity:0.129" fill="#2d2a53" d="M 71.5,0.5 C 91.2089,4.43336 106.042,15.1 116,32.5C 119.169,40.8414 122.002,49.1747 124.5,57.5C 124.5,63.8333 124.5,70.1667 124.5,76.5C 122.557,77.0783 122.223,78.0783 123.5,79.5C 121.353,88.9405 118.02,97.9405 113.5,106.5C 112.643,107.425 111.643,108.092 110.5,108.5C 111.621,104.526 113.454,100.86 116,97.5C 122.475,79.7079 123.142,61.7079 118,43.5C 111.763,26.5963 100.596,14.0963 84.5,6C 79.3227,5.73419 74.9893,3.90086 71.5,0.5 Z"/></g>
<g><path style="opacity:1" fill="#fbcdab" d="M 59.5,37.5 C 60.4345,38.5676 60.7678,39.901 60.5,41.5C 62.6348,41.147 63.9681,41.9803 64.5,44C 63.7259,46.1542 63.0592,48.3208 62.5,50.5C 64.3002,52.0504 66.4668,53.0504 69,53.5C 70.8138,52.2404 72.6471,52.2404 74.5,53.5C 71.0108,56.0882 67.5108,56.0882 64,53.5C 63.586,53.9574 63.086,54.2907 62.5,54.5C 60.8816,52.684 58.8816,51.3507 56.5,50.5C 55.0499,49.1502 54.3832,47.4835 54.5,45.5C 52.8333,45.5 51.1667,45.5 49.5,45.5C 49.5,44.1667 49.5,42.8333 49.5,41.5C 53.3899,41.3701 56.7233,40.0367 59.5,37.5 Z"/></g>
<g><path style="opacity:1" fill="#d6beb8" d="M 70.5,46.5 C 68.5,46.5 66.5,46.5 64.5,46.5C 64.5,47.5 64.5,48.5 64.5,49.5C 67.5,49.5 70.5,49.5 73.5,49.5C 75.0012,48.5573 76.3346,48.8906 77.5,50.5C 72.4859,51.7694 67.4859,51.7694 62.5,50.5C 63.0592,48.3208 63.7259,46.1542 64.5,44C 63.9681,41.9803 62.6348,41.147 60.5,41.5C 60.7678,39.901 60.4345,38.5676 59.5,37.5C 58.1986,36.36 57.0319,35.0267 56,33.5C 52.842,35.9571 50.0086,38.7905 47.5,42C 45.9194,42.7065 44.4194,43.5399 43,44.5C 42.235,46.0657 42.4017,47.3991 43.5,48.5C 43.5,49.1667 43.5,49.8333 43.5,50.5C 42.5151,54.6344 42.1818,58.9677 42.5,63.5C 41.5093,57.021 41.176,50.3543 41.5,43.5C 43.0188,42.5902 44.6854,41.7568 46.5,41C 49.3236,37.1834 52.4903,33.6834 56,30.5C 60.6352,36.1766 65.4685,41.5099 70.5,46.5 Z"/></g>
<g><path style="opacity:1" fill="#494455" d="M 43.5,50.5 C 43.5,49.8333 43.5,49.1667 43.5,48.5C 46.9132,45.9082 50.2465,45.9082 53.5,48.5C 50.2121,49.4453 46.8788,50.112 43.5,50.5 Z"/></g>
<g><path style="opacity:1" fill="#363850" d="M 70.5,46.5 C 70.8333,46.5 71.1667,46.5 71.5,46.5C 72.1667,47.5 72.8333,48.5 73.5,49.5C 70.5,49.5 67.5,49.5 64.5,49.5C 64.5,48.5 64.5,47.5 64.5,46.5C 66.5,46.5 68.5,46.5 70.5,46.5 Z"/></g>
<g><path style="opacity:1" fill="#4a5587" d="M 71.5,46.5 C 73.1992,46.3398 74.8659,46.5065 76.5,47C 79.3474,50.9301 82.6808,51.4301 86.5,48.5C 88.0296,48.6399 89.0296,49.3065 89.5,50.5C 87.5853,50.2155 85.9187,50.5489 84.5,51.5C 82.1231,52.6721 79.7898,52.3388 77.5,50.5C 76.3346,48.8906 75.0012,48.5573 73.5,49.5C 72.8333,48.5 72.1667,47.5 71.5,46.5 Z"/></g>
<g><path style="opacity:1" fill="#cebcbd" d="M 84.5,51.5 C 85.9187,50.5489 87.5853,50.2155 89.5,50.5C 92.5845,56.6664 91.5845,61.9998 86.5,66.5C 84.8333,66.5 83.1667,66.5 81.5,66.5C 81.2444,69.5979 80.5778,72.5979 79.5,75.5C 79.1667,76.1667 78.8333,76.8333 78.5,77.5C 78.1667,77.5 77.8333,77.5 77.5,77.5C 78.7468,73.2853 79.5802,68.952 80,64.5C 82.8331,65.8696 85.4998,65.5363 88,63.5C 88.6946,61.2779 89.5279,59.1113 90.5,57C 90.101,55.2725 89.4343,53.7725 88.5,52.5C 87.4324,51.5655 86.099,51.2322 84.5,51.5 Z"/></g>
<g><path style="opacity:1" fill="#f1cbb2" d="M 59.5,37.5 C 56.7233,40.0367 53.3899,41.3701 49.5,41.5C 49.5,42.8333 49.5,44.1667 49.5,45.5C 51.1667,45.5 52.8333,45.5 54.5,45.5C 54.3832,47.4835 55.0499,49.1502 56.5,50.5C 58.8816,51.3507 60.8816,52.684 62.5,54.5C 63.086,54.2907 63.586,53.9574 64,53.5C 67.5108,56.0882 71.0108,56.0882 74.5,53.5C 72.6471,52.2404 70.8138,52.2404 69,53.5C 66.4668,53.0504 64.3002,52.0504 62.5,50.5C 67.4859,51.7694 72.4859,51.7694 77.5,50.5C 79.7898,52.3388 82.1231,52.6721 84.5,51.5C 86.099,51.2322 87.4324,51.5655 88.5,52.5C 84.5276,53.1082 80.5276,53.6082 76.5,54C 75.8122,56.9292 74.8122,59.7625 73.5,62.5C 71.3432,61.9495 69.3432,61.2829 67.5,60.5C 69.9124,60.756 71.5791,59.756 72.5,57.5C 69.9721,58.1096 67.6388,57.4429 65.5,55.5C 64.6851,56.4293 63.8518,57.4293 63,58.5C 62.6667,57.5 62.3333,56.5 62,55.5C 61.1191,58.0139 59.6191,60.0139 57.5,61.5C 58.3897,59.2181 58.5564,56.8848 58,54.5C 55.5178,58.4513 54.3511,62.7846 54.5,67.5C 53.2616,65.7857 52.595,63.7857 52.5,61.5C 50.2646,61.7947 48.2646,61.4614 46.5,60.5C 45.2132,61.8714 44.5465,63.7047 44.5,66C 44.4835,68.9709 45.4835,71.4709 47.5,73.5C 48.2811,72.2713 48.7811,70.938 49,69.5C 49.2734,71.1012 49.7734,72.6012 50.5,74C 48.5403,76.6873 48.207,79.5206 49.5,82.5C 47.1356,79.7339 45.1356,76.7339 43.5,73.5C 42.9492,70.1933 42.6159,66.8599 42.5,63.5C 42.1818,58.9677 42.5151,54.6344 43.5,50.5C 46.8788,50.112 50.2121,49.4453 53.5,48.5C 50.2465,45.9082 46.9132,45.9082 43.5,48.5C 42.4017,47.3991 42.235,46.0657 43,44.5C 44.4194,43.5399 45.9194,42.7065 47.5,42C 50.0086,38.7905 52.842,35.9571 56,33.5C 57.0319,35.0267 58.1986,36.36 59.5,37.5 Z"/></g>
<g><path style="opacity:1" fill="#5f6589" d="M 41.5,43.5 C 41.176,50.3543 41.5093,57.021 42.5,63.5C 42.6159,66.8599 42.9492,70.1933 43.5,73.5C 42.2237,71.4375 41.3903,69.1042 41,66.5C 40.1777,58.6554 40.3443,50.9887 41.5,43.5 Z"/></g>
<g><path style="opacity:1" fill="#434152" d="M 46.5,60.5 C 45.3336,58.834 45.3336,57.1673 46.5,55.5C 48.1667,58.1667 49.8333,58.1667 51.5,55.5C 52.4006,59.2717 50.734,60.9384 46.5,60.5 Z"/></g>
<g><path style="opacity:1" fill="#bf987f" d="M 57.5,61.5 C 56.6993,63.0418 56.366,64.7085 56.5,66.5C 58.288,66.2148 59.9547,66.5481 61.5,67.5C 59.0268,68.7969 56.6934,68.7969 54.5,67.5C 54.3511,62.7846 55.5178,58.4513 58,54.5C 58.5564,56.8848 58.3897,59.2181 57.5,61.5 Z"/></g>
<g><path style="opacity:1" fill="#4e5780" d="M 86.5,66.5 C 85.469,67.2485 84.3024,67.9152 83,68.5C 82.4782,71.2813 81.3115,73.6146 79.5,75.5C 80.5778,72.5979 81.2444,69.5979 81.5,66.5C 83.1667,66.5 84.8333,66.5 86.5,66.5 Z"/></g>
<g><path style="opacity:1" fill="#facdad" d="M 88.5,52.5 C 89.4343,53.7725 90.101,55.2725 90.5,57C 89.5279,59.1113 88.6946,61.2779 88,63.5C 85.4998,65.5363 82.8331,65.8696 80,64.5C 79.5802,68.952 78.7468,73.2853 77.5,77.5C 76.3995,78.6049 75.7329,79.9382 75.5,81.5C 69.9931,85.8902 63.6598,87.8902 56.5,87.5C 56.67,86.1779 56.3366,85.0113 55.5,84C 53.4817,83.4954 51.4817,82.9954 49.5,82.5C 48.207,79.5206 48.5403,76.6873 50.5,74C 49.7734,72.6012 49.2734,71.1012 49,69.5C 48.7811,70.938 48.2811,72.2713 47.5,73.5C 45.4835,71.4709 44.4835,68.9709 44.5,66C 44.5465,63.7047 45.2132,61.8714 46.5,60.5C 48.2646,61.4614 50.2646,61.7947 52.5,61.5C 52.595,63.7857 53.2616,65.7857 54.5,67.5C 56.6934,68.7969 59.0268,68.7969 61.5,67.5C 59.9547,66.5481 58.288,66.2148 56.5,66.5C 56.366,64.7085 56.6993,63.0418 57.5,61.5C 59.6191,60.0139 61.1191,58.0139 62,55.5C 62.3333,56.5 62.6667,57.5 63,58.5C 63.8518,57.4293 64.6851,56.4293 65.5,55.5C 65.4021,57.5529 66.0687,59.2196 67.5,60.5C 69.3432,61.2829 71.3432,61.9495 73.5,62.5C 74.8122,59.7625 75.8122,56.9292 76.5,54C 80.5276,53.6082 84.5276,53.1082 88.5,52.5 Z"/></g>
<g><path style="opacity:1" fill="#36364e" d="M 65.5,55.5 C 67.6388,57.4429 69.9721,58.1096 72.5,57.5C 71.5791,59.756 69.9124,60.756 67.5,60.5C 66.0687,59.2196 65.4021,57.5529 65.5,55.5 Z"/></g>
<g><path style="opacity:1" fill="#d7bdb0" d="M 63.5,74.5 C 64.7911,75.5417 64.7911,76.7083 63.5,78C 60.1667,78.6667 56.8333,78.6667 53.5,78C 52.6198,76.6439 52.2865,75.1439 52.5,73.5C 56.3714,73.185 60.0381,73.5184 63.5,74.5 Z"/></g>
<g><path style="opacity:1" fill="#423d4b" d="M 63.5,74.5 C 63.3893,75.1174 63.056,75.6174 62.5,76C 59.7728,76.8184 57.1062,76.6517 54.5,75.5C 57.4281,74.5159 60.4281,74.1826 63.5,74.5 Z"/></g>
<g><path style="opacity:1" fill="#1e2c5f" d="M 33.5,78.5 C 36.0444,78.1043 38.2111,78.771 40,80.5C 41.4775,84.6961 42.3108,89.0295 42.5,93.5C 43.5379,102.174 43.5379,110.841 42.5,119.5C 39.1792,120.26 35.8459,120.926 32.5,121.5C 32.5,120.833 32.5,120.167 32.5,119.5C 33.1239,119.083 33.4573,118.416 33.5,117.5C 32.126,114.638 31.126,111.638 30.5,108.5C 30.4701,107.503 30.9701,106.836 32,106.5C 33.605,107.101 34.9384,108.101 36,109.5C 37.7746,105.857 39.608,102.19 41.5,98.5C 38.9896,95.4602 36.4896,92.4602 34,89.5C 31.7116,89.7375 29.2116,89.7375 26.5,89.5C 26.6621,91.5273 26.4955,93.5273 26,95.5C 24.841,94.434 24.0076,94.7673 23.5,96.5C 23.5,96.8333 23.5,97.1667 23.5,97.5C 22.7656,98.8775 22.0989,100.378 21.5,102C 22.448,102.483 23.448,102.649 24.5,102.5C 24.5,103.5 24.5,104.5 24.5,105.5C 23.0695,105.421 21.7362,105.754 20.5,106.5C 19.4822,105.807 18.4822,105.141 17.5,104.5C 17.5736,98.8032 16.9069,92.9698 15.5,87C 15.698,84.679 16.198,82.5123 17,80.5C 22.401,79.3624 27.901,78.6958 33.5,78.5 Z"/></g>
<g><path style="opacity:1" fill="#998fa1" d="M 77.5,77.5 C 77.8333,77.5 78.1667,77.5 78.5,77.5C 76.348,80.6107 76.0147,83.944 77.5,87.5C 76.0937,87.0269 75.427,86.0269 75.5,84.5C 75.5,83.5 75.5,82.5 75.5,81.5C 75.7329,79.9382 76.3995,78.6049 77.5,77.5 Z"/></g>
<g><path style="opacity:1" fill="#d9ae93" d="M 75.5,81.5 C 75.5,82.5 75.5,83.5 75.5,84.5C 72.6096,87.5526 69.2762,90.0526 65.5,92C 63.1667,92.6667 60.8333,92.6667 58.5,92C 57.5291,90.5187 56.1958,89.6854 54.5,89.5C 54.6495,88.448 54.4828,87.448 54,86.5C 52.0077,85.6719 50.5077,84.3386 49.5,82.5C 51.4817,82.9954 53.4817,83.4954 55.5,84C 56.3366,85.0113 56.67,86.1779 56.5,87.5C 63.6598,87.8902 69.9931,85.8902 75.5,81.5 Z"/></g>
<g><path style="opacity:1" fill="#3c4a7c" d="M 43.5,73.5 C 45.1356,76.7339 47.1356,79.7339 49.5,82.5C 50.5077,84.3386 52.0077,85.6719 54,86.5C 54.4828,87.448 54.6495,88.448 54.5,89.5C 52.7837,91.0248 50.7837,92.0248 48.5,92.5C 49.8997,90.9837 51.233,89.3171 52.5,87.5C 46.9934,84.3483 43.9934,79.6816 43.5,73.5 Z"/></g>
<g><path style="opacity:1" fill="#2c3053" d="M 30.5,108.5 C 30.1667,108.5 29.8333,108.5 29.5,108.5C 29.5,107.833 29.5,107.167 29.5,106.5C 31.0654,104.281 33.0654,103.948 35.5,105.5C 36.2309,103.599 36.2309,101.599 35.5,99.5C 37.1042,98.713 37.7709,97.3797 37.5,95.5C 35.8333,95.5 34.1667,95.5 32.5,95.5C 31.1333,90.3231 29.4666,90.3231 27.5,95.5C 26.3112,96.4287 24.9778,96.762 23.5,96.5C 24.0076,94.7673 24.841,94.434 26,95.5C 26.4955,93.5273 26.6621,91.5273 26.5,89.5C 29.2116,89.7375 31.7116,89.7375 34,89.5C 36.4896,92.4602 38.9896,95.4602 41.5,98.5C 39.608,102.19 37.7746,105.857 36,109.5C 34.9384,108.101 33.605,107.101 32,106.5C 30.9701,106.836 30.4701,107.503 30.5,108.5 Z"/></g>
<g><path style="opacity:1" fill="#dac3c2" d="M 54.5,89.5 C 53.7571,92.5696 51.7571,94.2363 48.5,94.5C 48.3398,96.1992 48.5065,97.8659 49,99.5C 51.7953,101.293 54.2953,103.46 56.5,106C 58.1667,106.667 59.8333,106.667 61.5,106C 62.9101,104.628 64.5767,103.795 66.5,103.5C 65.0582,104.82 64.3915,106.486 64.5,108.5C 63.1667,108.5 61.8333,108.5 60.5,108.5C 58.9142,107.852 57.2475,107.352 55.5,107C 51.8586,104.236 48.8586,101.069 46.5,97.5C 46.1667,96.1667 45.8333,94.8333 45.5,93.5C 46.391,92.8902 47.391,92.5569 48.5,92.5C 50.7837,92.0248 52.7837,91.0248 54.5,89.5 Z"/></g>
<g><path style="opacity:1" fill="#c4b485" d="M 32.5,95.5 C 34.1667,95.5 35.8333,95.5 37.5,95.5C 37.7709,97.3797 37.1042,98.713 35.5,99.5C 35.5,98.5 35.5,97.5 35.5,96.5C 34.209,96.7373 33.209,96.404 32.5,95.5 Z"/></g>
<g><path style="opacity:1" fill="#fbd472" d="M 32.5,95.5 C 33.209,96.404 34.209,96.7373 35.5,96.5C 35.5,97.5 35.5,98.5 35.5,99.5C 33.9655,101.412 31.9655,102.745 29.5,103.5C 25.391,99.2147 26.391,96.5481 32.5,95.5 Z"/></g>
<g><path style="opacity:1" fill="#f9ccaf" d="M 75.5,84.5 C 75.427,86.0269 76.0937,87.0269 77.5,87.5C 80.4378,88.622 82.4378,90.622 83.5,93.5C 83.0113,94.9952 82.3446,96.3285 81.5,97.5C 75.7091,97.5634 70.7091,99.5634 66.5,103.5C 64.5767,103.795 62.9101,104.628 61.5,106C 59.8333,106.667 58.1667,106.667 56.5,106C 54.2953,103.46 51.7953,101.293 49,99.5C 48.5065,97.8659 48.3398,96.1992 48.5,94.5C 51.7571,94.2363 53.7571,92.5696 54.5,89.5C 56.1958,89.6854 57.5291,90.5187 58.5,92C 60.8333,92.6667 63.1667,92.6667 65.5,92C 69.2762,90.0526 72.6096,87.5526 75.5,84.5 Z"/></g>
<g><path style="opacity:1" fill="#dac487" d="M 32.5,95.5 C 26.391,96.5481 25.391,99.2147 29.5,103.5C 31.9655,102.745 33.9655,101.412 35.5,99.5C 36.2309,101.599 36.2309,103.599 35.5,105.5C 33.0654,103.948 31.0654,104.281 29.5,106.5C 27.9724,105.198 26.9724,103.531 26.5,101.5C 24.7376,100.738 23.7376,99.4044 23.5,97.5C 23.5,97.1667 23.5,96.8333 23.5,96.5C 24.9778,96.762 26.3112,96.4287 27.5,95.5C 29.4666,90.3231 31.1333,90.3231 32.5,95.5 Z"/></g>
<g><path style="opacity:1" fill="#88b0fa" d="M 81.5,97.5 C 93.5909,100.573 99.5909,108.239 99.5,120.5C 99.5,120.833 99.5,121.167 99.5,121.5C 97.9095,123.633 95.9095,125.299 93.5,126.5C 92.1667,126.5 90.8333,126.5 89.5,126.5C 79.8333,126.5 70.1667,126.5 60.5,126.5C 60.0963,120.823 60.763,115.323 62.5,110C 61.5842,109.722 60.9175,109.222 60.5,108.5C 61.8333,108.5 63.1667,108.5 64.5,108.5C 64.3915,106.486 65.0582,104.82 66.5,103.5C 70.7091,99.5634 75.7091,97.5634 81.5,97.5 Z"/></g>
<g><path style="opacity:1" fill="#2f2e56" d="M -0.5,75.5 C 2.5035,83.5299 5.33683,91.8633 8,100.5C 10.4018,103.279 12.9018,105.945 15.5,108.5C 16.3081,108.192 16.9747,107.692 17.5,107C 16.4019,106.23 16.4019,105.397 17.5,104.5C 18.4822,105.141 19.4822,105.807 20.5,106.5C 21.7362,105.754 23.0695,105.421 24.5,105.5C 24.5,104.5 24.5,103.5 24.5,102.5C 23.448,102.649 22.448,102.483 21.5,102C 22.0989,100.378 22.7656,98.8775 23.5,97.5C 23.7376,99.4044 24.7376,100.738 26.5,101.5C 26.5,103.5 26.5,105.5 26.5,107.5C 23.8127,107.336 21.146,107.503 18.5,108C 17.944,108.383 17.6107,108.883 17.5,109.5C 16.1429,110.59 15.1429,111.924 14.5,113.5C 13.2876,111.094 11.4543,108.761 9,106.5C 5.50594,99.1437 2.33927,91.8103 -0.5,84.5C -0.5,81.5 -0.5,78.5 -0.5,75.5 Z"/></g>
<g><path style="opacity:1" fill="#5457d0" d="M 108.5,106.5 C 108.657,107.873 108.49,109.207 108,110.5C 105.331,114 102.498,117.333 99.5,120.5C 99.5909,108.239 93.5909,100.573 81.5,97.5C 82.3446,96.3285 83.0113,94.9952 83.5,93.5C 84.1556,92.7222 84.9889,92.0556 86,91.5C 89.7474,92.9171 93.5807,94.0837 97.5,95C 99.6182,97.1422 102.118,98.6422 105,99.5C 105.139,102.445 106.306,104.779 108.5,106.5 Z"/></g>
<g><path style="opacity:1" fill="#847770" d="M 26.5,101.5 C 26.9724,103.531 27.9724,105.198 29.5,106.5C 29.5,107.167 29.5,107.833 29.5,108.5C 25.4338,108.307 21.4338,108.64 17.5,109.5C 17.6107,108.883 17.944,108.383 18.5,108C 21.146,107.503 23.8127,107.336 26.5,107.5C 26.5,105.5 26.5,103.5 26.5,101.5 Z"/></g>
<g><path style="opacity:1" fill="#5456d0" d="M 46.5,97.5 C 48.8586,101.069 51.8586,104.236 55.5,107C 57.2475,107.352 58.9142,107.852 60.5,108.5C 60.9175,109.222 61.5842,109.722 62.5,110C 60.763,115.323 60.0963,120.823 60.5,126.5C 58.631,128.635 57.9644,131.302 58.5,134.5C 57.5,134.5 56.5,134.5 55.5,134.5C 48.9244,133.936 42.5911,132.603 36.5,130.5C 34.8867,128.912 32.8867,127.912 30.5,127.5C 30.1667,127.5 29.8333,127.5 29.5,127.5C 31.2294,126.764 32.2294,125.43 32.5,123.5C 36.3998,122.57 40.3998,122.237 44.5,122.5C 45.5369,113.978 45.2035,105.478 43.5,97C 43.6667,96.1667 43.8333,95.3333 44,94.5C 44.3768,95.9423 45.2101,96.9423 46.5,97.5 Z"/></g>
<g><path style="opacity:1" fill="#e2bfaa" d="M 29.5,108.5 C 29.8333,108.5 30.1667,108.5 30.5,108.5C 31.126,111.638 32.126,114.638 33.5,117.5C 33.4573,118.416 33.1239,119.083 32.5,119.5C 31.5489,120.919 31.2155,122.585 31.5,124.5C 29.8007,124.527 28.4674,125.194 27.5,126.5C 26.4726,124.806 25.1392,123.473 23.5,122.5C 23.1667,121.5 22.5,120.833 21.5,120.5C 19.8867,118.73 17.8867,117.564 15.5,117C 15.8333,116.667 16.1667,116.333 16.5,116C 15.6195,115.292 14.9528,114.458 14.5,113.5C 15.1429,111.924 16.1429,110.59 17.5,109.5C 21.4338,108.64 25.4338,108.307 29.5,108.5 Z"/></g>
<g><path style="opacity:0.275" fill="#444392" d="M 108.5,106.5 C 109.167,107.167 109.833,107.833 110.5,108.5C 108.363,113.783 105.03,118.116 100.5,121.5C 100.167,121.5 99.8333,121.5 99.5,121.5C 99.5,121.167 99.5,120.833 99.5,120.5C 102.498,117.333 105.331,114 108,110.5C 108.49,109.207 108.657,107.873 108.5,106.5 Z"/></g>
<g><path style="opacity:0.004" fill="#353558" d="M 21.5,120.5 C 22.5,120.833 23.1667,121.5 23.5,122.5C 22.1667,122.5 21.5,121.833 21.5,120.5 Z"/></g>
<g><path style="opacity:1" fill="#4c52b9" d="M 42.5,93.5 C 43.5,93.5 44.5,93.5 45.5,93.5C 45.8333,94.8333 46.1667,96.1667 46.5,97.5C 45.2101,96.9423 44.3768,95.9423 44,94.5C 43.8333,95.3333 43.6667,96.1667 43.5,97C 45.2035,105.478 45.5369,113.978 44.5,122.5C 40.3998,122.237 36.3998,122.57 32.5,123.5C 32.5,122.833 32.5,122.167 32.5,121.5C 35.8459,120.926 39.1792,120.26 42.5,119.5C 43.5379,110.841 43.5379,102.174 42.5,93.5 Z"/></g>
<g><path style="opacity:0.004" fill="#3d3d59" d="M 100.5,121.5 C 101.833,122.167 101.833,122.167 100.5,121.5 Z"/></g>
<g><path style="opacity:1" fill="#887fac" d="M 32.5,119.5 C 32.5,120.167 32.5,120.833 32.5,121.5C 32.5,122.167 32.5,122.833 32.5,123.5C 32.2294,125.43 31.2294,126.764 29.5,127.5C 28.5084,127.672 27.8417,127.338 27.5,126.5C 28.4674,125.194 29.8007,124.527 31.5,124.5C 31.2155,122.585 31.5489,120.919 32.5,119.5 Z"/></g>
<g><path style="opacity:0.125" fill="#45457e" d="M 30.5,127.5 C 32.8867,127.912 34.8867,128.912 36.5,130.5C 33.8952,130.379 31.8952,129.379 30.5,127.5 Z"/></g>
<g><path style="opacity:1" fill="#274695" d="M 60.5,126.5 C 70.1667,126.5 79.8333,126.5 89.5,126.5C 85.4387,129.7 80.772,131.867 75.5,133C 69.5187,133.983 63.5187,134.816 57.5,135.5C 56.5836,135.457 55.9169,135.124 55.5,134.5C 56.5,134.5 57.5,134.5 58.5,134.5C 57.9644,131.302 58.631,128.635 60.5,126.5 Z"/></g>
<g><path style="opacity:0.529" fill="#2f305b" d="M 89.5,126.5 C 90.8333,126.5 92.1667,126.5 93.5,126.5C 85.7807,131.406 77.4474,134.739 68.5,136.5C 63.8333,136.5 59.1667,136.5 54.5,136.5C 54.1667,135.167 53.8333,135.167 53.5,136.5C 53.1667,136.5 52.8333,136.5 52.5,136.5C 50.6568,135.717 48.6568,135.05 46.5,134.5C 45.914,134.709 45.414,135.043 45,135.5C 43.3155,133.299 41.3155,132.633 39,133.5C 37.955,132.627 37.1217,131.627 36.5,130.5C 42.5911,132.603 48.9244,133.936 55.5,134.5C 55.9169,135.124 56.5836,135.457 57.5,135.5C 63.5187,134.816 69.5187,133.983 75.5,133C 80.772,131.867 85.4387,129.7 89.5,126.5 Z"/></g>
</svg>
