<?xml version="1.0" encoding="UTF-8"?>
<!DOCTYPE svg PUBLIC "-//W3C//DTD SVG 1.1//EN" "http://www.w3.org/Graphics/SVG/1.1/DTD/svg11.dtd">
<svg xmlns="http://www.w3.org/2000/svg" version="1.1" width="126px" height="137px" style="shape-rendering:geometricPrecision; text-rendering:geometricPrecision; image-rendering:optimizeQuality; fill-rule:evenodd; clip-rule:evenodd" xmlns:xlink="http://www.w3.org/1999/xlink">
<g><path style="opacity:1" fill="#c24a21" d="M 59.5,-0.5 C 62.8333,-0.5 66.1667,-0.5 69.5,-0.5C 76.7621,1.12972 82.7621,4.79638 87.5,10.5C 88.7019,14.578 90.2019,18.578 92,22.5C 93.1485,29.785 92.3152,36.785 89.5,43.5C 88.0357,44.4054 86.7024,44.4054 85.5,43.5C 84.8333,42.5 84.1667,41.5 83.5,40.5C 83.1583,39.6618 82.4916,39.3284 81.5,39.5C 80.4566,36.9438 78.7899,34.7772 76.5,33C 71.897,29.7816 67.0637,26.9482 62,24.5C 56.1,27.8676 50.2667,31.3676 44.5,35C 42.2342,36.4264 40.5676,38.2598 39.5,40.5C 38.2223,40.7822 37.2223,41.4489 36.5,42.5C 33.271,38.2977 31.9377,33.4644 32.5,28C 32.6667,25.5 32.8333,23 33,20.5C 35.0906,17.2595 36.9239,13.9262 38.5,10.5C 44.5324,4.98382 51.5324,1.31716 59.5,-0.5 Z"/></g>
<g><path style="opacity:1" fill="#152b6b" d="M 38.5,10.5 C 36.9239,13.9262 35.0906,17.2595 33,20.5C 32.8333,23 32.6667,25.5 32.5,28C 31.9377,33.4644 33.271,38.2977 36.5,42.5C 36.5,42.8333 36.5,43.1667 36.5,43.5C 34.0777,44.6923 33.0777,46.6923 33.5,49.5C 33.5185,52.889 34.5185,55.889 36.5,58.5C 36.5,59.1667 36.8333,59.5 37.5,59.5C 37.2506,67.3404 39.2506,74.5071 43.5,81C 42.944,81.3826 42.6107,81.8826 42.5,82.5C 33.4435,85.0067 26.7768,90.34 22.5,98.5C 17.8092,97.4971 13.1425,96.4971 8.5,95.5C -2.10533,71.3178 0.0613396,48.6511 15,27.5C 21.6123,20.0409 29.4456,14.3743 38.5,10.5 Z"/></g>
<g><path style="opacity:1" fill="#142b6a" d="M 87.5,10.5 C 114.318,24.7989 125.818,47.1323 122,77.5C 120.521,86.7961 117.021,95.1294 111.5,102.5C 109.198,97.0182 105.864,92.1849 101.5,88C 94.5103,84.0043 87.177,80.8377 79.5,78.5C 82.0335,73.0966 83.7001,67.4299 84.5,61.5C 86.099,61.7678 87.4324,61.4345 88.5,60.5C 91.5916,57.4262 93.2583,53.5929 93.5,49C 93.8581,45.8665 92.5248,44.0332 89.5,43.5C 92.3152,36.785 93.1485,29.785 92,22.5C 90.2019,18.578 88.7019,14.578 87.5,10.5 Z"/></g>
<g><path style="opacity:1" fill="#eb8242" d="M 81.5,39.5 C 81.5,42.1667 81.5,44.8333 81.5,47.5C 81.2697,52.8832 79.7697,57.8832 77,62.5C 76.2613,63.5742 75.2613,64.2409 74,64.5C 71.8439,63.0149 69.6772,61.5149 67.5,60C 64.0971,59.2619 60.9304,59.7619 58,61.5C 55.4638,60.9614 53.1305,59.9614 51,58.5C 47.5549,59.1087 44.7216,60.7754 42.5,63.5C 41.0482,61.3585 40.0482,59.0252 39.5,56.5C 39.5,51.1667 39.5,45.8333 39.5,40.5C 40.5676,38.2598 42.2342,36.4264 44.5,35C 50.2667,31.3676 56.1,27.8676 62,24.5C 67.0637,26.9482 71.897,29.7816 76.5,33C 78.7899,34.7772 80.4566,36.9438 81.5,39.5 Z"/></g>
<g><path style="opacity:1" fill="#252536" d="M 44.5,37.5 C 47.8066,37.0632 50.8066,37.7298 53.5,39.5C 50.1637,40.2396 46.8304,40.9062 43.5,41.5C 43.1667,41.1667 42.8333,40.8333 42.5,40.5C 43.1925,39.4822 43.8592,38.4822 44.5,37.5 Z"/></g>
<g><path style="opacity:1" fill="#2d2835" d="M 65.5,37.5 C 69.1219,36.924 72.1219,37.924 74.5,40.5C 73.8333,40.8333 73.1667,41.1667 72.5,41.5C 69.5252,40.8607 66.5252,40.3607 63.5,40C 64.3805,39.2917 65.0472,38.4584 65.5,37.5 Z"/></g>
<g><path style="opacity:1" fill="#84523c" d="M 81.5,39.5 C 82.4916,39.3284 83.1583,39.6618 83.5,40.5C 82.8333,42.8333 82.1667,45.1667 81.5,47.5C 81.5,44.8333 81.5,42.1667 81.5,39.5 Z"/></g>
<g><path style="opacity:1" fill="#2b2937" d="M 67.5,45.5 C 71.1612,45.3501 72.1612,46.8501 70.5,50C 69.2068,50.49 67.8734,50.6567 66.5,50.5C 66.366,48.7085 66.6993,47.0418 67.5,45.5 Z"/></g>
<g><path style="opacity:1" fill="#1f2437" d="M 46.5,45.5 C 47.8333,45.5 49.1667,45.5 50.5,45.5C 51.2436,48.9496 49.9103,50.6162 46.5,50.5C 46.5,48.8333 46.5,47.1667 46.5,45.5 Z"/></g>
<g><path style="opacity:1" fill="#dd8249" d="M 36.5,43.5 C 37.8333,48.5 37.8333,53.5 36.5,58.5C 34.5185,55.889 33.5185,52.889 33.5,49.5C 33.0777,46.6923 34.0777,44.6923 36.5,43.5 Z"/></g>
<g><path style="opacity:1" fill="#473336" d="M 39.5,40.5 C 39.5,45.8333 39.5,51.1667 39.5,56.5C 38.8333,57.5 38.1667,58.5 37.5,59.5C 36.8333,59.5 36.5,59.1667 36.5,58.5C 37.8333,53.5 37.8333,48.5 36.5,43.5C 36.5,43.1667 36.5,42.8333 36.5,42.5C 37.2223,41.4489 38.2223,40.7822 39.5,40.5 Z"/></g>
<g><path style="opacity:1" fill="#e48145" d="M 85.5,43.5 C 86.7024,44.4054 88.0357,44.4054 89.5,43.5C 92.5248,44.0332 93.8581,45.8665 93.5,49C 93.2583,53.5929 91.5916,57.4262 88.5,60.5C 87.5,60.5 86.5,60.5 85.5,60.5C 85.5,54.8333 85.5,49.1667 85.5,43.5 Z"/></g>
<g><path style="opacity:1" fill="#162339" d="M 83.5,40.5 C 84.1667,41.5 84.8333,42.5 85.5,43.5C 85.5,49.1667 85.5,54.8333 85.5,60.5C 86.5,60.5 87.5,60.5 88.5,60.5C 87.4324,61.4345 86.099,61.7678 84.5,61.5C 83.7001,67.4299 82.0335,73.0966 79.5,78.5C 78.5987,79.2905 77.9321,80.2905 77.5,81.5C 73.8647,85.6372 69.5314,88.8039 64.5,91C 59.6475,91.8817 54.9808,91.3817 50.5,89.5C 47.8136,87.1442 45.147,84.8109 42.5,82.5C 42.6107,81.8826 42.944,81.3826 43.5,81C 39.2506,74.5071 37.2506,67.3404 37.5,59.5C 38.1667,58.5 38.8333,57.5 39.5,56.5C 40.0482,59.0252 41.0482,61.3585 42.5,63.5C 44.7216,60.7754 47.5549,59.1087 51,58.5C 53.1305,59.9614 55.4638,60.9614 58,61.5C 60.9304,59.7619 64.0971,59.2619 67.5,60C 69.6772,61.5149 71.8439,63.0149 74,64.5C 75.2613,64.2409 76.2613,63.5742 77,62.5C 79.7697,57.8832 81.2697,52.8832 81.5,47.5C 82.1667,45.1667 82.8333,42.8333 83.5,40.5 Z"/></g>
<g><path style="opacity:1" fill="#6ea0df" d="M 19.5,60.5 C 20.3509,62.7097 21.6843,64.7097 23.5,66.5C 21.8409,67.8168 20.6743,69.4835 20,71.5C 18.8589,69.3911 17.3589,67.5578 15.5,66C 17.8142,64.9127 19.1476,63.0794 19.5,60.5 Z"/></g>
<g><path style="opacity:1" fill="#ae4c2b" d="M 51.5,65.5 C 55.8283,66.0464 60.1616,66.7131 64.5,67.5C 60.8356,70.722 56.8356,71.222 52.5,69C 51.6634,67.9887 51.33,66.8221 51.5,65.5 Z"/></g>
<g><path style="opacity:1" fill="#c14a23" d="M 79.5,78.5 C 87.177,80.8377 94.5103,84.0043 101.5,88C 105.864,92.1849 109.198,97.0182 111.5,102.5C 105.639,111.185 97.9728,118.018 88.5,123C 81.2571,126.179 73.7571,128.346 66,129.5C 61.7418,129.791 57.5752,129.125 53.5,127.5C 61.26,128.328 68.5934,127.161 75.5,124C 74.0394,122.649 72.706,121.149 71.5,119.5C 72.2739,118.289 73.1072,118.289 74,119.5C 74.8333,117 76,116.833 77.5,119C 74.0074,120.088 73.8408,121.255 77,122.5C 78.1934,120.395 79.8601,118.728 82,117.5C 83.8357,119.708 86.169,121.042 89,121.5C 89.6667,118.167 90.3333,114.833 91,111.5C 91.3333,114.167 91.6667,116.833 92,119.5C 92.2727,114.771 92.9393,110.104 94,105.5C 95.8315,105.866 97.3315,107.199 98.5,109.5C 99.354,108.478 100.354,107.645 101.5,107C 100.833,106 100.167,105 99.5,104C 101.349,104.947 103.349,105.613 105.5,106C 105.167,105.667 104.833,105.333 104.5,105C 105.759,104.077 107.092,103.243 108.5,102.5C 107.5,101.833 106.5,101.167 105.5,100.5C 106.428,99.2322 106.595,97.8989 106,96.5C 103.777,98.0194 101.444,99.3528 99,100.5C 95.8069,99.3743 94.1402,100.708 94,104.5C 93.8142,102.1 93.3142,99.7662 92.5,97.5C 91.3503,100.747 90.517,104.08 90,107.5C 88.927,106.72 87.7604,106.887 86.5,108C 90.6233,114.265 90.1233,114.765 85,109.5C 84.6667,110.5 84.3333,111.5 84,112.5C 83.1667,111 82,109.833 80.5,109C 81.5,108.667 82.5,108.333 83.5,108C 82.3044,107.346 82.3044,106.846 83.5,106.5C 84.4255,107.641 85.2588,107.641 86,106.5C 86.3534,105.328 86.1868,104.162 85.5,103C 85.6465,101.273 86.3131,101.106 87.5,102.5C 88.5827,101.635 88.7494,100.635 88,99.5C 85.8103,100.584 84.1437,99.9171 83,97.5C 81.9328,98.9431 80.7662,100.276 79.5,101.5C 82.3482,104.494 81.6815,106.494 77.5,107.5C 76.9017,108.795 76.4017,110.128 76,111.5C 75.1667,110 74,108.833 72.5,108C 73.7423,104.643 74.5756,104.81 75,108.5C 76.487,107.747 76.6537,106.914 75.5,106C 76.448,105.517 77.448,105.351 78.5,105.5C 79.2269,101.776 77.8936,99.1091 74.5,97.5C 74.598,98.6161 74.098,99.6161 73,100.5C 71.8382,99.8132 70.6716,99.6466 69.5,100C 71.0074,100.837 71.5074,102.004 71,103.5C 69.2602,102.284 68.2602,100.618 68,98.5C 67.6827,100.301 67.016,100.634 66,99.5C 65.5,100 65,100.5 64.5,101C 65.731,102.183 65.731,103.349 64.5,104.5C 63.6461,103.052 62.6461,101.719 61.5,100.5C 64.4327,98.2619 64.0993,97.2619 60.5,97.5C 60.6621,99.5273 60.4955,101.527 60,103.5C 59.6667,102.833 59.3333,102.167 59,101.5C 57.6003,102.748 56.1003,103.748 54.5,104.5C 55.1534,103.193 55.8201,101.86 56.5,100.5C 47.9239,99.0655 39.4239,99.3988 31,101.5C 27.9626,100.988 25.1293,99.9881 22.5,98.5C 26.7768,90.34 33.4435,85.0067 42.5,82.5C 45.147,84.8109 47.8136,87.1442 50.5,89.5C 55.2158,96.0639 61.2158,97.2306 68.5,93C 72.5025,89.8449 75.5025,86.0115 77.5,81.5C 77.9321,80.2905 78.5987,79.2905 79.5,78.5 Z"/></g>
<g><path style="opacity:1" fill="#e17b40" d="M 77.5,81.5 C 75.5025,86.0115 72.5025,89.8449 68.5,93C 61.2158,97.2306 55.2158,96.0639 50.5,89.5C 54.9808,91.3817 59.6475,91.8817 64.5,91C 69.5314,88.8039 73.8647,85.6372 77.5,81.5 Z"/></g>
<g><path style="opacity:1" fill="#facb68" d="M 8.5,95.5 C 13.1425,96.4971 17.8092,97.4971 22.5,98.5C 25.1293,99.9881 27.9626,100.988 31,101.5C 39.4239,99.3988 47.9239,99.0655 56.5,100.5C 55.8201,101.86 55.1534,103.193 54.5,104.5C 51.2765,111.839 49.2765,119.506 48.5,127.5C 47.4336,129.701 46.767,132.035 46.5,134.5C 40.1649,134.375 33.9983,134.375 28,134.5C 25.1116,133.306 22.2783,132.306 19.5,131.5C 21.9457,130.608 22.6123,129.108 21.5,127C 23.1171,124.63 24.1171,121.964 24.5,119C 23.139,117.073 22.3057,114.906 22,112.5C 21.2496,111.874 20.4162,111.374 19.5,111C 15.8484,110.501 12.1817,110.335 8.5,110.5C 9.66435,106.151 8.66435,102.318 5.5,99C 6.16337,97.4815 7.16337,96.3149 8.5,95.5 Z"/></g>
<g><path style="opacity:1" fill="#c24820" d="M 53.5,127.5 C 51.8333,127.5 50.1667,127.5 48.5,127.5C 49.2765,119.506 51.2765,111.839 54.5,104.5C 56.1003,103.748 57.6003,102.748 59,101.5C 59.3333,102.167 59.6667,102.833 60,103.5C 60.4955,101.527 60.6621,99.5273 60.5,97.5C 64.0993,97.2619 64.4327,98.2619 61.5,100.5C 62.6461,101.719 63.6461,103.052 64.5,104.5C 65.731,103.349 65.731,102.183 64.5,101C 65,100.5 65.5,100 66,99.5C 67.016,100.634 67.6827,100.301 68,98.5C 68.2602,100.618 69.2602,102.284 71,103.5C 71.5074,102.004 71.0074,100.837 69.5,100C 70.6716,99.6466 71.8382,99.8132 73,100.5C 74.098,99.6161 74.598,98.6161 74.5,97.5C 77.8936,99.1091 79.2269,101.776 78.5,105.5C 77.448,105.351 76.448,105.517 75.5,106C 76.6537,106.914 76.487,107.747 75,108.5C 74.5756,104.81 73.7423,104.643 72.5,108C 74,108.833 75.1667,110 76,111.5C 76.4017,110.128 76.9017,108.795 77.5,107.5C 81.6815,106.494 82.3482,104.494 79.5,101.5C 80.7662,100.276 81.9328,98.9431 83,97.5C 84.1437,99.9171 85.8103,100.584 88,99.5C 88.7494,100.635 88.5827,101.635 87.5,102.5C 86.3131,101.106 85.6465,101.273 85.5,103C 86.1868,104.162 86.3534,105.328 86,106.5C 85.2588,107.641 84.4255,107.641 83.5,106.5C 82.3044,106.846 82.3044,107.346 83.5,108C 82.5,108.333 81.5,108.667 80.5,109C 82,109.833 83.1667,111 84,112.5C 84.3333,111.5 84.6667,110.5 85,109.5C 90.1233,114.765 90.6233,114.265 86.5,108C 87.7604,106.887 88.927,106.72 90,107.5C 90.517,104.08 91.3503,100.747 92.5,97.5C 93.3142,99.7662 93.8142,102.1 94,104.5C 94.1402,100.708 95.8069,99.3743 99,100.5C 101.444,99.3528 103.777,98.0194 106,96.5C 106.595,97.8989 106.428,99.2322 105.5,100.5C 106.5,101.167 107.5,101.833 108.5,102.5C 107.092,103.243 105.759,104.077 104.5,105C 104.833,105.333 105.167,105.667 105.5,106C 103.349,105.613 101.349,104.947 99.5,104C 100.167,105 100.833,106 101.5,107C 100.354,107.645 99.354,108.478 98.5,109.5C 97.3315,107.199 95.8315,105.866 94,105.5C 92.9393,110.104 92.2727,114.771 92,119.5C 91.6667,116.833 91.3333,114.167 91,111.5C 90.3333,114.833 89.6667,118.167 89,121.5C 86.169,121.042 83.8357,119.708 82,117.5C 79.8601,118.728 78.1934,120.395 77,122.5C 73.8408,121.255 74.0074,120.088 77.5,119C 76,116.833 74.8333,117 74,119.5C 73.1072,118.289 72.2739,118.289 71.5,119.5C 72.706,121.149 74.0394,122.649 75.5,124C 68.5934,127.161 61.26,128.328 53.5,127.5 Z"/></g>
<g><path style="opacity:1" fill="#ec8b49" d="M 8.5,110.5 C 12.1817,110.335 15.8484,110.501 19.5,111C 20.4162,111.374 21.2496,111.874 22,112.5C 22.3057,114.906 23.139,117.073 24.5,119C 24.1171,121.964 23.1171,124.63 21.5,127C 22.6123,129.108 21.9457,130.608 19.5,131.5C 16.4212,131.26 13.4212,131.593 10.5,132.5C 8.58083,131.388 6.91417,130.054 5.5,128.5C 4.77766,125.695 4.111,123.195 3.5,121C 4.71518,117.519 6.38184,114.019 8.5,110.5 Z"/></g>
<g><path style="opacity:0.008" fill="#5b4850" d="M 5.5,128.5 C 4.83333,129.167 4.83333,129.167 5.5,128.5 Z"/></g>
</svg>
